G75*
%MOIN*%
%OFA0B0*%
%FSLAX25Y25*%
%IPPOS*%
%LPD*%
%AMOC8*
5,1,8,0,0,1.08239X$1,22.5*
%
%ADD10C,0.07400*%
%ADD11C,0.05200*%
%ADD12C,0.08250*%
%ADD13OC8,0.05200*%
%ADD14R,0.09843X0.09843*%
%ADD15C,0.07600*%
%ADD16OC8,0.06600*%
%ADD17C,0.03200*%
%ADD18C,0.02978*%
%ADD19C,0.04800*%
D10*
X0300800Y0037600D03*
X0300800Y0047600D03*
X0300800Y0057600D03*
X0300800Y0067600D03*
X0300800Y0077600D03*
X0300800Y0087600D03*
X0300800Y0097600D03*
X0300800Y0107600D03*
X0300800Y0117600D03*
X0300800Y0127600D03*
X0300800Y0137600D03*
X0300800Y0147600D03*
X0300800Y0157600D03*
X0300800Y0167600D03*
X0300800Y0177600D03*
X0300800Y0187600D03*
X0300800Y0197600D03*
X0300800Y0207600D03*
X0300800Y0217600D03*
X0300800Y0227600D03*
X0310800Y0227600D03*
X0310800Y0217600D03*
X0310800Y0207600D03*
X0310800Y0197600D03*
X0310800Y0187600D03*
X0310800Y0177600D03*
X0310800Y0167600D03*
X0310800Y0157600D03*
X0310800Y0147600D03*
X0310800Y0137600D03*
X0310800Y0127600D03*
X0310800Y0117600D03*
X0310800Y0107600D03*
X0310800Y0097600D03*
X0310800Y0087600D03*
X0310800Y0077600D03*
X0310800Y0067600D03*
X0310800Y0057600D03*
X0310800Y0047600D03*
X0310800Y0037600D03*
D11*
X0251000Y0047600D02*
X0245800Y0047600D01*
X0245800Y0057600D02*
X0251000Y0057600D01*
X0251000Y0067600D02*
X0245800Y0067600D01*
X0215800Y0067600D02*
X0210600Y0067600D01*
X0210600Y0057600D02*
X0215800Y0057600D01*
X0215800Y0047600D02*
X0210600Y0047600D01*
X0176000Y0047600D02*
X0170800Y0047600D01*
X0170800Y0037600D02*
X0176000Y0037600D01*
X0176000Y0057600D02*
X0170800Y0057600D01*
X0140800Y0057600D02*
X0135600Y0057600D01*
X0135600Y0047600D02*
X0140800Y0047600D01*
X0140800Y0037600D02*
X0135600Y0037600D01*
X0106000Y0037600D02*
X0100800Y0037600D01*
X0100800Y0047600D02*
X0106000Y0047600D01*
X0106000Y0057600D02*
X0100800Y0057600D01*
X0070800Y0057600D02*
X0065600Y0057600D01*
X0065600Y0047600D02*
X0070800Y0047600D01*
X0070800Y0037600D02*
X0065600Y0037600D01*
X0065600Y0107600D02*
X0070800Y0107600D01*
X0070800Y0117600D02*
X0065600Y0117600D01*
X0065600Y0127600D02*
X0070800Y0127600D01*
X0100800Y0127600D02*
X0106000Y0127600D01*
X0106000Y0117600D02*
X0100800Y0117600D01*
X0100800Y0107600D02*
X0106000Y0107600D01*
X0135600Y0107600D02*
X0140800Y0107600D01*
X0140800Y0117600D02*
X0135600Y0117600D01*
X0135600Y0127600D02*
X0140800Y0127600D01*
X0170800Y0127600D02*
X0176000Y0127600D01*
X0176000Y0117600D02*
X0170800Y0117600D01*
X0170800Y0107600D02*
X0176000Y0107600D01*
X0210600Y0102600D02*
X0215800Y0102600D01*
X0215800Y0112600D02*
X0210600Y0112600D01*
X0210600Y0122600D02*
X0215800Y0122600D01*
X0215800Y0152600D02*
X0210600Y0152600D01*
X0210600Y0162600D02*
X0215800Y0162600D01*
X0215800Y0172600D02*
X0210600Y0172600D01*
X0245800Y0172600D02*
X0251000Y0172600D01*
X0251000Y0162600D02*
X0245800Y0162600D01*
X0245800Y0152600D02*
X0251000Y0152600D01*
X0251000Y0122600D02*
X0245800Y0122600D01*
X0245800Y0112600D02*
X0251000Y0112600D01*
X0251000Y0102600D02*
X0245800Y0102600D01*
X0106000Y0177600D02*
X0100800Y0177600D01*
X0100800Y0187600D02*
X0106000Y0187600D01*
X0106000Y0197600D02*
X0100800Y0197600D01*
X0070800Y0197600D02*
X0065600Y0197600D01*
X0065600Y0187600D02*
X0070800Y0187600D01*
X0070800Y0177600D02*
X0065600Y0177600D01*
X0068100Y0246600D02*
X0073300Y0246600D01*
X0073300Y0256600D02*
X0068100Y0256600D01*
X0068100Y0266600D02*
X0073300Y0266600D01*
X0103300Y0266600D02*
X0108500Y0266600D01*
X0108500Y0256600D02*
X0103300Y0256600D01*
X0103300Y0246600D02*
X0108500Y0246600D01*
X0173200Y0247600D02*
X0178400Y0247600D01*
X0178400Y0257600D02*
X0173200Y0257600D01*
X0173200Y0267600D02*
X0178400Y0267600D01*
X0178400Y0277600D02*
X0173200Y0277600D01*
X0173200Y0287600D02*
X0178400Y0287600D01*
X0178400Y0297600D02*
X0173200Y0297600D01*
X0173200Y0307600D02*
X0178400Y0307600D01*
X0203200Y0307600D02*
X0208400Y0307600D01*
X0208400Y0297600D02*
X0203200Y0297600D01*
X0203200Y0287600D02*
X0208400Y0287600D01*
X0208400Y0277600D02*
X0203200Y0277600D01*
X0203200Y0267600D02*
X0208400Y0267600D01*
X0208400Y0257600D02*
X0203200Y0257600D01*
X0203200Y0247600D02*
X0208400Y0247600D01*
X0315600Y0257600D02*
X0320800Y0257600D01*
X0320800Y0267600D02*
X0315600Y0267600D01*
X0315600Y0277600D02*
X0320800Y0277600D01*
X0350800Y0277600D02*
X0356000Y0277600D01*
X0356000Y0267600D02*
X0350800Y0267600D01*
X0350800Y0257600D02*
X0356000Y0257600D01*
X0356000Y0312600D02*
X0350800Y0312600D01*
X0350800Y0322600D02*
X0356000Y0322600D01*
X0356000Y0332600D02*
X0350800Y0332600D01*
X0320800Y0332600D02*
X0315600Y0332600D01*
X0315600Y0322600D02*
X0320800Y0322600D01*
X0320800Y0312600D02*
X0315600Y0312600D01*
D12*
X0245800Y0323475D02*
X0245800Y0331725D01*
X0225800Y0331725D02*
X0225800Y0323475D01*
X0185800Y0323475D02*
X0185800Y0331725D01*
X0165800Y0331725D02*
X0165800Y0323475D01*
X0135800Y0323475D02*
X0135800Y0331725D01*
X0115800Y0331725D02*
X0115800Y0323475D01*
X0085800Y0323475D02*
X0085800Y0331725D01*
X0065800Y0331725D02*
X0065800Y0323475D01*
X0044925Y0332600D02*
X0036675Y0332600D01*
X0036675Y0312600D02*
X0044925Y0312600D01*
X0044925Y0282600D02*
X0036675Y0282600D01*
X0036675Y0262600D02*
X0044925Y0262600D01*
X0044925Y0242600D02*
X0036675Y0242600D01*
X0036675Y0212600D02*
X0044925Y0212600D01*
X0044925Y0192600D02*
X0036675Y0192600D01*
X0036675Y0172600D02*
X0044925Y0172600D01*
X0044925Y0142600D02*
X0036675Y0142600D01*
X0036675Y0122600D02*
X0044925Y0122600D01*
X0044925Y0102600D02*
X0036675Y0102600D01*
X0036675Y0072600D02*
X0044925Y0072600D01*
X0044925Y0052600D02*
X0036675Y0052600D01*
X0036675Y0032600D02*
X0044925Y0032600D01*
X0331675Y0047600D02*
X0339925Y0047600D01*
X0339925Y0067600D02*
X0331675Y0067600D01*
X0331675Y0097600D02*
X0339925Y0097600D01*
X0339925Y0117600D02*
X0331675Y0117600D01*
D13*
X0245800Y0137600D03*
X0215800Y0137600D03*
X0200800Y0132600D03*
X0200800Y0152600D03*
X0200800Y0182600D03*
X0215800Y0182600D03*
X0245800Y0182600D03*
X0195800Y0232600D03*
X0185800Y0232600D03*
X0103300Y0236600D03*
X0073300Y0236600D03*
X0058300Y0236600D03*
X0058300Y0266600D03*
X0080800Y0282600D03*
X0090800Y0282600D03*
X0090800Y0312600D03*
X0080800Y0312600D03*
X0055800Y0197600D03*
X0055800Y0167600D03*
X0070800Y0167600D03*
X0100800Y0167600D03*
X0125800Y0127600D03*
X0125800Y0097600D03*
X0140800Y0097600D03*
X0170800Y0097600D03*
X0200800Y0102600D03*
X0215800Y0082600D03*
X0200800Y0077600D03*
X0200800Y0047600D03*
X0215800Y0037600D03*
X0215800Y0022600D03*
X0245800Y0022600D03*
X0245800Y0037600D03*
X0245800Y0082600D03*
X0170800Y0027600D03*
X0140800Y0027600D03*
X0125800Y0027600D03*
X0100800Y0027600D03*
X0070800Y0027600D03*
X0055800Y0027600D03*
X0055800Y0057600D03*
X0055800Y0097600D03*
X0070800Y0097600D03*
X0100800Y0097600D03*
X0125800Y0057600D03*
X0055800Y0127600D03*
X0320800Y0242600D03*
X0350800Y0242600D03*
X0365800Y0257600D03*
X0365800Y0287600D03*
X0350800Y0297600D03*
X0365800Y0312600D03*
X0365800Y0342600D03*
X0320800Y0297600D03*
D14*
X0334800Y0185600D03*
X0266800Y0185600D03*
X0266800Y0029600D03*
X0334800Y0029600D03*
D15*
X0160800Y0247600D03*
X0120800Y0247600D03*
X0225800Y0272600D03*
X0265800Y0272600D03*
D16*
X0265800Y0262600D03*
X0265800Y0242600D03*
X0265800Y0232600D03*
X0265800Y0222600D03*
X0225800Y0222600D03*
X0225800Y0232600D03*
X0225800Y0242600D03*
X0225800Y0262600D03*
X0225800Y0287600D03*
X0225800Y0297600D03*
X0225800Y0307600D03*
X0265800Y0307600D03*
X0265800Y0297600D03*
X0265800Y0287600D03*
X0160800Y0287600D03*
X0160800Y0297600D03*
X0160800Y0307600D03*
X0160800Y0277600D03*
X0160800Y0257600D03*
X0160800Y0237600D03*
X0120800Y0237600D03*
X0120800Y0257600D03*
X0120800Y0277600D03*
X0120800Y0287600D03*
X0120800Y0297600D03*
X0120800Y0307600D03*
D17*
X0026400Y0341961D02*
X0026400Y0018200D01*
X0092326Y0018200D01*
X0081134Y0029392D01*
X0080665Y0029425D01*
X0080499Y0029425D01*
X0077953Y0026879D01*
X0076556Y0026300D01*
X0075600Y0026300D01*
X0075600Y0025612D01*
X0072788Y0022800D01*
X0068812Y0022800D01*
X0066000Y0025612D01*
X0066000Y0029588D01*
X0068812Y0032400D01*
X0070226Y0032400D01*
X0070626Y0032800D01*
X0064645Y0032800D01*
X0062881Y0033531D01*
X0061531Y0034881D01*
X0060800Y0036645D01*
X0060800Y0038555D01*
X0061531Y0040319D01*
X0062881Y0041669D01*
X0064645Y0042400D01*
X0071755Y0042400D01*
X0073519Y0041669D01*
X0074869Y0040319D01*
X0075600Y0038555D01*
X0075600Y0036645D01*
X0074869Y0034881D01*
X0073888Y0033900D01*
X0074226Y0033900D01*
X0075750Y0035424D01*
X0075750Y0093800D01*
X0073788Y0093800D01*
X0072788Y0092800D01*
X0068812Y0092800D01*
X0066000Y0095612D01*
X0066000Y0099588D01*
X0068812Y0102400D01*
X0072788Y0102400D01*
X0073788Y0101400D01*
X0075750Y0101400D01*
X0075750Y0157276D01*
X0070226Y0162800D01*
X0068812Y0162800D01*
X0066000Y0165612D01*
X0066000Y0169588D01*
X0068812Y0172400D01*
X0072788Y0172400D01*
X0075600Y0169588D01*
X0075600Y0168174D01*
X0081703Y0162071D01*
X0082771Y0161003D01*
X0083350Y0159606D01*
X0083350Y0092650D01*
X0130476Y0092650D01*
X0136000Y0098174D01*
X0136000Y0099588D01*
X0138812Y0102400D01*
X0142788Y0102400D01*
X0145600Y0099588D01*
X0145600Y0095612D01*
X0142788Y0092800D01*
X0141374Y0092800D01*
X0141224Y0092650D01*
X0173501Y0092650D01*
X0173070Y0093081D01*
X0172788Y0092800D01*
X0168812Y0092800D01*
X0166000Y0095612D01*
X0166000Y0099588D01*
X0168812Y0102400D01*
X0172788Y0102400D01*
X0173788Y0101400D01*
X0174681Y0101400D01*
X0176078Y0100821D01*
X0177146Y0099753D01*
X0179249Y0097650D01*
X0215109Y0097650D01*
X0215172Y0097800D01*
X0209645Y0097800D01*
X0207881Y0098531D01*
X0206531Y0099881D01*
X0205800Y0101645D01*
X0205800Y0103555D01*
X0206531Y0105319D01*
X0207881Y0106669D01*
X0209645Y0107400D01*
X0216755Y0107400D01*
X0218519Y0106669D01*
X0219869Y0105319D01*
X0220600Y0103555D01*
X0220600Y0101645D01*
X0220312Y0100950D01*
X0220465Y0100950D01*
X0220750Y0100832D01*
X0220750Y0133800D01*
X0218788Y0133800D01*
X0217788Y0132800D01*
X0213812Y0132800D01*
X0211000Y0135612D01*
X0211000Y0139588D01*
X0211462Y0140050D01*
X0199130Y0140050D01*
X0199031Y0139950D01*
X0198884Y0139890D01*
X0201374Y0137400D01*
X0202788Y0137400D01*
X0205600Y0134588D01*
X0205600Y0130612D01*
X0202788Y0127800D01*
X0198812Y0127800D01*
X0196000Y0130612D01*
X0196000Y0132026D01*
X0184272Y0143754D01*
X0183204Y0144822D01*
X0182625Y0146219D01*
X0182625Y0146868D01*
X0182340Y0146750D01*
X0182199Y0146750D01*
X0151078Y0115629D01*
X0149681Y0115050D01*
X0144939Y0115050D01*
X0144869Y0114881D01*
X0143519Y0113531D01*
X0141755Y0112800D01*
X0134645Y0112800D01*
X0132881Y0113531D01*
X0131531Y0114881D01*
X0130800Y0116645D01*
X0130800Y0118555D01*
X0131531Y0120319D01*
X0132881Y0121669D01*
X0134645Y0122400D01*
X0140691Y0122400D01*
X0141294Y0122650D01*
X0147351Y0122650D01*
X0148341Y0123640D01*
X0148194Y0123700D01*
X0146900Y0124994D01*
X0146200Y0126685D01*
X0146200Y0128515D01*
X0146900Y0130206D01*
X0147000Y0130305D01*
X0147000Y0230520D01*
X0146900Y0230619D01*
X0146200Y0232310D01*
X0146200Y0234140D01*
X0146900Y0235831D01*
X0148194Y0237125D01*
X0149885Y0237825D01*
X0151715Y0237825D01*
X0153406Y0237125D01*
X0154700Y0235831D01*
X0155400Y0234140D01*
X0155400Y0232310D01*
X0154700Y0230619D01*
X0154600Y0230520D01*
X0154600Y0130305D01*
X0154700Y0130206D01*
X0154760Y0130059D01*
X0176825Y0152124D01*
X0176825Y0152265D01*
X0177525Y0153956D01*
X0178819Y0155250D01*
X0180510Y0155950D01*
X0182340Y0155950D01*
X0182625Y0155832D01*
X0182625Y0220050D01*
X0176294Y0220050D01*
X0174897Y0220629D01*
X0166460Y0229066D01*
X0165391Y0230135D01*
X0163252Y0232274D01*
X0163078Y0232100D01*
X0158522Y0232100D01*
X0155300Y0235322D01*
X0155300Y0239878D01*
X0157779Y0242357D01*
X0157401Y0242513D01*
X0155713Y0244201D01*
X0154800Y0246407D01*
X0154800Y0248793D01*
X0155713Y0250999D01*
X0157401Y0252687D01*
X0157779Y0252843D01*
X0155300Y0255322D01*
X0155300Y0259878D01*
X0158522Y0263100D01*
X0163078Y0263100D01*
X0166300Y0259878D01*
X0166300Y0255322D01*
X0163821Y0252843D01*
X0164199Y0252687D01*
X0165887Y0250999D01*
X0166800Y0248793D01*
X0166800Y0246407D01*
X0165887Y0244201D01*
X0164199Y0242513D01*
X0163821Y0242357D01*
X0165289Y0240889D01*
X0165453Y0240821D01*
X0166521Y0239753D01*
X0169249Y0237025D01*
X0172000Y0237025D01*
X0172000Y0242902D01*
X0170481Y0243531D01*
X0169131Y0244881D01*
X0168400Y0246645D01*
X0168400Y0248555D01*
X0169131Y0250319D01*
X0170481Y0251669D01*
X0172245Y0252400D01*
X0179355Y0252400D01*
X0181119Y0251669D01*
X0182469Y0250319D01*
X0183200Y0248555D01*
X0183200Y0246645D01*
X0183185Y0246609D01*
X0190750Y0254174D01*
X0190750Y0268356D01*
X0191329Y0269753D01*
X0192397Y0270821D01*
X0193794Y0271400D01*
X0200212Y0271400D01*
X0200481Y0271669D01*
X0202245Y0272400D01*
X0209355Y0272400D01*
X0211119Y0271669D01*
X0212469Y0270319D01*
X0213200Y0268555D01*
X0213200Y0266645D01*
X0212469Y0264881D01*
X0211119Y0263531D01*
X0209355Y0262800D01*
X0202245Y0262800D01*
X0200481Y0263531D01*
X0200212Y0263800D01*
X0198350Y0263800D01*
X0198350Y0251844D01*
X0197771Y0250447D01*
X0196703Y0249379D01*
X0189600Y0242276D01*
X0189600Y0235588D01*
X0190600Y0234588D01*
X0190600Y0230612D01*
X0187788Y0227800D01*
X0183812Y0227800D01*
X0181000Y0230612D01*
X0181000Y0234588D01*
X0182000Y0235588D01*
X0182000Y0244412D01*
X0181119Y0243531D01*
X0179600Y0242902D01*
X0179600Y0232469D01*
X0179021Y0231072D01*
X0177953Y0230004D01*
X0176763Y0229511D01*
X0178624Y0227650D01*
X0187181Y0227650D01*
X0188578Y0227071D01*
X0189550Y0226099D01*
X0189897Y0226446D01*
X0191294Y0227025D01*
X0197976Y0227025D01*
X0212625Y0241674D01*
X0212625Y0245257D01*
X0212469Y0244881D01*
X0211119Y0243531D01*
X0209355Y0242800D01*
X0202245Y0242800D01*
X0200481Y0243531D01*
X0199131Y0244881D01*
X0198400Y0246645D01*
X0198400Y0248555D01*
X0199131Y0250319D01*
X0200481Y0251669D01*
X0202245Y0252400D01*
X0209355Y0252400D01*
X0211119Y0251669D01*
X0212469Y0250319D01*
X0213083Y0248837D01*
X0213204Y0249128D01*
X0219454Y0255378D01*
X0219454Y0255378D01*
X0220522Y0256446D01*
X0221919Y0257025D01*
X0228601Y0257025D01*
X0232625Y0261049D01*
X0232625Y0296145D01*
X0232525Y0296244D01*
X0231825Y0297935D01*
X0231825Y0299765D01*
X0232525Y0301456D01*
X0233819Y0302750D01*
X0233966Y0302810D01*
X0232976Y0303800D01*
X0229778Y0303800D01*
X0228578Y0302600D01*
X0231300Y0299878D01*
X0231300Y0295322D01*
X0228578Y0292600D01*
X0231300Y0289878D01*
X0231300Y0285322D01*
X0228078Y0282100D01*
X0223522Y0282100D01*
X0220300Y0285322D01*
X0220300Y0289878D01*
X0223022Y0292600D01*
X0220300Y0295322D01*
X0220300Y0299878D01*
X0223022Y0302600D01*
X0220300Y0305322D01*
X0220300Y0309878D01*
X0220474Y0310052D01*
X0217976Y0312550D01*
X0201124Y0312550D01*
X0190850Y0302276D01*
X0190850Y0276844D01*
X0190271Y0275447D01*
X0189203Y0274379D01*
X0187806Y0273800D01*
X0181388Y0273800D01*
X0181119Y0273531D01*
X0179355Y0272800D01*
X0176374Y0272800D01*
X0175974Y0272400D01*
X0179355Y0272400D01*
X0181119Y0271669D01*
X0182469Y0270319D01*
X0183200Y0268555D01*
X0183200Y0266645D01*
X0182469Y0264881D01*
X0181119Y0263531D01*
X0179355Y0262800D01*
X0172245Y0262800D01*
X0170481Y0263531D01*
X0169131Y0264881D01*
X0168933Y0265359D01*
X0168578Y0265004D01*
X0167181Y0264425D01*
X0143169Y0264425D01*
X0141772Y0265004D01*
X0123877Y0282899D01*
X0123861Y0282883D01*
X0126700Y0280044D01*
X0126700Y0277600D01*
X0120800Y0277600D01*
X0120800Y0277600D01*
X0126700Y0277600D01*
X0126700Y0275156D01*
X0123244Y0271700D01*
X0120800Y0271700D01*
X0120800Y0277600D01*
X0120800Y0277600D01*
X0120800Y0277600D01*
X0114900Y0277600D01*
X0114900Y0280044D01*
X0117739Y0282883D01*
X0115300Y0285322D01*
X0115300Y0289878D01*
X0118022Y0292600D01*
X0115300Y0295322D01*
X0115300Y0299878D01*
X0117739Y0302317D01*
X0114900Y0305156D01*
X0114900Y0307600D01*
X0120800Y0307600D01*
X0126700Y0307600D01*
X0126700Y0310044D01*
X0125159Y0311585D01*
X0131952Y0318378D01*
X0132217Y0318113D01*
X0134542Y0317150D01*
X0137058Y0317150D01*
X0139383Y0318113D01*
X0141162Y0319892D01*
X0142125Y0322217D01*
X0142125Y0332983D01*
X0141162Y0335308D01*
X0139383Y0337087D01*
X0137058Y0338050D01*
X0134542Y0338050D01*
X0132217Y0337087D01*
X0130438Y0335308D01*
X0129475Y0332983D01*
X0129475Y0326649D01*
X0119851Y0317025D01*
X0111919Y0317025D01*
X0110522Y0316446D01*
X0089272Y0295196D01*
X0088204Y0294128D01*
X0087625Y0292731D01*
X0087625Y0286213D01*
X0086000Y0284588D01*
X0086000Y0282774D01*
X0085600Y0283174D01*
X0085600Y0284588D01*
X0082788Y0287400D01*
X0078812Y0287400D01*
X0076000Y0284588D01*
X0076000Y0280612D01*
X0078812Y0277800D01*
X0080226Y0277800D01*
X0083829Y0274197D01*
X0084897Y0273129D01*
X0086294Y0272550D01*
X0086375Y0272550D01*
X0086375Y0252299D01*
X0076101Y0242025D01*
X0074798Y0242025D01*
X0076019Y0242531D01*
X0077369Y0243881D01*
X0078100Y0245645D01*
X0078100Y0247555D01*
X0077369Y0249319D01*
X0076019Y0250669D01*
X0074255Y0251400D01*
X0067145Y0251400D01*
X0065381Y0250669D01*
X0064031Y0249319D01*
X0063300Y0247555D01*
X0063300Y0245645D01*
X0064031Y0243881D01*
X0065381Y0242531D01*
X0067145Y0241800D01*
X0073251Y0241800D01*
X0072397Y0241446D01*
X0072351Y0241400D01*
X0071312Y0241400D01*
X0068500Y0238588D01*
X0068500Y0234612D01*
X0071312Y0231800D01*
X0075288Y0231800D01*
X0077913Y0234425D01*
X0078431Y0234425D01*
X0079828Y0235004D01*
X0092328Y0247504D01*
X0093396Y0248572D01*
X0093975Y0249969D01*
X0093975Y0278987D01*
X0095600Y0280612D01*
X0095600Y0284588D01*
X0095225Y0284963D01*
X0095225Y0290401D01*
X0114249Y0309425D01*
X0114900Y0309425D01*
X0114900Y0307600D01*
X0120800Y0307600D01*
X0120800Y0307600D01*
X0120800Y0307600D01*
X0126700Y0307600D01*
X0126700Y0305156D01*
X0123861Y0302317D01*
X0126300Y0299878D01*
X0126300Y0295322D01*
X0123578Y0292600D01*
X0124778Y0291400D01*
X0125306Y0291400D01*
X0126703Y0290821D01*
X0127771Y0289753D01*
X0127771Y0289753D01*
X0145499Y0272025D01*
X0164851Y0272025D01*
X0168714Y0275888D01*
X0168400Y0276645D01*
X0168400Y0278555D01*
X0169131Y0280319D01*
X0170481Y0281669D01*
X0172245Y0282400D01*
X0179355Y0282400D01*
X0181119Y0281669D01*
X0181388Y0281400D01*
X0183250Y0281400D01*
X0183250Y0304606D01*
X0183829Y0306003D01*
X0184897Y0307071D01*
X0197397Y0319571D01*
X0198794Y0320150D01*
X0220306Y0320150D01*
X0220336Y0320137D01*
X0219475Y0322217D01*
X0219475Y0332983D01*
X0220438Y0335308D01*
X0222217Y0337087D01*
X0224542Y0338050D01*
X0227058Y0338050D01*
X0229383Y0337087D01*
X0231162Y0335308D01*
X0232125Y0332983D01*
X0232125Y0322217D01*
X0231162Y0319892D01*
X0229383Y0318113D01*
X0227058Y0317150D01*
X0224542Y0317150D01*
X0223828Y0317446D01*
X0224249Y0317025D01*
X0250931Y0317025D01*
X0252328Y0316446D01*
X0253396Y0315378D01*
X0260300Y0308474D01*
X0260300Y0309878D01*
X0263522Y0313100D01*
X0268078Y0313100D01*
X0271300Y0309878D01*
X0271300Y0305322D01*
X0268578Y0302600D01*
X0271300Y0299878D01*
X0271300Y0295322D01*
X0268578Y0292600D01*
X0271300Y0289878D01*
X0271300Y0285322D01*
X0268078Y0282100D01*
X0263522Y0282100D01*
X0260300Y0285322D01*
X0260300Y0287726D01*
X0256726Y0291300D01*
X0246294Y0291300D01*
X0244897Y0291879D01*
X0240385Y0296391D01*
X0240325Y0296244D01*
X0240225Y0296145D01*
X0240225Y0258719D01*
X0239646Y0257322D01*
X0238578Y0256254D01*
X0232328Y0250004D01*
X0230931Y0249425D01*
X0224249Y0249425D01*
X0220225Y0245401D01*
X0220225Y0239344D01*
X0219646Y0237947D01*
X0218578Y0236879D01*
X0218578Y0236879D01*
X0206799Y0225100D01*
X0206919Y0225150D01*
X0220572Y0225150D01*
X0223022Y0227600D01*
X0220300Y0230322D01*
X0220300Y0234878D01*
X0223022Y0237600D01*
X0220300Y0240322D01*
X0220300Y0244878D01*
X0223522Y0248100D01*
X0228078Y0248100D01*
X0231300Y0244878D01*
X0231300Y0240322D01*
X0228578Y0237600D01*
X0228877Y0237301D01*
X0246772Y0255196D01*
X0248169Y0255775D01*
X0253601Y0255775D01*
X0253647Y0255821D01*
X0255044Y0256400D01*
X0267351Y0256400D01*
X0268051Y0257100D01*
X0263522Y0257100D01*
X0260300Y0260322D01*
X0260300Y0264878D01*
X0262779Y0267357D01*
X0262401Y0267513D01*
X0260713Y0269201D01*
X0259800Y0271407D01*
X0259800Y0273793D01*
X0260713Y0275999D01*
X0262401Y0277687D01*
X0264607Y0278600D01*
X0266993Y0278600D01*
X0269199Y0277687D01*
X0270887Y0275999D01*
X0271800Y0273793D01*
X0271800Y0271407D01*
X0270887Y0269201D01*
X0269199Y0267513D01*
X0268821Y0267357D01*
X0271300Y0264878D01*
X0271300Y0260349D01*
X0302000Y0291049D01*
X0302000Y0298356D01*
X0302579Y0299753D01*
X0303647Y0300821D01*
X0305044Y0301400D01*
X0306556Y0301400D01*
X0307953Y0300821D01*
X0309021Y0299753D01*
X0309514Y0298563D01*
X0318022Y0307071D01*
X0319419Y0307650D01*
X0360306Y0307650D01*
X0361703Y0307071D01*
X0362771Y0306003D01*
X0363350Y0304606D01*
X0363350Y0295424D01*
X0366374Y0292400D01*
X0367788Y0292400D01*
X0368901Y0291287D01*
X0368901Y0308913D01*
X0367788Y0307800D01*
X0363812Y0307800D01*
X0361000Y0310612D01*
X0361000Y0314588D01*
X0363812Y0317400D01*
X0367788Y0317400D01*
X0368901Y0316287D01*
X0368901Y0338913D01*
X0367788Y0337800D01*
X0363812Y0337800D01*
X0361000Y0340612D01*
X0361000Y0341961D01*
X0026400Y0341961D01*
X0026400Y0341347D02*
X0361000Y0341347D01*
X0363463Y0338148D02*
X0048741Y0338148D01*
X0048669Y0338204D02*
X0047906Y0338644D01*
X0047091Y0338982D01*
X0046240Y0339210D01*
X0045366Y0339325D01*
X0040800Y0339325D01*
X0040800Y0332600D01*
X0040800Y0332600D01*
X0051650Y0332600D01*
X0051650Y0333041D01*
X0051535Y0333915D01*
X0051307Y0334766D01*
X0050969Y0335581D01*
X0050529Y0336344D01*
X0049992Y0337044D01*
X0049369Y0337667D01*
X0048669Y0338204D01*
X0051231Y0334950D02*
X0060290Y0334950D01*
X0060438Y0335308D02*
X0059475Y0332983D01*
X0059475Y0322217D01*
X0060438Y0319892D01*
X0062217Y0318113D01*
X0064542Y0317150D01*
X0067058Y0317150D01*
X0069383Y0318113D01*
X0071162Y0319892D01*
X0072125Y0322217D01*
X0072125Y0332983D01*
X0071162Y0335308D01*
X0069383Y0337087D01*
X0067058Y0338050D01*
X0064542Y0338050D01*
X0062217Y0337087D01*
X0060438Y0335308D01*
X0059475Y0331751D02*
X0051596Y0331751D01*
X0051650Y0332159D02*
X0051535Y0331285D01*
X0051307Y0330434D01*
X0050969Y0329619D01*
X0050529Y0328856D01*
X0049992Y0328156D01*
X0049369Y0327533D01*
X0048669Y0326996D01*
X0047906Y0326556D01*
X0047091Y0326218D01*
X0046240Y0325990D01*
X0045366Y0325875D01*
X0040800Y0325875D01*
X0040800Y0332600D01*
X0040800Y0332600D01*
X0040800Y0332600D01*
X0040800Y0332600D01*
X0029950Y0332600D01*
X0029950Y0333041D01*
X0030065Y0333915D01*
X0030293Y0334766D01*
X0030631Y0335581D01*
X0031071Y0336344D01*
X0031608Y0337044D01*
X0032231Y0337667D01*
X0032931Y0338204D01*
X0033694Y0338644D01*
X0034509Y0338982D01*
X0035360Y0339210D01*
X0036234Y0339325D01*
X0040800Y0339325D01*
X0040800Y0332600D01*
X0051650Y0332600D01*
X0051650Y0332159D01*
X0050296Y0328553D02*
X0059475Y0328553D01*
X0059475Y0325354D02*
X0026400Y0325354D01*
X0026400Y0322156D02*
X0059500Y0322156D01*
X0061373Y0318957D02*
X0026400Y0318957D01*
X0026400Y0315759D02*
X0031137Y0315759D01*
X0031313Y0316183D02*
X0030350Y0313858D01*
X0030350Y0311342D01*
X0031313Y0309017D01*
X0033092Y0307238D01*
X0035417Y0306275D01*
X0046183Y0306275D01*
X0048508Y0307238D01*
X0050287Y0309017D01*
X0051250Y0311342D01*
X0051250Y0313858D01*
X0050287Y0316183D01*
X0048508Y0317962D01*
X0046183Y0318925D01*
X0035417Y0318925D01*
X0033092Y0317962D01*
X0031313Y0316183D01*
X0030350Y0312560D02*
X0026400Y0312560D01*
X0026400Y0309362D02*
X0031170Y0309362D01*
X0026400Y0306163D02*
X0100239Y0306163D01*
X0097041Y0302965D02*
X0026400Y0302965D01*
X0026400Y0299766D02*
X0093842Y0299766D01*
X0090644Y0296568D02*
X0026400Y0296568D01*
X0026400Y0293369D02*
X0087889Y0293369D01*
X0087625Y0290171D02*
X0026400Y0290171D01*
X0026400Y0286972D02*
X0032102Y0286972D01*
X0031313Y0286183D02*
X0030350Y0283858D01*
X0030350Y0281342D01*
X0031313Y0279017D01*
X0033092Y0277238D01*
X0035417Y0276275D01*
X0041751Y0276275D01*
X0048875Y0269151D01*
X0048875Y0267595D01*
X0048508Y0267962D01*
X0046183Y0268925D01*
X0035417Y0268925D01*
X0033092Y0267962D01*
X0031313Y0266183D01*
X0030350Y0263858D01*
X0030350Y0261342D01*
X0031313Y0259017D01*
X0033092Y0257238D01*
X0035417Y0256275D01*
X0046183Y0256275D01*
X0048508Y0257238D01*
X0048875Y0257605D01*
X0048875Y0249344D01*
X0049454Y0247947D01*
X0053875Y0243526D01*
X0053875Y0238963D01*
X0053500Y0238588D01*
X0053500Y0234612D01*
X0056312Y0231800D01*
X0059976Y0231800D01*
X0067397Y0224379D01*
X0068794Y0223800D01*
X0111556Y0223800D01*
X0112953Y0224379D01*
X0114021Y0225447D01*
X0120674Y0232100D01*
X0123078Y0232100D01*
X0126300Y0235322D01*
X0126300Y0239878D01*
X0124077Y0242102D01*
X0124363Y0242267D01*
X0125029Y0242778D01*
X0125622Y0243371D01*
X0126133Y0244037D01*
X0126552Y0244763D01*
X0126873Y0245538D01*
X0127090Y0246349D01*
X0127200Y0247181D01*
X0127200Y0247600D01*
X0127200Y0248019D01*
X0127090Y0248851D01*
X0126873Y0249662D01*
X0126552Y0250437D01*
X0126133Y0251163D01*
X0125622Y0251829D01*
X0125029Y0252422D01*
X0124363Y0252933D01*
X0124077Y0253098D01*
X0126300Y0255322D01*
X0126300Y0259878D01*
X0123078Y0263100D01*
X0118522Y0263100D01*
X0115300Y0259878D01*
X0115300Y0255322D01*
X0117523Y0253098D01*
X0117237Y0252933D01*
X0116571Y0252422D01*
X0115978Y0251829D01*
X0115467Y0251163D01*
X0115048Y0250437D01*
X0114727Y0249662D01*
X0114510Y0248851D01*
X0114400Y0248019D01*
X0114400Y0247600D01*
X0120800Y0247600D01*
X0127200Y0247600D01*
X0120800Y0247600D01*
X0120800Y0247600D01*
X0120800Y0247600D01*
X0114400Y0247600D01*
X0114400Y0247181D01*
X0114510Y0246349D01*
X0114727Y0245538D01*
X0115048Y0244763D01*
X0115467Y0244037D01*
X0115978Y0243371D01*
X0116571Y0242778D01*
X0117237Y0242267D01*
X0117523Y0242102D01*
X0115300Y0239878D01*
X0115300Y0237474D01*
X0109226Y0231400D01*
X0071124Y0231400D01*
X0064646Y0237878D01*
X0063578Y0238946D01*
X0062181Y0239525D01*
X0062163Y0239525D01*
X0061475Y0240213D01*
X0061475Y0245856D01*
X0060896Y0247253D01*
X0059828Y0248321D01*
X0056475Y0251674D01*
X0056475Y0261800D01*
X0060288Y0261800D01*
X0063100Y0264612D01*
X0063100Y0268588D01*
X0060288Y0271400D01*
X0056475Y0271400D01*
X0056475Y0271481D01*
X0055896Y0272878D01*
X0054828Y0273946D01*
X0050022Y0278752D01*
X0050287Y0279017D01*
X0051250Y0281342D01*
X0051250Y0283858D01*
X0050287Y0286183D01*
X0048508Y0287962D01*
X0046183Y0288925D01*
X0035417Y0288925D01*
X0033092Y0287962D01*
X0031313Y0286183D01*
X0030350Y0283774D02*
X0026400Y0283774D01*
X0026400Y0280575D02*
X0030668Y0280575D01*
X0032953Y0277377D02*
X0026400Y0277377D01*
X0026400Y0274178D02*
X0043848Y0274178D01*
X0047046Y0270980D02*
X0026400Y0270980D01*
X0026400Y0267781D02*
X0032911Y0267781D01*
X0030650Y0264583D02*
X0026400Y0264583D01*
X0026400Y0261384D02*
X0030350Y0261384D01*
X0032144Y0258186D02*
X0026400Y0258186D01*
X0026400Y0254987D02*
X0048875Y0254987D01*
X0048875Y0251789D02*
X0026400Y0251789D01*
X0026400Y0248590D02*
X0033600Y0248590D01*
X0033694Y0248644D02*
X0032931Y0248204D01*
X0032231Y0247667D01*
X0031608Y0247044D01*
X0031071Y0246344D01*
X0030631Y0245581D01*
X0030293Y0244766D01*
X0030065Y0243915D01*
X0029950Y0243041D01*
X0029950Y0242600D01*
X0040800Y0242600D01*
X0040800Y0242600D01*
X0040800Y0249325D01*
X0045366Y0249325D01*
X0046240Y0249210D01*
X0047091Y0248982D01*
X0047906Y0248644D01*
X0048669Y0248204D01*
X0049369Y0247667D01*
X0049992Y0247044D01*
X0050529Y0246344D01*
X0050969Y0245581D01*
X0051307Y0244766D01*
X0051535Y0243915D01*
X0051650Y0243041D01*
X0051650Y0242600D01*
X0040800Y0242600D01*
X0040800Y0242600D01*
X0040800Y0235875D01*
X0045366Y0235875D01*
X0046240Y0235990D01*
X0047091Y0236218D01*
X0047906Y0236556D01*
X0048669Y0236996D01*
X0049369Y0237533D01*
X0049992Y0238156D01*
X0050529Y0238856D01*
X0050969Y0239619D01*
X0051307Y0240434D01*
X0051535Y0241285D01*
X0051650Y0242159D01*
X0051650Y0242600D01*
X0040800Y0242600D01*
X0040800Y0242600D01*
X0040800Y0242600D01*
X0040800Y0249325D01*
X0036234Y0249325D01*
X0035360Y0249210D01*
X0034509Y0248982D01*
X0033694Y0248644D01*
X0030552Y0245392D02*
X0026400Y0245392D01*
X0026400Y0242193D02*
X0029950Y0242193D01*
X0029950Y0242159D02*
X0030065Y0241285D01*
X0030293Y0240434D01*
X0030631Y0239619D01*
X0031071Y0238856D01*
X0031608Y0238156D01*
X0032231Y0237533D01*
X0032931Y0236996D01*
X0033694Y0236556D01*
X0034509Y0236218D01*
X0035360Y0235990D01*
X0036234Y0235875D01*
X0040800Y0235875D01*
X0040800Y0242600D01*
X0029950Y0242600D01*
X0029950Y0242159D01*
X0030991Y0238995D02*
X0026400Y0238995D01*
X0026400Y0235796D02*
X0053500Y0235796D01*
X0053875Y0238995D02*
X0050609Y0238995D01*
X0051650Y0242193D02*
X0053875Y0242193D01*
X0052009Y0245392D02*
X0051048Y0245392D01*
X0049187Y0248590D02*
X0048000Y0248590D01*
X0052675Y0250100D02*
X0057675Y0245100D01*
X0057675Y0236975D01*
X0058300Y0236975D01*
X0058300Y0236600D01*
X0059550Y0235725D01*
X0061425Y0235725D01*
X0069550Y0227600D01*
X0110800Y0227600D01*
X0120800Y0237600D01*
X0126300Y0238995D02*
X0155300Y0238995D01*
X0155300Y0235796D02*
X0154714Y0235796D01*
X0155400Y0232598D02*
X0158024Y0232598D01*
X0154600Y0229399D02*
X0166127Y0229399D01*
X0168613Y0232287D02*
X0169550Y0233225D01*
X0175800Y0233225D01*
X0175800Y0247600D01*
X0172245Y0252800D02*
X0170481Y0253531D01*
X0169131Y0254881D01*
X0168400Y0256645D01*
X0168400Y0258555D01*
X0169131Y0260319D01*
X0170481Y0261669D01*
X0172245Y0262400D01*
X0179355Y0262400D01*
X0181119Y0261669D01*
X0182469Y0260319D01*
X0183200Y0258555D01*
X0183200Y0256645D01*
X0182469Y0254881D01*
X0181119Y0253531D01*
X0179355Y0252800D01*
X0172245Y0252800D01*
X0170769Y0251789D02*
X0165097Y0251789D01*
X0165965Y0254987D02*
X0169087Y0254987D01*
X0168400Y0258186D02*
X0166300Y0258186D01*
X0164794Y0261384D02*
X0170196Y0261384D01*
X0169429Y0264583D02*
X0167561Y0264583D01*
X0166425Y0268225D02*
X0143925Y0268225D01*
X0124550Y0287600D01*
X0120800Y0287600D01*
X0116848Y0283774D02*
X0095600Y0283774D01*
X0095563Y0280575D02*
X0115431Y0280575D01*
X0114900Y0277600D02*
X0114900Y0275156D01*
X0118356Y0271700D01*
X0120800Y0271700D01*
X0120800Y0277600D01*
X0114900Y0277600D01*
X0114900Y0277377D02*
X0093975Y0277377D01*
X0093975Y0274178D02*
X0115878Y0274178D01*
X0120800Y0274178D02*
X0120800Y0274178D01*
X0120800Y0277377D02*
X0120800Y0277377D01*
X0125722Y0274178D02*
X0132598Y0274178D01*
X0135796Y0270980D02*
X0110470Y0270980D01*
X0111219Y0270669D02*
X0109455Y0271400D01*
X0102345Y0271400D01*
X0100581Y0270669D01*
X0099231Y0269319D01*
X0098500Y0267555D01*
X0098500Y0265645D01*
X0099231Y0263881D01*
X0100581Y0262531D01*
X0102345Y0261800D01*
X0109455Y0261800D01*
X0111219Y0262531D01*
X0112569Y0263881D01*
X0113300Y0265645D01*
X0113300Y0267555D01*
X0112569Y0269319D01*
X0111219Y0270669D01*
X0113206Y0267781D02*
X0138995Y0267781D01*
X0142789Y0264583D02*
X0112860Y0264583D01*
X0111219Y0260669D02*
X0109455Y0261400D01*
X0102345Y0261400D01*
X0100581Y0260669D01*
X0099231Y0259319D01*
X0098500Y0257555D01*
X0098500Y0255645D01*
X0099231Y0253881D01*
X0100581Y0252531D01*
X0102345Y0251800D01*
X0109455Y0251800D01*
X0111219Y0252531D01*
X0112569Y0253881D01*
X0113300Y0255645D01*
X0113300Y0257555D01*
X0112569Y0259319D01*
X0111219Y0260669D01*
X0109493Y0261384D02*
X0116806Y0261384D01*
X0115300Y0258186D02*
X0113039Y0258186D01*
X0113027Y0254987D02*
X0115635Y0254987D01*
X0115947Y0251789D02*
X0108981Y0251789D01*
X0108909Y0251800D02*
X0103300Y0251800D01*
X0103300Y0246600D01*
X0103300Y0246600D01*
X0113700Y0246600D01*
X0113700Y0247009D01*
X0113572Y0247818D01*
X0113319Y0248596D01*
X0112947Y0249325D01*
X0112466Y0249988D01*
X0111888Y0250566D01*
X0111225Y0251047D01*
X0110496Y0251419D01*
X0109718Y0251672D01*
X0108909Y0251800D01*
X0113321Y0248590D02*
X0114475Y0248590D01*
X0113700Y0246600D02*
X0103300Y0246600D01*
X0103300Y0246600D01*
X0103300Y0241400D01*
X0108909Y0241400D01*
X0109718Y0241528D01*
X0110496Y0241781D01*
X0111225Y0242153D01*
X0111888Y0242634D01*
X0112466Y0243212D01*
X0112947Y0243875D01*
X0113319Y0244604D01*
X0113572Y0245382D01*
X0113700Y0246191D01*
X0113700Y0246600D01*
X0113573Y0245392D02*
X0114787Y0245392D01*
X0117365Y0242193D02*
X0111281Y0242193D01*
X0107694Y0238995D02*
X0115300Y0238995D01*
X0113622Y0235796D02*
X0108100Y0235796D01*
X0108100Y0234612D02*
X0108100Y0238588D01*
X0105288Y0241400D01*
X0101312Y0241400D01*
X0098500Y0238588D01*
X0098500Y0234612D01*
X0101312Y0231800D01*
X0105288Y0231800D01*
X0108100Y0234612D01*
X0106086Y0232598D02*
X0110424Y0232598D01*
X0114775Y0226201D02*
X0147000Y0226201D01*
X0147000Y0229399D02*
X0117973Y0229399D01*
X0123576Y0232598D02*
X0146200Y0232598D01*
X0146886Y0235796D02*
X0126300Y0235796D01*
X0124235Y0242193D02*
X0157615Y0242193D01*
X0155220Y0245392D02*
X0126813Y0245392D01*
X0127125Y0248590D02*
X0154800Y0248590D01*
X0156503Y0251789D02*
X0125653Y0251789D01*
X0125965Y0254987D02*
X0155635Y0254987D01*
X0155300Y0258186D02*
X0126300Y0258186D01*
X0124794Y0261384D02*
X0156806Y0261384D01*
X0158522Y0272100D02*
X0163078Y0272100D01*
X0166300Y0275322D01*
X0166300Y0279878D01*
X0163578Y0282600D01*
X0166300Y0285322D01*
X0166300Y0286476D01*
X0168415Y0288591D01*
X0168400Y0288555D01*
X0168400Y0286645D01*
X0169131Y0284881D01*
X0170481Y0283531D01*
X0172245Y0282800D01*
X0179355Y0282800D01*
X0181119Y0283531D01*
X0182469Y0284881D01*
X0183200Y0286645D01*
X0183200Y0288555D01*
X0182469Y0290319D01*
X0181119Y0291669D01*
X0179355Y0292400D01*
X0172245Y0292400D01*
X0172209Y0292385D01*
X0172624Y0292800D01*
X0179355Y0292800D01*
X0181119Y0293531D01*
X0182469Y0294881D01*
X0183200Y0296645D01*
X0183200Y0298555D01*
X0182469Y0300319D01*
X0181119Y0301669D01*
X0179355Y0302400D01*
X0172245Y0302400D01*
X0170481Y0301669D01*
X0169131Y0300319D01*
X0168944Y0299868D01*
X0166300Y0297224D01*
X0166300Y0299878D01*
X0163578Y0302600D01*
X0166300Y0305322D01*
X0166300Y0309878D01*
X0163078Y0313100D01*
X0158522Y0313100D01*
X0155300Y0309878D01*
X0155300Y0305322D01*
X0158022Y0302600D01*
X0155300Y0299878D01*
X0155300Y0295322D01*
X0158022Y0292600D01*
X0155300Y0289878D01*
X0155300Y0285322D01*
X0158022Y0282600D01*
X0155300Y0279878D01*
X0155300Y0275322D01*
X0158522Y0272100D01*
X0156444Y0274178D02*
X0143346Y0274178D01*
X0140147Y0277377D02*
X0155300Y0277377D01*
X0155997Y0280575D02*
X0136949Y0280575D01*
X0133750Y0283774D02*
X0156848Y0283774D01*
X0155300Y0286972D02*
X0130552Y0286972D01*
X0127353Y0290171D02*
X0155593Y0290171D01*
X0157253Y0293369D02*
X0124347Y0293369D01*
X0126300Y0296568D02*
X0155300Y0296568D01*
X0155300Y0299766D02*
X0126300Y0299766D01*
X0124509Y0302965D02*
X0157657Y0302965D01*
X0155300Y0306163D02*
X0126700Y0306163D01*
X0126700Y0309362D02*
X0155300Y0309362D01*
X0157982Y0312560D02*
X0126134Y0312560D01*
X0129333Y0315759D02*
X0193585Y0315759D01*
X0196783Y0318957D02*
X0190227Y0318957D01*
X0189383Y0318113D02*
X0191162Y0319892D01*
X0192125Y0322217D01*
X0192125Y0332983D01*
X0191162Y0335308D01*
X0189383Y0337087D01*
X0187058Y0338050D01*
X0184542Y0338050D01*
X0182217Y0337087D01*
X0180438Y0335308D01*
X0179475Y0332983D01*
X0179475Y0322217D01*
X0180438Y0319892D01*
X0182217Y0318113D01*
X0184542Y0317150D01*
X0187058Y0317150D01*
X0189383Y0318113D01*
X0192100Y0322156D02*
X0219500Y0322156D01*
X0219475Y0325354D02*
X0192125Y0325354D01*
X0192125Y0328553D02*
X0219475Y0328553D01*
X0219475Y0331751D02*
X0192125Y0331751D01*
X0191310Y0334950D02*
X0220290Y0334950D01*
X0231310Y0334950D02*
X0240290Y0334950D01*
X0240438Y0335308D02*
X0239475Y0332983D01*
X0239475Y0322217D01*
X0240438Y0319892D01*
X0242217Y0318113D01*
X0244542Y0317150D01*
X0247058Y0317150D01*
X0249383Y0318113D01*
X0251162Y0319892D01*
X0252125Y0322217D01*
X0252125Y0332983D01*
X0251162Y0335308D01*
X0249383Y0337087D01*
X0247058Y0338050D01*
X0244542Y0338050D01*
X0242217Y0337087D01*
X0240438Y0335308D01*
X0239475Y0331751D02*
X0232125Y0331751D01*
X0232125Y0328553D02*
X0239475Y0328553D01*
X0239475Y0325354D02*
X0232125Y0325354D01*
X0232100Y0322156D02*
X0239500Y0322156D01*
X0241373Y0318957D02*
X0230227Y0318957D01*
X0222675Y0313225D02*
X0219550Y0316350D01*
X0199550Y0316350D01*
X0187050Y0303850D01*
X0187050Y0277600D01*
X0175800Y0277600D01*
X0166425Y0268225D01*
X0167004Y0274178D02*
X0165156Y0274178D01*
X0166300Y0277377D02*
X0168400Y0277377D01*
X0169387Y0280575D02*
X0165603Y0280575D01*
X0164752Y0283774D02*
X0170238Y0283774D01*
X0168400Y0286972D02*
X0166796Y0286972D01*
X0162050Y0287600D02*
X0160800Y0287600D01*
X0162050Y0287600D02*
X0171425Y0296975D01*
X0175175Y0296975D01*
X0175800Y0297600D01*
X0168842Y0299766D02*
X0166300Y0299766D01*
X0163943Y0302965D02*
X0171847Y0302965D01*
X0172245Y0302800D02*
X0170481Y0303531D01*
X0169131Y0304881D01*
X0168400Y0306645D01*
X0168400Y0308555D01*
X0169131Y0310319D01*
X0170481Y0311669D01*
X0172245Y0312400D01*
X0179355Y0312400D01*
X0181119Y0311669D01*
X0182469Y0310319D01*
X0183200Y0308555D01*
X0183200Y0306645D01*
X0182469Y0304881D01*
X0181119Y0303531D01*
X0179355Y0302800D01*
X0172245Y0302800D01*
X0168600Y0306163D02*
X0166300Y0306163D01*
X0166300Y0309362D02*
X0168734Y0309362D01*
X0163618Y0312560D02*
X0190386Y0312560D01*
X0187188Y0309362D02*
X0182866Y0309362D01*
X0183000Y0306163D02*
X0183989Y0306163D01*
X0183250Y0302965D02*
X0179753Y0302965D01*
X0182698Y0299766D02*
X0183250Y0299766D01*
X0183250Y0296568D02*
X0183168Y0296568D01*
X0183250Y0293369D02*
X0180729Y0293369D01*
X0182531Y0290171D02*
X0183250Y0290171D01*
X0183200Y0286972D02*
X0183250Y0286972D01*
X0183250Y0283774D02*
X0181362Y0283774D01*
X0190850Y0283774D02*
X0200238Y0283774D01*
X0200481Y0283531D02*
X0202245Y0282800D01*
X0209355Y0282800D01*
X0211119Y0283531D01*
X0212469Y0284881D01*
X0213200Y0286645D01*
X0213200Y0288555D01*
X0212469Y0290319D01*
X0211119Y0291669D01*
X0209355Y0292400D01*
X0202245Y0292400D01*
X0200481Y0291669D01*
X0199131Y0290319D01*
X0198400Y0288555D01*
X0198400Y0286645D01*
X0199131Y0284881D01*
X0200481Y0283531D01*
X0200481Y0281669D02*
X0199131Y0280319D01*
X0198400Y0278555D01*
X0198400Y0276645D01*
X0199131Y0274881D01*
X0200481Y0273531D01*
X0202245Y0272800D01*
X0209355Y0272800D01*
X0211119Y0273531D01*
X0212469Y0274881D01*
X0213200Y0276645D01*
X0213200Y0278555D01*
X0212469Y0280319D01*
X0211119Y0281669D01*
X0209355Y0282400D01*
X0202245Y0282400D01*
X0200481Y0281669D01*
X0199387Y0280575D02*
X0190850Y0280575D01*
X0190850Y0277377D02*
X0198400Y0277377D01*
X0199834Y0274178D02*
X0188719Y0274178D01*
X0192779Y0270980D02*
X0181809Y0270980D01*
X0183200Y0267781D02*
X0190750Y0267781D01*
X0190750Y0264583D02*
X0182171Y0264583D01*
X0181404Y0261384D02*
X0190750Y0261384D01*
X0190750Y0258186D02*
X0183200Y0258186D01*
X0182513Y0254987D02*
X0190750Y0254987D01*
X0188365Y0251789D02*
X0180831Y0251789D01*
X0183185Y0248590D02*
X0185166Y0248590D01*
X0185800Y0243850D02*
X0194550Y0252600D01*
X0194550Y0267600D01*
X0205800Y0267600D01*
X0202245Y0262400D02*
X0200481Y0261669D01*
X0199131Y0260319D01*
X0198400Y0258555D01*
X0198400Y0256645D01*
X0199131Y0254881D01*
X0200481Y0253531D01*
X0202245Y0252800D01*
X0209355Y0252800D01*
X0211119Y0253531D01*
X0212469Y0254881D01*
X0213200Y0256645D01*
X0213200Y0258555D01*
X0212469Y0260319D01*
X0211119Y0261669D01*
X0209355Y0262400D01*
X0202245Y0262400D01*
X0200196Y0261384D02*
X0198350Y0261384D01*
X0198350Y0258186D02*
X0198400Y0258186D01*
X0198350Y0254987D02*
X0199087Y0254987D01*
X0198327Y0251789D02*
X0200769Y0251789D01*
X0198415Y0248590D02*
X0195914Y0248590D01*
X0198919Y0245392D02*
X0192716Y0245392D01*
X0189600Y0242193D02*
X0212625Y0242193D01*
X0209946Y0238995D02*
X0189600Y0238995D01*
X0189600Y0235796D02*
X0191642Y0235796D01*
X0190600Y0234754D02*
X0190600Y0232600D01*
X0195800Y0232600D01*
X0201000Y0232600D01*
X0201000Y0234754D01*
X0197954Y0237800D01*
X0195800Y0237800D01*
X0195800Y0232600D01*
X0195800Y0232600D01*
X0195800Y0232600D01*
X0201000Y0232600D01*
X0201000Y0230446D01*
X0197954Y0227400D01*
X0195800Y0227400D01*
X0195800Y0232600D01*
X0195800Y0232600D01*
X0195800Y0232600D01*
X0195800Y0237800D01*
X0193646Y0237800D01*
X0190600Y0234754D01*
X0190600Y0232600D02*
X0190600Y0230446D01*
X0193646Y0227400D01*
X0195800Y0227400D01*
X0195800Y0232600D01*
X0190600Y0232600D01*
X0190600Y0232598D02*
X0190600Y0232598D01*
X0191647Y0229399D02*
X0189387Y0229399D01*
X0189448Y0226201D02*
X0189652Y0226201D01*
X0192050Y0223225D02*
X0199550Y0223225D01*
X0216425Y0240100D01*
X0216425Y0246975D01*
X0222675Y0253225D01*
X0230175Y0253225D01*
X0236425Y0259475D01*
X0236425Y0298850D01*
X0232391Y0296568D02*
X0231300Y0296568D01*
X0231300Y0299766D02*
X0231826Y0299766D01*
X0233811Y0302965D02*
X0228943Y0302965D01*
X0225800Y0307600D02*
X0234550Y0307600D01*
X0247050Y0295100D01*
X0258300Y0295100D01*
X0265800Y0287600D01*
X0269752Y0283774D02*
X0294725Y0283774D01*
X0297923Y0286972D02*
X0271300Y0286972D01*
X0271007Y0290171D02*
X0301122Y0290171D01*
X0302000Y0293369D02*
X0269347Y0293369D01*
X0271300Y0296568D02*
X0302000Y0296568D01*
X0302592Y0299766D02*
X0271300Y0299766D01*
X0268943Y0302965D02*
X0313916Y0302965D01*
X0317114Y0306163D02*
X0271300Y0306163D01*
X0271300Y0309362D02*
X0312050Y0309362D01*
X0311531Y0309881D02*
X0312881Y0308531D01*
X0314645Y0307800D01*
X0321755Y0307800D01*
X0323519Y0308531D01*
X0324869Y0309881D01*
X0325600Y0311645D01*
X0325600Y0313555D01*
X0324869Y0315319D01*
X0323519Y0316669D01*
X0321755Y0317400D01*
X0314645Y0317400D01*
X0312881Y0316669D01*
X0311531Y0315319D01*
X0310800Y0313555D01*
X0310800Y0311645D01*
X0311531Y0309881D01*
X0310800Y0312560D02*
X0268618Y0312560D01*
X0262982Y0312560D02*
X0256214Y0312560D01*
X0259412Y0309362D02*
X0260300Y0309362D01*
X0253015Y0315759D02*
X0311971Y0315759D01*
X0312881Y0318531D02*
X0314645Y0317800D01*
X0321755Y0317800D01*
X0323519Y0318531D01*
X0324869Y0319881D01*
X0325600Y0321645D01*
X0325600Y0323555D01*
X0324869Y0325319D01*
X0323519Y0326669D01*
X0321755Y0327400D01*
X0314645Y0327400D01*
X0312881Y0326669D01*
X0311531Y0325319D01*
X0310800Y0323555D01*
X0310800Y0321645D01*
X0311531Y0319881D01*
X0312881Y0318531D01*
X0312454Y0318957D02*
X0250227Y0318957D01*
X0252100Y0322156D02*
X0310800Y0322156D01*
X0311566Y0325354D02*
X0252125Y0325354D01*
X0252125Y0328553D02*
X0312324Y0328553D01*
X0312212Y0328634D02*
X0312875Y0328153D01*
X0313604Y0327781D01*
X0314382Y0327528D01*
X0315191Y0327400D01*
X0320800Y0327400D01*
X0321209Y0327400D01*
X0322018Y0327528D01*
X0322796Y0327781D01*
X0323525Y0328153D01*
X0324188Y0328634D01*
X0324766Y0329212D01*
X0325247Y0329875D01*
X0325619Y0330604D01*
X0325872Y0331382D01*
X0326000Y0332191D01*
X0326000Y0332600D01*
X0326000Y0333009D01*
X0325872Y0333818D01*
X0325619Y0334596D01*
X0325247Y0335325D01*
X0324766Y0335988D01*
X0324188Y0336566D01*
X0323525Y0337047D01*
X0322796Y0337419D01*
X0322018Y0337672D01*
X0321209Y0337800D01*
X0320800Y0337800D01*
X0320800Y0332600D01*
X0320800Y0332600D01*
X0326000Y0332600D01*
X0320800Y0332600D01*
X0320800Y0332600D01*
X0320800Y0337800D01*
X0315191Y0337800D01*
X0314382Y0337672D01*
X0313604Y0337419D01*
X0312875Y0337047D01*
X0312212Y0336566D01*
X0311634Y0335988D01*
X0311153Y0335325D01*
X0310781Y0334596D01*
X0310528Y0333818D01*
X0310400Y0333009D01*
X0310400Y0332600D01*
X0320800Y0332600D01*
X0320800Y0327400D01*
X0320800Y0332600D01*
X0320800Y0332600D01*
X0320800Y0332600D01*
X0310400Y0332600D01*
X0310400Y0332191D01*
X0310528Y0331382D01*
X0310781Y0330604D01*
X0311153Y0329875D01*
X0311634Y0329212D01*
X0312212Y0328634D01*
X0310470Y0331751D02*
X0252125Y0331751D01*
X0251310Y0334950D02*
X0310961Y0334950D01*
X0320800Y0334950D02*
X0320800Y0334950D01*
X0320800Y0331751D02*
X0320800Y0331751D01*
X0320800Y0328553D02*
X0320800Y0328553D01*
X0324076Y0328553D02*
X0348059Y0328553D01*
X0348081Y0328531D02*
X0349845Y0327800D01*
X0356955Y0327800D01*
X0358719Y0328531D01*
X0360069Y0329881D01*
X0360800Y0331645D01*
X0360800Y0333555D01*
X0360069Y0335319D01*
X0358719Y0336669D01*
X0356955Y0337400D01*
X0349845Y0337400D01*
X0348081Y0336669D01*
X0346731Y0335319D01*
X0346000Y0333555D01*
X0346000Y0331645D01*
X0346731Y0329881D01*
X0348081Y0328531D01*
X0348081Y0326669D02*
X0346731Y0325319D01*
X0346000Y0323555D01*
X0346000Y0321645D01*
X0346731Y0319881D01*
X0348081Y0318531D01*
X0349845Y0317800D01*
X0356955Y0317800D01*
X0358719Y0318531D01*
X0360069Y0319881D01*
X0360800Y0321645D01*
X0360800Y0323555D01*
X0360069Y0325319D01*
X0358719Y0326669D01*
X0356955Y0327400D01*
X0349845Y0327400D01*
X0348081Y0326669D01*
X0346766Y0325354D02*
X0324834Y0325354D01*
X0325600Y0322156D02*
X0346000Y0322156D01*
X0347654Y0318957D02*
X0323946Y0318957D01*
X0324429Y0315759D02*
X0347171Y0315759D01*
X0346731Y0315319D02*
X0346000Y0313555D01*
X0346000Y0311645D01*
X0346731Y0309881D01*
X0348081Y0308531D01*
X0349845Y0307800D01*
X0356955Y0307800D01*
X0358719Y0308531D01*
X0360069Y0309881D01*
X0360800Y0311645D01*
X0360800Y0313555D01*
X0360069Y0315319D01*
X0358719Y0316669D01*
X0356955Y0317400D01*
X0349845Y0317400D01*
X0348081Y0316669D01*
X0346731Y0315319D01*
X0346000Y0312560D02*
X0325600Y0312560D01*
X0324350Y0309362D02*
X0347250Y0309362D01*
X0355138Y0300050D02*
X0355750Y0300050D01*
X0355750Y0293094D01*
X0356329Y0291697D01*
X0357397Y0290629D01*
X0361000Y0287026D01*
X0361000Y0285612D01*
X0363812Y0282800D01*
X0367788Y0282800D01*
X0368901Y0283913D01*
X0368901Y0261287D01*
X0367788Y0262400D01*
X0363812Y0262400D01*
X0361000Y0259588D01*
X0361000Y0255612D01*
X0363812Y0252800D01*
X0367788Y0252800D01*
X0368901Y0253913D01*
X0368901Y0018200D01*
X0350225Y0018200D01*
X0350225Y0022901D01*
X0350324Y0023000D01*
X0350465Y0023000D01*
X0352156Y0023700D01*
X0353450Y0024994D01*
X0354150Y0026685D01*
X0354150Y0028515D01*
X0353450Y0030206D01*
X0352156Y0031500D01*
X0350465Y0032200D01*
X0348635Y0032200D01*
X0346944Y0031500D01*
X0345650Y0030206D01*
X0344950Y0028515D01*
X0344950Y0028374D01*
X0344272Y0027696D01*
X0343204Y0026628D01*
X0342625Y0025231D01*
X0342625Y0022025D01*
X0328624Y0022025D01*
X0325896Y0024753D01*
X0324828Y0025821D01*
X0323431Y0026400D01*
X0318724Y0026400D01*
X0322953Y0030629D01*
X0324021Y0031697D01*
X0324600Y0033094D01*
X0324600Y0046026D01*
X0324646Y0046072D01*
X0324884Y0046646D01*
X0325162Y0047202D01*
X0325172Y0047341D01*
X0325225Y0047469D01*
X0325225Y0048090D01*
X0325269Y0048710D01*
X0325225Y0048842D01*
X0325225Y0051651D01*
X0334849Y0061275D01*
X0341183Y0061275D01*
X0343508Y0062238D01*
X0345287Y0064017D01*
X0346250Y0066342D01*
X0346250Y0068858D01*
X0345287Y0071183D01*
X0343508Y0072962D01*
X0341183Y0073925D01*
X0330417Y0073925D01*
X0328092Y0072962D01*
X0326313Y0071183D01*
X0325350Y0068858D01*
X0325350Y0066342D01*
X0326313Y0064017D01*
X0326578Y0063752D01*
X0325225Y0062399D01*
X0325225Y0101651D01*
X0334849Y0111275D01*
X0341183Y0111275D01*
X0343508Y0112238D01*
X0345287Y0114017D01*
X0346250Y0116342D01*
X0346250Y0118858D01*
X0345287Y0121183D01*
X0343508Y0122962D01*
X0341183Y0123925D01*
X0330417Y0123925D01*
X0328092Y0122962D01*
X0326313Y0121183D01*
X0325350Y0118858D01*
X0325350Y0116342D01*
X0326313Y0114017D01*
X0326578Y0113752D01*
X0319272Y0106446D01*
X0318204Y0105378D01*
X0317625Y0103981D01*
X0317625Y0062650D01*
X0314705Y0062650D01*
X0314904Y0062795D01*
X0315605Y0063496D01*
X0316188Y0064298D01*
X0316638Y0065182D01*
X0316945Y0066125D01*
X0317100Y0067104D01*
X0317100Y0067600D01*
X0317100Y0068096D01*
X0316945Y0069075D01*
X0316638Y0070018D01*
X0316188Y0070902D01*
X0315605Y0071704D01*
X0314904Y0072405D01*
X0314351Y0072807D01*
X0315802Y0074258D01*
X0316700Y0076426D01*
X0316700Y0078774D01*
X0315802Y0080942D01*
X0314351Y0082393D01*
X0314904Y0082795D01*
X0315605Y0083496D01*
X0316188Y0084298D01*
X0316638Y0085182D01*
X0316945Y0086125D01*
X0317100Y0087104D01*
X0317100Y0087600D01*
X0317100Y0088096D01*
X0316945Y0089075D01*
X0316638Y0090018D01*
X0316188Y0090902D01*
X0315605Y0091704D01*
X0314904Y0092405D01*
X0314351Y0092807D01*
X0315802Y0094258D01*
X0316700Y0096426D01*
X0316700Y0098774D01*
X0315802Y0100942D01*
X0314144Y0102600D01*
X0315802Y0104258D01*
X0316700Y0106426D01*
X0316700Y0108774D01*
X0315802Y0110942D01*
X0314144Y0112600D01*
X0315802Y0114258D01*
X0316700Y0116426D01*
X0316700Y0118774D01*
X0315802Y0120942D01*
X0314144Y0122600D01*
X0315802Y0124258D01*
X0316700Y0126426D01*
X0316700Y0128774D01*
X0315802Y0130942D01*
X0314351Y0132393D01*
X0314904Y0132795D01*
X0315605Y0133496D01*
X0316188Y0134298D01*
X0316638Y0135182D01*
X0316945Y0136125D01*
X0317100Y0137104D01*
X0317100Y0137600D01*
X0317100Y0138096D01*
X0316945Y0139075D01*
X0316638Y0140018D01*
X0316188Y0140902D01*
X0315605Y0141704D01*
X0314904Y0142405D01*
X0314351Y0142807D01*
X0315802Y0144258D01*
X0316700Y0146426D01*
X0316700Y0148774D01*
X0315802Y0150942D01*
X0314144Y0152600D01*
X0315802Y0154258D01*
X0316700Y0156426D01*
X0316700Y0158774D01*
X0315802Y0160942D01*
X0314351Y0162393D01*
X0314904Y0162795D01*
X0315605Y0163496D01*
X0316188Y0164298D01*
X0316638Y0165182D01*
X0316945Y0166125D01*
X0317100Y0167104D01*
X0317100Y0167600D01*
X0317100Y0168096D01*
X0316945Y0169075D01*
X0316638Y0170018D01*
X0316188Y0170902D01*
X0315605Y0171704D01*
X0314904Y0172405D01*
X0314351Y0172807D01*
X0315802Y0174258D01*
X0316700Y0176426D01*
X0316700Y0178126D01*
X0323578Y0185004D01*
X0324646Y0186072D01*
X0325225Y0187469D01*
X0325225Y0229606D01*
X0325041Y0230050D01*
X0325931Y0230050D01*
X0327328Y0230629D01*
X0342363Y0245663D01*
X0346000Y0242026D01*
X0346000Y0240612D01*
X0346375Y0240237D01*
X0346375Y0113549D01*
X0336751Y0103925D01*
X0330417Y0103925D01*
X0328092Y0102962D01*
X0326313Y0101183D01*
X0325350Y0098858D01*
X0325350Y0096342D01*
X0326313Y0094017D01*
X0328092Y0092238D01*
X0330417Y0091275D01*
X0341183Y0091275D01*
X0343508Y0092238D01*
X0345287Y0094017D01*
X0346250Y0096342D01*
X0346250Y0098858D01*
X0345287Y0101183D01*
X0345022Y0101448D01*
X0352328Y0108754D01*
X0353396Y0109822D01*
X0353975Y0111219D01*
X0353975Y0238987D01*
X0355600Y0240612D01*
X0355600Y0244588D01*
X0352788Y0247400D01*
X0351374Y0247400D01*
X0345850Y0252924D01*
X0345850Y0293800D01*
X0347812Y0293800D01*
X0348812Y0292800D01*
X0352788Y0292800D01*
X0355600Y0295612D01*
X0355600Y0299588D01*
X0355138Y0300050D01*
X0355422Y0299766D02*
X0355750Y0299766D01*
X0355750Y0296568D02*
X0355600Y0296568D01*
X0355750Y0293369D02*
X0353357Y0293369D01*
X0350800Y0297600D02*
X0342050Y0297600D01*
X0342050Y0251350D01*
X0342363Y0251037D01*
X0325175Y0233850D01*
X0317050Y0233850D01*
X0313300Y0237600D01*
X0310800Y0237600D01*
X0300800Y0227600D01*
X0299550Y0226975D01*
X0284550Y0211975D01*
X0263925Y0211975D01*
X0259539Y0213406D02*
X0211475Y0213406D01*
X0211760Y0212825D02*
X0211475Y0212707D01*
X0211475Y0217550D01*
X0223072Y0217550D01*
X0223522Y0217100D01*
X0228078Y0217100D01*
X0231300Y0220322D01*
X0231300Y0224878D01*
X0228578Y0227600D01*
X0229778Y0228800D01*
X0230306Y0228800D01*
X0231703Y0229379D01*
X0232771Y0230447D01*
X0250499Y0248175D01*
X0269056Y0248175D01*
X0270453Y0248754D01*
X0270499Y0248800D01*
X0281556Y0248800D01*
X0282953Y0249379D01*
X0284021Y0250447D01*
X0284600Y0251844D01*
X0284600Y0253356D01*
X0284021Y0254753D01*
X0282953Y0255821D01*
X0281556Y0256400D01*
X0278099Y0256400D01*
X0302000Y0280301D01*
X0302000Y0276844D01*
X0302579Y0275447D01*
X0303647Y0274379D01*
X0305044Y0273800D01*
X0306556Y0273800D01*
X0307953Y0274379D01*
X0309021Y0275447D01*
X0309600Y0276844D01*
X0309600Y0287901D01*
X0316655Y0294956D01*
X0318812Y0292800D01*
X0322788Y0292800D01*
X0323788Y0293800D01*
X0326375Y0293800D01*
X0326375Y0250305D01*
X0326275Y0250206D01*
X0325575Y0248515D01*
X0325575Y0246685D01*
X0326275Y0244994D01*
X0327569Y0243700D01*
X0329042Y0243091D01*
X0323601Y0237650D01*
X0318624Y0237650D01*
X0315453Y0240821D01*
X0314056Y0241400D01*
X0310044Y0241400D01*
X0308647Y0240821D01*
X0307579Y0239753D01*
X0301326Y0233500D01*
X0299626Y0233500D01*
X0297458Y0232602D01*
X0295798Y0230942D01*
X0294900Y0228774D01*
X0294900Y0227699D01*
X0282976Y0215775D01*
X0266630Y0215775D01*
X0266531Y0215875D01*
X0264840Y0216575D01*
X0263010Y0216575D01*
X0261319Y0215875D01*
X0260025Y0214581D01*
X0259325Y0212890D01*
X0259325Y0211060D01*
X0259443Y0210775D01*
X0223505Y0210775D01*
X0223406Y0210875D01*
X0221715Y0211575D01*
X0219885Y0211575D01*
X0218194Y0210875D01*
X0217036Y0209717D01*
X0216575Y0210831D01*
X0215281Y0212125D01*
X0213590Y0212825D01*
X0211760Y0212825D01*
X0211475Y0216605D02*
X0283806Y0216605D01*
X0287004Y0219803D02*
X0270782Y0219803D01*
X0271300Y0220322D02*
X0268078Y0217100D01*
X0263522Y0217100D01*
X0260300Y0220322D01*
X0260300Y0224878D01*
X0263022Y0227600D01*
X0260300Y0230322D01*
X0260300Y0234878D01*
X0263022Y0237600D01*
X0260300Y0240322D01*
X0260300Y0244878D01*
X0263522Y0248100D01*
X0268078Y0248100D01*
X0271300Y0244878D01*
X0271300Y0240322D01*
X0268578Y0237600D01*
X0271300Y0234878D01*
X0271300Y0230322D01*
X0268578Y0227600D01*
X0271300Y0224878D01*
X0271300Y0220322D01*
X0271300Y0223002D02*
X0290203Y0223002D01*
X0293402Y0226201D02*
X0269978Y0226201D01*
X0270377Y0229399D02*
X0295159Y0229399D01*
X0297454Y0232598D02*
X0271300Y0232598D01*
X0270382Y0235796D02*
X0303622Y0235796D01*
X0306821Y0238995D02*
X0269973Y0238995D01*
X0271300Y0242193D02*
X0316000Y0242193D01*
X0316000Y0240612D02*
X0318812Y0237800D01*
X0322788Y0237800D01*
X0325600Y0240612D01*
X0325600Y0244588D01*
X0322788Y0247400D01*
X0318812Y0247400D01*
X0316000Y0244588D01*
X0316000Y0240612D01*
X0317279Y0238995D02*
X0317617Y0238995D01*
X0323983Y0238995D02*
X0324946Y0238995D01*
X0325600Y0242193D02*
X0328144Y0242193D01*
X0326111Y0245392D02*
X0324797Y0245392D01*
X0325606Y0248590D02*
X0270058Y0248590D01*
X0270787Y0245392D02*
X0316803Y0245392D01*
X0314645Y0252800D02*
X0312881Y0253531D01*
X0311531Y0254881D01*
X0310800Y0256645D01*
X0310800Y0258555D01*
X0311531Y0260319D01*
X0312881Y0261669D01*
X0314645Y0262400D01*
X0321755Y0262400D01*
X0323519Y0261669D01*
X0324869Y0260319D01*
X0325600Y0258555D01*
X0325600Y0256645D01*
X0324869Y0254881D01*
X0323519Y0253531D01*
X0321755Y0252800D01*
X0314645Y0252800D01*
X0311487Y0254987D02*
X0283787Y0254987D01*
X0284577Y0251789D02*
X0326375Y0251789D01*
X0326375Y0254987D02*
X0324913Y0254987D01*
X0325600Y0258186D02*
X0326375Y0258186D01*
X0326375Y0261384D02*
X0323804Y0261384D01*
X0323519Y0263531D02*
X0321755Y0262800D01*
X0314645Y0262800D01*
X0312881Y0263531D01*
X0311531Y0264881D01*
X0310800Y0266645D01*
X0310800Y0268555D01*
X0311531Y0270319D01*
X0312881Y0271669D01*
X0314645Y0272400D01*
X0321755Y0272400D01*
X0323519Y0271669D01*
X0324869Y0270319D01*
X0325600Y0268555D01*
X0325600Y0266645D01*
X0324869Y0264881D01*
X0323519Y0263531D01*
X0324571Y0264583D02*
X0326375Y0264583D01*
X0326375Y0267781D02*
X0325600Y0267781D01*
X0326375Y0270980D02*
X0324209Y0270980D01*
X0323525Y0273153D02*
X0324188Y0273634D01*
X0324766Y0274212D01*
X0325247Y0274875D01*
X0325619Y0275604D01*
X0325872Y0276382D01*
X0326000Y0277191D01*
X0326000Y0277600D01*
X0326000Y0278009D01*
X0325872Y0278818D01*
X0325619Y0279596D01*
X0325247Y0280325D01*
X0324766Y0280988D01*
X0324188Y0281566D01*
X0323525Y0282047D01*
X0322796Y0282419D01*
X0322018Y0282672D01*
X0321209Y0282800D01*
X0320800Y0282800D01*
X0320800Y0277600D01*
X0320800Y0277600D01*
X0326000Y0277600D01*
X0320800Y0277600D01*
X0320800Y0277600D01*
X0320800Y0282800D01*
X0315191Y0282800D01*
X0314382Y0282672D01*
X0313604Y0282419D01*
X0312875Y0282047D01*
X0312212Y0281566D01*
X0311634Y0280988D01*
X0311153Y0280325D01*
X0310781Y0279596D01*
X0310528Y0278818D01*
X0310400Y0278009D01*
X0310400Y0277600D01*
X0320800Y0277600D01*
X0320800Y0272400D01*
X0321209Y0272400D01*
X0322018Y0272528D01*
X0322796Y0272781D01*
X0323525Y0273153D01*
X0324732Y0274178D02*
X0326375Y0274178D01*
X0326375Y0277377D02*
X0326000Y0277377D01*
X0326375Y0280575D02*
X0325066Y0280575D01*
X0326375Y0283774D02*
X0309600Y0283774D01*
X0309600Y0286972D02*
X0326375Y0286972D01*
X0326375Y0290171D02*
X0311870Y0290171D01*
X0315068Y0293369D02*
X0318243Y0293369D01*
X0320800Y0297600D02*
X0330175Y0297600D01*
X0330175Y0247600D01*
X0338892Y0242193D02*
X0345833Y0242193D01*
X0346375Y0238995D02*
X0335694Y0238995D01*
X0332495Y0235796D02*
X0346375Y0235796D01*
X0346375Y0232598D02*
X0329297Y0232598D01*
X0325225Y0229399D02*
X0346375Y0229399D01*
X0346375Y0226201D02*
X0325225Y0226201D01*
X0325225Y0223002D02*
X0346375Y0223002D01*
X0346375Y0219803D02*
X0325225Y0219803D01*
X0325225Y0216605D02*
X0346375Y0216605D01*
X0346375Y0213406D02*
X0325225Y0213406D01*
X0325225Y0210208D02*
X0346375Y0210208D01*
X0346375Y0207009D02*
X0325225Y0207009D01*
X0325225Y0203811D02*
X0346375Y0203811D01*
X0346375Y0200612D02*
X0325225Y0200612D01*
X0325225Y0197414D02*
X0346375Y0197414D01*
X0346375Y0194215D02*
X0325225Y0194215D01*
X0325225Y0191017D02*
X0327326Y0191017D01*
X0327279Y0190777D02*
X0327279Y0185600D01*
X0327279Y0180423D01*
X0327379Y0179920D01*
X0327575Y0179447D01*
X0327859Y0179021D01*
X0328094Y0178786D01*
X0326359Y0178321D01*
X0323735Y0176807D01*
X0321593Y0174665D01*
X0320079Y0172041D01*
X0319294Y0169115D01*
X0319294Y0166085D01*
X0320079Y0163159D01*
X0321593Y0160535D01*
X0323735Y0158393D01*
X0326359Y0156879D01*
X0329285Y0156094D01*
X0332315Y0156094D01*
X0335241Y0156879D01*
X0337865Y0158393D01*
X0340007Y0160535D01*
X0341521Y0163159D01*
X0342305Y0166085D01*
X0342305Y0169115D01*
X0341521Y0172041D01*
X0340007Y0174665D01*
X0337865Y0176807D01*
X0335661Y0178079D01*
X0339977Y0178079D01*
X0340480Y0178179D01*
X0340953Y0178375D01*
X0341379Y0178659D01*
X0341741Y0179021D01*
X0342025Y0179447D01*
X0342221Y0179920D01*
X0342321Y0180423D01*
X0342321Y0185600D01*
X0342321Y0190777D01*
X0342221Y0191280D01*
X0342025Y0191753D01*
X0341741Y0192179D01*
X0341379Y0192541D01*
X0340953Y0192825D01*
X0340480Y0193021D01*
X0339977Y0193121D01*
X0334800Y0193121D01*
X0329623Y0193121D01*
X0329120Y0193021D01*
X0328647Y0192825D01*
X0328221Y0192541D01*
X0327859Y0192179D01*
X0327575Y0191753D01*
X0327379Y0191280D01*
X0327279Y0190777D01*
X0327279Y0187818D02*
X0325225Y0187818D01*
X0327279Y0185600D02*
X0334800Y0185600D01*
X0334800Y0185600D01*
X0334800Y0193121D01*
X0334800Y0185600D01*
X0342321Y0185600D01*
X0334800Y0185600D01*
X0334800Y0185600D01*
X0334800Y0185600D01*
X0327279Y0185600D01*
X0327279Y0184620D02*
X0323194Y0184620D01*
X0321425Y0188225D02*
X0321425Y0228850D01*
X0317675Y0228850D01*
X0315939Y0224590D02*
X0316760Y0224250D01*
X0317625Y0224250D01*
X0317625Y0189799D01*
X0316671Y0188845D01*
X0315802Y0190942D01*
X0314144Y0192600D01*
X0315802Y0194258D01*
X0316700Y0196426D01*
X0316700Y0198774D01*
X0315802Y0200942D01*
X0314351Y0202393D01*
X0314904Y0202795D01*
X0315605Y0203496D01*
X0316188Y0204298D01*
X0316638Y0205182D01*
X0316945Y0206125D01*
X0317100Y0207104D01*
X0317100Y0207600D01*
X0317100Y0208096D01*
X0316945Y0209075D01*
X0316638Y0210018D01*
X0316188Y0210902D01*
X0315605Y0211704D01*
X0314904Y0212405D01*
X0314351Y0212807D01*
X0315802Y0214258D01*
X0316700Y0216426D01*
X0316700Y0218774D01*
X0315802Y0220942D01*
X0314144Y0222600D01*
X0315802Y0224258D01*
X0315939Y0224590D01*
X0314546Y0223002D02*
X0317625Y0223002D01*
X0317625Y0219803D02*
X0316273Y0219803D01*
X0316700Y0216605D02*
X0317625Y0216605D01*
X0317625Y0213406D02*
X0314950Y0213406D01*
X0316542Y0210208D02*
X0317625Y0210208D01*
X0317100Y0207600D02*
X0310800Y0207600D01*
X0310800Y0207600D01*
X0317100Y0207600D01*
X0317085Y0207009D02*
X0317625Y0207009D01*
X0317625Y0203811D02*
X0315834Y0203811D01*
X0315938Y0200612D02*
X0317625Y0200612D01*
X0317625Y0197414D02*
X0316700Y0197414D01*
X0317625Y0194215D02*
X0315759Y0194215D01*
X0315727Y0191017D02*
X0317625Y0191017D01*
X0321425Y0188225D02*
X0310800Y0177600D01*
X0316119Y0175024D02*
X0321953Y0175024D01*
X0320021Y0171826D02*
X0315484Y0171826D01*
X0317016Y0168627D02*
X0319294Y0168627D01*
X0317100Y0167600D02*
X0310800Y0167600D01*
X0310800Y0167600D01*
X0317100Y0167600D01*
X0316719Y0165429D02*
X0319470Y0165429D01*
X0320615Y0162230D02*
X0314514Y0162230D01*
X0316593Y0159032D02*
X0323097Y0159032D01*
X0316454Y0155833D02*
X0346375Y0155833D01*
X0346375Y0152635D02*
X0314179Y0152635D01*
X0316426Y0149436D02*
X0346375Y0149436D01*
X0346375Y0146238D02*
X0316622Y0146238D01*
X0314583Y0143039D02*
X0346375Y0143039D01*
X0346375Y0139841D02*
X0316696Y0139841D01*
X0317100Y0137600D02*
X0310800Y0137600D01*
X0310800Y0137600D01*
X0317100Y0137600D01*
X0317027Y0136642D02*
X0346375Y0136642D01*
X0346375Y0133444D02*
X0315553Y0133444D01*
X0316090Y0130245D02*
X0346375Y0130245D01*
X0346375Y0127047D02*
X0316700Y0127047D01*
X0315392Y0123848D02*
X0330231Y0123848D01*
X0326092Y0120650D02*
X0315923Y0120650D01*
X0316700Y0117451D02*
X0325350Y0117451D01*
X0326215Y0114253D02*
X0315796Y0114253D01*
X0315690Y0111054D02*
X0323880Y0111054D01*
X0320682Y0107856D02*
X0316700Y0107856D01*
X0315967Y0104657D02*
X0317905Y0104657D01*
X0317625Y0101459D02*
X0315285Y0101459D01*
X0316700Y0098260D02*
X0317625Y0098260D01*
X0317625Y0095062D02*
X0316135Y0095062D01*
X0315446Y0091863D02*
X0317625Y0091863D01*
X0317625Y0088665D02*
X0317010Y0088665D01*
X0317100Y0087600D02*
X0310800Y0087600D01*
X0310800Y0087600D01*
X0317100Y0087600D01*
X0316731Y0085466D02*
X0317625Y0085466D01*
X0317625Y0082268D02*
X0314476Y0082268D01*
X0316578Y0079069D02*
X0317625Y0079069D01*
X0317625Y0075870D02*
X0316470Y0075870D01*
X0317625Y0072672D02*
X0314537Y0072672D01*
X0316815Y0069473D02*
X0317625Y0069473D01*
X0317100Y0067600D02*
X0310800Y0067600D01*
X0310800Y0067600D01*
X0317100Y0067600D01*
X0316969Y0066275D02*
X0317625Y0066275D01*
X0317625Y0063076D02*
X0315186Y0063076D01*
X0313300Y0058850D02*
X0312050Y0057600D01*
X0310800Y0057600D01*
X0313300Y0058850D02*
X0321425Y0058850D01*
X0321425Y0103225D01*
X0335800Y0117600D01*
X0334628Y0111054D02*
X0343880Y0111054D01*
X0345385Y0114253D02*
X0346375Y0114253D01*
X0346375Y0117451D02*
X0346250Y0117451D01*
X0346375Y0120650D02*
X0345508Y0120650D01*
X0346375Y0123848D02*
X0341369Y0123848D01*
X0353975Y0123848D02*
X0368901Y0123848D01*
X0368901Y0120650D02*
X0353975Y0120650D01*
X0353975Y0117451D02*
X0368901Y0117451D01*
X0368901Y0114253D02*
X0353975Y0114253D01*
X0353907Y0111054D02*
X0368901Y0111054D01*
X0368901Y0107856D02*
X0351430Y0107856D01*
X0350175Y0111975D02*
X0350175Y0241350D01*
X0350800Y0242600D01*
X0342363Y0251037D01*
X0346985Y0251789D02*
X0368901Y0251789D01*
X0368901Y0248590D02*
X0350184Y0248590D01*
X0349845Y0252800D02*
X0348081Y0253531D01*
X0346731Y0254881D01*
X0346000Y0256645D01*
X0346000Y0258555D01*
X0346731Y0260319D01*
X0348081Y0261669D01*
X0349845Y0262400D01*
X0356955Y0262400D01*
X0358719Y0261669D01*
X0360069Y0260319D01*
X0360800Y0258555D01*
X0360800Y0256645D01*
X0360069Y0254881D01*
X0358719Y0253531D01*
X0356955Y0252800D01*
X0349845Y0252800D01*
X0346687Y0254987D02*
X0345850Y0254987D01*
X0345850Y0258186D02*
X0346000Y0258186D01*
X0345850Y0261384D02*
X0347796Y0261384D01*
X0348081Y0263531D02*
X0349845Y0262800D01*
X0356955Y0262800D01*
X0358719Y0263531D01*
X0360069Y0264881D01*
X0360800Y0266645D01*
X0360800Y0268555D01*
X0360069Y0270319D01*
X0358719Y0271669D01*
X0356955Y0272400D01*
X0349845Y0272400D01*
X0348081Y0271669D01*
X0346731Y0270319D01*
X0346000Y0268555D01*
X0346000Y0266645D01*
X0346731Y0264881D01*
X0348081Y0263531D01*
X0347029Y0264583D02*
X0345850Y0264583D01*
X0345850Y0267781D02*
X0346000Y0267781D01*
X0345850Y0270980D02*
X0347391Y0270980D01*
X0348081Y0273531D02*
X0349845Y0272800D01*
X0356955Y0272800D01*
X0358719Y0273531D01*
X0360069Y0274881D01*
X0360800Y0276645D01*
X0360800Y0278555D01*
X0360069Y0280319D01*
X0358719Y0281669D01*
X0356955Y0282400D01*
X0349845Y0282400D01*
X0348081Y0281669D01*
X0346731Y0280319D01*
X0346000Y0278555D01*
X0346000Y0276645D01*
X0346731Y0274881D01*
X0348081Y0273531D01*
X0347434Y0274178D02*
X0345850Y0274178D01*
X0345850Y0277377D02*
X0346000Y0277377D01*
X0345850Y0280575D02*
X0346987Y0280575D01*
X0345850Y0283774D02*
X0362838Y0283774D01*
X0361000Y0286972D02*
X0345850Y0286972D01*
X0345850Y0290171D02*
X0357855Y0290171D01*
X0359550Y0293850D02*
X0359550Y0303850D01*
X0320175Y0303850D01*
X0268300Y0251975D01*
X0248925Y0251975D01*
X0229550Y0232600D01*
X0225800Y0232600D01*
X0220300Y0232598D02*
X0214297Y0232598D01*
X0217495Y0235796D02*
X0221218Y0235796D01*
X0221627Y0238995D02*
X0220080Y0238995D01*
X0220225Y0242193D02*
X0220300Y0242193D01*
X0220225Y0245392D02*
X0220813Y0245392D01*
X0223414Y0248590D02*
X0240166Y0248590D01*
X0236968Y0245392D02*
X0230787Y0245392D01*
X0231300Y0242193D02*
X0233769Y0242193D01*
X0230571Y0238995D02*
X0229973Y0238995D01*
X0234922Y0232598D02*
X0260300Y0232598D01*
X0261218Y0235796D02*
X0238120Y0235796D01*
X0241319Y0238995D02*
X0261627Y0238995D01*
X0260300Y0242193D02*
X0244517Y0242193D01*
X0247716Y0245392D02*
X0260813Y0245392D01*
X0255800Y0252600D02*
X0280800Y0252600D01*
X0279885Y0258186D02*
X0310800Y0258186D01*
X0312596Y0261384D02*
X0283083Y0261384D01*
X0286282Y0264583D02*
X0311829Y0264583D01*
X0310800Y0267781D02*
X0289480Y0267781D01*
X0292679Y0270980D02*
X0312191Y0270980D01*
X0312875Y0273153D02*
X0313604Y0272781D01*
X0314382Y0272528D01*
X0315191Y0272400D01*
X0320800Y0272400D01*
X0320800Y0277600D01*
X0320800Y0277600D01*
X0320800Y0277600D01*
X0310400Y0277600D01*
X0310400Y0277191D01*
X0310528Y0276382D01*
X0310781Y0275604D01*
X0311153Y0274875D01*
X0311634Y0274212D01*
X0312212Y0273634D01*
X0312875Y0273153D01*
X0311668Y0274178D02*
X0307469Y0274178D01*
X0304131Y0274178D02*
X0295877Y0274178D01*
X0299076Y0277377D02*
X0302000Y0277377D01*
X0305800Y0277600D02*
X0305800Y0297600D01*
X0309008Y0299766D02*
X0310717Y0299766D01*
X0323357Y0293369D02*
X0326375Y0293369D01*
X0320800Y0280575D02*
X0320800Y0280575D01*
X0320800Y0277377D02*
X0320800Y0277377D01*
X0320800Y0274178D02*
X0320800Y0274178D01*
X0311334Y0280575D02*
X0309600Y0280575D01*
X0309600Y0277377D02*
X0310400Y0277377D01*
X0291526Y0280575D02*
X0240225Y0280575D01*
X0240225Y0277377D02*
X0262091Y0277377D01*
X0259959Y0274178D02*
X0240225Y0274178D01*
X0240225Y0270980D02*
X0259977Y0270980D01*
X0262134Y0267781D02*
X0240225Y0267781D01*
X0240225Y0264583D02*
X0260300Y0264583D01*
X0260300Y0261384D02*
X0240225Y0261384D01*
X0240004Y0258186D02*
X0262436Y0258186D01*
X0271300Y0261384D02*
X0272335Y0261384D01*
X0271300Y0264583D02*
X0275534Y0264583D01*
X0278732Y0267781D02*
X0269466Y0267781D01*
X0271623Y0270980D02*
X0281931Y0270980D01*
X0285129Y0274178D02*
X0271641Y0274178D01*
X0269509Y0277377D02*
X0288328Y0277377D01*
X0265800Y0297600D02*
X0250175Y0313225D01*
X0222675Y0313225D01*
X0220300Y0309362D02*
X0212866Y0309362D01*
X0213200Y0308555D02*
X0212469Y0310319D01*
X0211119Y0311669D01*
X0209355Y0312400D01*
X0202245Y0312400D01*
X0200481Y0311669D01*
X0199131Y0310319D01*
X0198400Y0308555D01*
X0198400Y0306645D01*
X0199131Y0304881D01*
X0200481Y0303531D01*
X0202245Y0302800D01*
X0209355Y0302800D01*
X0211119Y0303531D01*
X0212469Y0304881D01*
X0213200Y0306645D01*
X0213200Y0308555D01*
X0213000Y0306163D02*
X0220300Y0306163D01*
X0222657Y0302965D02*
X0209753Y0302965D01*
X0209355Y0302400D02*
X0202245Y0302400D01*
X0200481Y0301669D01*
X0199131Y0300319D01*
X0198400Y0298555D01*
X0198400Y0296645D01*
X0199131Y0294881D01*
X0200481Y0293531D01*
X0202245Y0292800D01*
X0209355Y0292800D01*
X0211119Y0293531D01*
X0212469Y0294881D01*
X0213200Y0296645D01*
X0213200Y0298555D01*
X0212469Y0300319D01*
X0211119Y0301669D01*
X0209355Y0302400D01*
X0212698Y0299766D02*
X0220300Y0299766D01*
X0220300Y0296568D02*
X0213168Y0296568D01*
X0210729Y0293369D02*
X0222253Y0293369D01*
X0220593Y0290171D02*
X0212531Y0290171D01*
X0213200Y0286972D02*
X0220300Y0286972D01*
X0221848Y0283774D02*
X0211362Y0283774D01*
X0212213Y0280575D02*
X0232625Y0280575D01*
X0232625Y0277377D02*
X0230074Y0277377D01*
X0230029Y0277422D02*
X0230622Y0276829D01*
X0231133Y0276163D01*
X0231552Y0275437D01*
X0231873Y0274662D01*
X0232090Y0273851D01*
X0232200Y0273019D01*
X0232200Y0272600D01*
X0225800Y0272600D01*
X0225800Y0272600D01*
X0225800Y0272600D01*
X0225800Y0279000D01*
X0226219Y0279000D01*
X0227051Y0278890D01*
X0227862Y0278673D01*
X0228637Y0278352D01*
X0229363Y0277933D01*
X0230029Y0277422D01*
X0232003Y0274178D02*
X0232625Y0274178D01*
X0232200Y0272600D02*
X0225800Y0272600D01*
X0225800Y0272600D01*
X0219400Y0272600D01*
X0219400Y0273019D01*
X0219510Y0273851D01*
X0219727Y0274662D01*
X0220048Y0275437D01*
X0220467Y0276163D01*
X0220978Y0276829D01*
X0221571Y0277422D01*
X0222237Y0277933D01*
X0222963Y0278352D01*
X0223738Y0278673D01*
X0224549Y0278890D01*
X0225381Y0279000D01*
X0225800Y0279000D01*
X0225800Y0272600D01*
X0219400Y0272600D01*
X0219400Y0272181D01*
X0219510Y0271349D01*
X0219727Y0270538D01*
X0220048Y0269763D01*
X0220467Y0269037D01*
X0220978Y0268371D01*
X0221571Y0267778D01*
X0222237Y0267267D01*
X0222523Y0267102D01*
X0220300Y0264878D01*
X0220300Y0260322D01*
X0223522Y0257100D01*
X0228078Y0257100D01*
X0231300Y0260322D01*
X0231300Y0264878D01*
X0229077Y0267102D01*
X0229363Y0267267D01*
X0230029Y0267778D01*
X0230622Y0268371D01*
X0231133Y0269037D01*
X0231552Y0269763D01*
X0231873Y0270538D01*
X0232090Y0271349D01*
X0232200Y0272181D01*
X0232200Y0272600D01*
X0231992Y0270980D02*
X0232625Y0270980D01*
X0232625Y0267781D02*
X0230032Y0267781D01*
X0231300Y0264583D02*
X0232625Y0264583D01*
X0232625Y0261384D02*
X0231300Y0261384D01*
X0229762Y0258186D02*
X0229164Y0258186D01*
X0222436Y0258186D02*
X0213200Y0258186D01*
X0212513Y0254987D02*
X0219063Y0254987D01*
X0215865Y0251789D02*
X0210831Y0251789D01*
X0211404Y0261384D02*
X0220300Y0261384D01*
X0220300Y0264583D02*
X0212171Y0264583D01*
X0213200Y0267781D02*
X0221568Y0267781D01*
X0219608Y0270980D02*
X0211809Y0270980D01*
X0211766Y0274178D02*
X0219597Y0274178D01*
X0221526Y0277377D02*
X0213200Y0277377D01*
X0225800Y0277377D02*
X0225800Y0277377D01*
X0225800Y0274178D02*
X0225800Y0274178D01*
X0229752Y0283774D02*
X0232625Y0283774D01*
X0232625Y0286972D02*
X0231300Y0286972D01*
X0231007Y0290171D02*
X0232625Y0290171D01*
X0232625Y0293369D02*
X0229347Y0293369D01*
X0240225Y0293369D02*
X0243407Y0293369D01*
X0240225Y0290171D02*
X0257855Y0290171D01*
X0260300Y0286972D02*
X0240225Y0286972D01*
X0240225Y0283774D02*
X0261848Y0283774D01*
X0246563Y0254987D02*
X0237311Y0254987D01*
X0234113Y0251789D02*
X0243365Y0251789D01*
X0231723Y0229399D02*
X0261223Y0229399D01*
X0261622Y0226201D02*
X0229978Y0226201D01*
X0231300Y0223002D02*
X0260300Y0223002D01*
X0260818Y0219803D02*
X0230782Y0219803D01*
X0225800Y0222600D02*
X0225175Y0222600D01*
X0223925Y0221350D01*
X0207675Y0221350D01*
X0207675Y0189475D01*
X0200800Y0182600D01*
X0200226Y0187400D02*
X0198812Y0187400D01*
X0196000Y0184588D01*
X0196000Y0180612D01*
X0198812Y0177800D01*
X0202788Y0177800D01*
X0205600Y0180612D01*
X0205600Y0182026D01*
X0209828Y0186254D01*
X0210745Y0187171D01*
X0211760Y0186750D01*
X0213162Y0186750D01*
X0211000Y0184588D01*
X0211000Y0180612D01*
X0213812Y0177800D01*
X0215226Y0177800D01*
X0215626Y0177400D01*
X0209645Y0177400D01*
X0207881Y0176669D01*
X0206531Y0175319D01*
X0205800Y0173555D01*
X0205800Y0171645D01*
X0206531Y0169881D01*
X0207881Y0168531D01*
X0209645Y0167800D01*
X0216755Y0167800D01*
X0218519Y0168531D01*
X0219869Y0169881D01*
X0220600Y0171645D01*
X0220600Y0173555D01*
X0219869Y0175319D01*
X0218888Y0176300D01*
X0219226Y0176300D01*
X0225575Y0169951D01*
X0225575Y0169810D01*
X0226275Y0168119D01*
X0227569Y0166825D01*
X0229260Y0166125D01*
X0231090Y0166125D01*
X0232781Y0166825D01*
X0234075Y0168119D01*
X0234775Y0169810D01*
X0234775Y0171640D01*
X0234075Y0173331D01*
X0232781Y0174625D01*
X0231090Y0175325D01*
X0230949Y0175325D01*
X0222953Y0183321D01*
X0221556Y0183900D01*
X0220600Y0183900D01*
X0220600Y0184588D01*
X0217788Y0187400D01*
X0215159Y0187400D01*
X0215281Y0187450D01*
X0215380Y0187550D01*
X0246101Y0187550D01*
X0246251Y0187400D01*
X0243812Y0187400D01*
X0241000Y0184588D01*
X0241000Y0180612D01*
X0243812Y0177800D01*
X0247788Y0177800D01*
X0250600Y0180612D01*
X0250600Y0183051D01*
X0259950Y0173701D01*
X0259950Y0173560D01*
X0260650Y0171869D01*
X0261944Y0170575D01*
X0263635Y0169875D01*
X0265465Y0169875D01*
X0267156Y0170575D01*
X0268450Y0171869D01*
X0269150Y0173560D01*
X0269150Y0175390D01*
X0268450Y0177081D01*
X0267156Y0178375D01*
X0266904Y0178479D01*
X0272633Y0178479D01*
X0273921Y0179767D01*
X0273921Y0191433D01*
X0272633Y0192721D01*
X0260967Y0192721D01*
X0259679Y0191433D01*
X0259679Y0184720D01*
X0250896Y0193503D01*
X0249828Y0194571D01*
X0248431Y0195150D01*
X0215380Y0195150D01*
X0215281Y0195250D01*
X0213590Y0195950D01*
X0211760Y0195950D01*
X0211475Y0195832D01*
X0211475Y0203743D01*
X0211760Y0203625D01*
X0211901Y0203625D01*
X0215704Y0199822D01*
X0216772Y0198754D01*
X0218169Y0198175D01*
X0267351Y0198175D01*
X0283700Y0181826D01*
X0283700Y0181685D01*
X0284400Y0179994D01*
X0285694Y0178700D01*
X0287385Y0178000D01*
X0289215Y0178000D01*
X0290906Y0178700D01*
X0292200Y0179994D01*
X0292900Y0181685D01*
X0292900Y0183515D01*
X0292200Y0185206D01*
X0290906Y0186500D01*
X0289215Y0187200D01*
X0289074Y0187200D01*
X0273099Y0203175D01*
X0296881Y0203175D01*
X0297456Y0202600D01*
X0295798Y0200942D01*
X0294900Y0198774D01*
X0294900Y0196426D01*
X0295798Y0194258D01*
X0297249Y0192807D01*
X0296696Y0192405D01*
X0295995Y0191704D01*
X0295412Y0190902D01*
X0294962Y0190018D01*
X0294655Y0189075D01*
X0294500Y0188096D01*
X0294500Y0187600D01*
X0300800Y0187600D01*
X0300800Y0187600D01*
X0294500Y0187600D01*
X0294500Y0187104D01*
X0294655Y0186125D01*
X0294962Y0185182D01*
X0295412Y0184298D01*
X0295995Y0183496D01*
X0296696Y0182795D01*
X0297249Y0182393D01*
X0295798Y0180942D01*
X0294900Y0178774D01*
X0294900Y0177074D01*
X0264851Y0147025D01*
X0244249Y0147025D01*
X0244203Y0147071D01*
X0242806Y0147650D01*
X0199130Y0147650D01*
X0199031Y0147750D01*
X0198909Y0147800D01*
X0202788Y0147800D01*
X0205600Y0150612D01*
X0205600Y0154588D01*
X0202788Y0157400D01*
X0198812Y0157400D01*
X0196000Y0154588D01*
X0196000Y0150612D01*
X0198743Y0147869D01*
X0197340Y0148450D01*
X0195510Y0148450D01*
X0193819Y0147750D01*
X0192525Y0146456D01*
X0192465Y0146309D01*
X0190225Y0148549D01*
X0190225Y0157752D01*
X0191135Y0157375D01*
X0192965Y0157375D01*
X0194656Y0158075D01*
X0195950Y0159369D01*
X0196650Y0161060D01*
X0196650Y0162890D01*
X0195950Y0164581D01*
X0195850Y0164680D01*
X0195850Y0219425D01*
X0200306Y0219425D01*
X0201703Y0220004D01*
X0202771Y0221072D01*
X0202771Y0221072D01*
X0203925Y0222226D01*
X0203875Y0222106D01*
X0203875Y0191049D01*
X0200226Y0187400D01*
X0200644Y0187818D02*
X0195850Y0187818D01*
X0195850Y0184620D02*
X0196032Y0184620D01*
X0196000Y0181421D02*
X0195850Y0181421D01*
X0195850Y0178223D02*
X0198389Y0178223D01*
X0195850Y0175024D02*
X0206409Y0175024D01*
X0205800Y0171826D02*
X0195850Y0171826D01*
X0195850Y0168627D02*
X0207784Y0168627D01*
X0207881Y0166669D02*
X0206531Y0165319D01*
X0205800Y0163555D01*
X0205800Y0161645D01*
X0206531Y0159881D01*
X0207881Y0158531D01*
X0209645Y0157800D01*
X0216755Y0157800D01*
X0218519Y0158531D01*
X0219869Y0159881D01*
X0220600Y0161645D01*
X0220600Y0163555D01*
X0219869Y0165319D01*
X0218519Y0166669D01*
X0216755Y0167400D01*
X0209645Y0167400D01*
X0207881Y0166669D01*
X0206641Y0165429D02*
X0195850Y0165429D01*
X0196650Y0162230D02*
X0205800Y0162230D01*
X0207380Y0159032D02*
X0195612Y0159032D01*
X0197245Y0155833D02*
X0190225Y0155833D01*
X0190225Y0152635D02*
X0196000Y0152635D01*
X0197176Y0149436D02*
X0190225Y0149436D01*
X0186425Y0146975D02*
X0186425Y0223850D01*
X0177050Y0223850D01*
X0168613Y0232287D01*
X0163300Y0237600D01*
X0160800Y0237600D01*
X0163985Y0242193D02*
X0172000Y0242193D01*
X0172000Y0238995D02*
X0167279Y0238995D01*
X0166380Y0245392D02*
X0168919Y0245392D01*
X0168415Y0248590D02*
X0166800Y0248590D01*
X0179600Y0242193D02*
X0182000Y0242193D01*
X0182000Y0238995D02*
X0179600Y0238995D01*
X0179600Y0235796D02*
X0182000Y0235796D01*
X0181000Y0232598D02*
X0179600Y0232598D01*
X0182213Y0229399D02*
X0176875Y0229399D01*
X0172524Y0223002D02*
X0154600Y0223002D01*
X0154600Y0219803D02*
X0182625Y0219803D01*
X0182625Y0216605D02*
X0154600Y0216605D01*
X0154600Y0213406D02*
X0182625Y0213406D01*
X0182625Y0210208D02*
X0154600Y0210208D01*
X0154600Y0207009D02*
X0182625Y0207009D01*
X0182625Y0203811D02*
X0154600Y0203811D01*
X0154600Y0200612D02*
X0182625Y0200612D01*
X0182625Y0197414D02*
X0154600Y0197414D01*
X0154600Y0194215D02*
X0182625Y0194215D01*
X0182625Y0191017D02*
X0154600Y0191017D01*
X0154600Y0187818D02*
X0182625Y0187818D01*
X0182625Y0184620D02*
X0154600Y0184620D01*
X0154600Y0181421D02*
X0182625Y0181421D01*
X0182625Y0178223D02*
X0154600Y0178223D01*
X0154600Y0175024D02*
X0182625Y0175024D01*
X0182625Y0171826D02*
X0154600Y0171826D01*
X0154600Y0168627D02*
X0182625Y0168627D01*
X0182625Y0165429D02*
X0154600Y0165429D01*
X0154600Y0162230D02*
X0182625Y0162230D01*
X0182625Y0159032D02*
X0154600Y0159032D01*
X0154600Y0155833D02*
X0180228Y0155833D01*
X0182622Y0155833D02*
X0182625Y0155833D01*
X0181425Y0151350D02*
X0148925Y0118850D01*
X0142050Y0118850D01*
X0140800Y0117600D01*
X0144241Y0114253D02*
X0167359Y0114253D01*
X0166731Y0114881D02*
X0168081Y0113531D01*
X0169845Y0112800D01*
X0176955Y0112800D01*
X0178719Y0113531D01*
X0180069Y0114881D01*
X0180800Y0116645D01*
X0180800Y0118555D01*
X0180069Y0120319D01*
X0178719Y0121669D01*
X0176955Y0122400D01*
X0169845Y0122400D01*
X0168081Y0121669D01*
X0166731Y0120319D01*
X0166000Y0118555D01*
X0166000Y0116645D01*
X0166731Y0114881D01*
X0166000Y0117451D02*
X0152900Y0117451D01*
X0156099Y0120650D02*
X0167061Y0120650D01*
X0168081Y0123531D02*
X0169845Y0122800D01*
X0176955Y0122800D01*
X0178719Y0123531D01*
X0180069Y0124881D01*
X0180800Y0126645D01*
X0180800Y0128555D01*
X0180069Y0130319D01*
X0178719Y0131669D01*
X0176955Y0132400D01*
X0169845Y0132400D01*
X0168081Y0131669D01*
X0166731Y0130319D01*
X0166000Y0128555D01*
X0166000Y0126645D01*
X0166731Y0124881D01*
X0168081Y0123531D01*
X0167764Y0123848D02*
X0159297Y0123848D01*
X0162496Y0127047D02*
X0166000Y0127047D01*
X0165694Y0130245D02*
X0166700Y0130245D01*
X0168893Y0133444D02*
X0194582Y0133444D01*
X0196367Y0130245D02*
X0180100Y0130245D01*
X0180800Y0127047D02*
X0208792Y0127047D01*
X0209645Y0127400D02*
X0207881Y0126669D01*
X0206531Y0125319D01*
X0205800Y0123555D01*
X0205800Y0121645D01*
X0206531Y0119881D01*
X0207881Y0118531D01*
X0209645Y0117800D01*
X0216755Y0117800D01*
X0218519Y0118531D01*
X0219869Y0119881D01*
X0220600Y0121645D01*
X0220600Y0123555D01*
X0219869Y0125319D01*
X0218519Y0126669D01*
X0216755Y0127400D01*
X0209645Y0127400D01*
X0205922Y0123848D02*
X0179036Y0123848D01*
X0179739Y0120650D02*
X0206212Y0120650D01*
X0207881Y0116669D02*
X0206531Y0115319D01*
X0205800Y0113555D01*
X0205800Y0111645D01*
X0206531Y0109881D01*
X0207881Y0108531D01*
X0209645Y0107800D01*
X0216755Y0107800D01*
X0218519Y0108531D01*
X0219869Y0109881D01*
X0220600Y0111645D01*
X0220600Y0113555D01*
X0219869Y0115319D01*
X0218519Y0116669D01*
X0216755Y0117400D01*
X0209645Y0117400D01*
X0207881Y0116669D01*
X0206089Y0114253D02*
X0179441Y0114253D01*
X0178725Y0112047D02*
X0177996Y0112419D01*
X0177218Y0112672D01*
X0176409Y0112800D01*
X0170800Y0112800D01*
X0170800Y0107600D01*
X0170800Y0107600D01*
X0181200Y0107600D01*
X0181200Y0108009D01*
X0181072Y0108818D01*
X0180819Y0109596D01*
X0180447Y0110325D01*
X0179966Y0110988D01*
X0179388Y0111566D01*
X0178725Y0112047D01*
X0179900Y0111054D02*
X0206045Y0111054D01*
X0209511Y0107856D02*
X0181200Y0107856D01*
X0181200Y0107600D02*
X0170800Y0107600D01*
X0170800Y0107600D01*
X0170800Y0102400D01*
X0176409Y0102400D01*
X0177218Y0102528D01*
X0177996Y0102781D01*
X0178725Y0103153D01*
X0179388Y0103634D01*
X0179966Y0104212D01*
X0180447Y0104875D01*
X0180819Y0105604D01*
X0181072Y0106382D01*
X0181200Y0107191D01*
X0181200Y0107600D01*
X0180289Y0104657D02*
X0196069Y0104657D01*
X0196000Y0104588D02*
X0196000Y0100612D01*
X0198812Y0097800D01*
X0202788Y0097800D01*
X0205600Y0100612D01*
X0205600Y0104588D01*
X0202788Y0107400D01*
X0198812Y0107400D01*
X0196000Y0104588D01*
X0196000Y0101459D02*
X0173730Y0101459D01*
X0170800Y0102400D02*
X0170800Y0107600D01*
X0170800Y0107600D01*
X0170800Y0107600D01*
X0165600Y0107600D01*
X0165600Y0108009D01*
X0165728Y0108818D01*
X0165981Y0109596D01*
X0166353Y0110325D01*
X0166834Y0110988D01*
X0167412Y0111566D01*
X0168075Y0112047D01*
X0168804Y0112419D01*
X0169582Y0112672D01*
X0170391Y0112800D01*
X0170800Y0112800D01*
X0170800Y0107600D01*
X0165600Y0107600D01*
X0165600Y0107191D01*
X0165728Y0106382D01*
X0165981Y0105604D01*
X0166353Y0104875D01*
X0166834Y0104212D01*
X0167412Y0103634D01*
X0168075Y0103153D01*
X0168804Y0102781D01*
X0169582Y0102528D01*
X0170391Y0102400D01*
X0170800Y0102400D01*
X0170800Y0104657D02*
X0170800Y0104657D01*
X0170800Y0107856D02*
X0170800Y0107856D01*
X0170800Y0111054D02*
X0170800Y0111054D01*
X0166900Y0111054D02*
X0144134Y0111054D01*
X0143519Y0111669D02*
X0141755Y0112400D01*
X0134645Y0112400D01*
X0132881Y0111669D01*
X0131531Y0110319D01*
X0130800Y0108555D01*
X0130800Y0106645D01*
X0131531Y0104881D01*
X0132881Y0103531D01*
X0134645Y0102800D01*
X0141755Y0102800D01*
X0143519Y0103531D01*
X0144869Y0104881D01*
X0145600Y0106645D01*
X0145600Y0108555D01*
X0144869Y0110319D01*
X0143519Y0111669D01*
X0145600Y0107856D02*
X0165600Y0107856D01*
X0166511Y0104657D02*
X0144645Y0104657D01*
X0143730Y0101459D02*
X0167870Y0101459D01*
X0166000Y0098260D02*
X0145600Y0098260D01*
X0145050Y0095062D02*
X0166550Y0095062D01*
X0170800Y0097600D02*
X0173925Y0097600D01*
X0177675Y0093850D01*
X0217050Y0093850D01*
X0219550Y0096350D01*
X0220523Y0101459D02*
X0220750Y0101459D01*
X0220750Y0104657D02*
X0220143Y0104657D01*
X0220750Y0107856D02*
X0216889Y0107856D01*
X0220355Y0111054D02*
X0220750Y0111054D01*
X0220750Y0114253D02*
X0220311Y0114253D01*
X0220750Y0117451D02*
X0180800Y0117451D01*
X0178639Y0098260D02*
X0198352Y0098260D01*
X0203248Y0098260D02*
X0208535Y0098260D01*
X0205877Y0101459D02*
X0205600Y0101459D01*
X0205531Y0104657D02*
X0206257Y0104657D01*
X0208925Y0088850D02*
X0133925Y0088850D01*
X0132988Y0089787D01*
X0140800Y0097600D01*
X0137870Y0101459D02*
X0128730Y0101459D01*
X0127788Y0102400D02*
X0123812Y0102400D01*
X0121000Y0099588D01*
X0121000Y0095612D01*
X0123812Y0092800D01*
X0127788Y0092800D01*
X0130600Y0095612D01*
X0130600Y0099588D01*
X0127788Y0102400D01*
X0131755Y0104657D02*
X0110289Y0104657D01*
X0110447Y0104875D02*
X0110819Y0105604D01*
X0111072Y0106382D01*
X0111200Y0107191D01*
X0111200Y0107600D01*
X0111200Y0108009D01*
X0111072Y0108818D01*
X0110819Y0109596D01*
X0110447Y0110325D01*
X0109966Y0110988D01*
X0109388Y0111566D01*
X0108725Y0112047D01*
X0107996Y0112419D01*
X0107218Y0112672D01*
X0106409Y0112800D01*
X0100800Y0112800D01*
X0100800Y0107600D01*
X0100800Y0107600D01*
X0111200Y0107600D01*
X0100800Y0107600D01*
X0100800Y0107600D01*
X0100800Y0102400D01*
X0106409Y0102400D01*
X0107218Y0102528D01*
X0107996Y0102781D01*
X0108725Y0103153D01*
X0109388Y0103634D01*
X0109966Y0104212D01*
X0110447Y0104875D01*
X0111200Y0107856D02*
X0130800Y0107856D01*
X0132266Y0111054D02*
X0109900Y0111054D01*
X0108719Y0113531D02*
X0110069Y0114881D01*
X0110800Y0116645D01*
X0110800Y0118555D01*
X0110069Y0120319D01*
X0108719Y0121669D01*
X0106955Y0122400D01*
X0099845Y0122400D01*
X0098081Y0121669D01*
X0096731Y0120319D01*
X0096000Y0118555D01*
X0096000Y0116645D01*
X0096731Y0114881D01*
X0098081Y0113531D01*
X0099845Y0112800D01*
X0106955Y0112800D01*
X0108719Y0113531D01*
X0109441Y0114253D02*
X0132159Y0114253D01*
X0130800Y0117451D02*
X0110800Y0117451D01*
X0109739Y0120650D02*
X0131861Y0120650D01*
X0132881Y0123531D02*
X0134645Y0122800D01*
X0141755Y0122800D01*
X0143519Y0123531D01*
X0144869Y0124881D01*
X0145600Y0126645D01*
X0145600Y0128555D01*
X0144869Y0130319D01*
X0143519Y0131669D01*
X0141755Y0132400D01*
X0134645Y0132400D01*
X0132881Y0131669D01*
X0131531Y0130319D01*
X0130800Y0128555D01*
X0130800Y0126645D01*
X0131531Y0124881D01*
X0132881Y0123531D01*
X0132564Y0123848D02*
X0128836Y0123848D01*
X0127788Y0122800D02*
X0130600Y0125612D01*
X0130600Y0129588D01*
X0127788Y0132400D01*
X0123812Y0132400D01*
X0121000Y0129588D01*
X0121000Y0125612D01*
X0123812Y0122800D01*
X0127788Y0122800D01*
X0130600Y0127047D02*
X0130800Y0127047D01*
X0131500Y0130245D02*
X0129943Y0130245D01*
X0121657Y0130245D02*
X0110100Y0130245D01*
X0110069Y0130319D02*
X0108719Y0131669D01*
X0106955Y0132400D01*
X0099845Y0132400D01*
X0098081Y0131669D01*
X0096731Y0130319D01*
X0096000Y0128555D01*
X0096000Y0126645D01*
X0096731Y0124881D01*
X0098081Y0123531D01*
X0099845Y0122800D01*
X0106955Y0122800D01*
X0108719Y0123531D01*
X0110069Y0124881D01*
X0110800Y0126645D01*
X0110800Y0128555D01*
X0110069Y0130319D01*
X0110800Y0127047D02*
X0121000Y0127047D01*
X0122764Y0123848D02*
X0109036Y0123848D01*
X0097764Y0123848D02*
X0083350Y0123848D01*
X0083350Y0120650D02*
X0097061Y0120650D01*
X0096000Y0117451D02*
X0083350Y0117451D01*
X0083350Y0114253D02*
X0097359Y0114253D01*
X0098075Y0112047D02*
X0097412Y0111566D01*
X0096834Y0110988D01*
X0096353Y0110325D01*
X0095981Y0109596D01*
X0095728Y0108818D01*
X0095600Y0108009D01*
X0095600Y0107600D01*
X0100800Y0107600D01*
X0100800Y0107600D01*
X0100800Y0107600D01*
X0100800Y0112800D01*
X0100391Y0112800D01*
X0099582Y0112672D01*
X0098804Y0112419D01*
X0098075Y0112047D01*
X0096900Y0111054D02*
X0083350Y0111054D01*
X0083350Y0107856D02*
X0095600Y0107856D01*
X0095600Y0107600D02*
X0095600Y0107191D01*
X0095728Y0106382D01*
X0095981Y0105604D01*
X0096353Y0104875D01*
X0096834Y0104212D01*
X0097412Y0103634D01*
X0098075Y0103153D01*
X0098804Y0102781D01*
X0099582Y0102528D01*
X0100391Y0102400D01*
X0100800Y0102400D01*
X0100800Y0107600D01*
X0095600Y0107600D01*
X0096511Y0104657D02*
X0083350Y0104657D01*
X0083350Y0101459D02*
X0097870Y0101459D01*
X0098812Y0102400D02*
X0096000Y0099588D01*
X0096000Y0095612D01*
X0098812Y0092800D01*
X0102788Y0092800D01*
X0105600Y0095612D01*
X0105600Y0099588D01*
X0102788Y0102400D01*
X0098812Y0102400D01*
X0100800Y0104657D02*
X0100800Y0104657D01*
X0100800Y0107856D02*
X0100800Y0107856D01*
X0100800Y0111054D02*
X0100800Y0111054D01*
X0103730Y0101459D02*
X0122870Y0101459D01*
X0121000Y0098260D02*
X0105600Y0098260D01*
X0105050Y0095062D02*
X0121550Y0095062D01*
X0130050Y0095062D02*
X0132888Y0095062D01*
X0130600Y0098260D02*
X0136000Y0098260D01*
X0132988Y0089787D02*
X0132050Y0088850D01*
X0079550Y0088850D01*
X0079550Y0033850D01*
X0080800Y0033225D01*
X0082675Y0033225D01*
X0097050Y0018850D01*
X0132050Y0018850D01*
X0140800Y0027600D01*
X0144097Y0031091D02*
X0167503Y0031091D01*
X0168812Y0032400D02*
X0166000Y0029588D01*
X0166000Y0025612D01*
X0168812Y0022800D01*
X0172788Y0022800D01*
X0175600Y0025612D01*
X0175600Y0029588D01*
X0172788Y0032400D01*
X0168812Y0032400D01*
X0168804Y0032781D02*
X0169582Y0032528D01*
X0170391Y0032400D01*
X0170800Y0032400D01*
X0176409Y0032400D01*
X0177218Y0032528D01*
X0177996Y0032781D01*
X0178725Y0033153D01*
X0179388Y0033634D01*
X0179966Y0034212D01*
X0180447Y0034875D01*
X0180819Y0035604D01*
X0181072Y0036382D01*
X0181200Y0037191D01*
X0181200Y0037600D01*
X0181200Y0038009D01*
X0181072Y0038818D01*
X0180819Y0039596D01*
X0180447Y0040325D01*
X0179966Y0040988D01*
X0179388Y0041566D01*
X0178725Y0042047D01*
X0177996Y0042419D01*
X0177218Y0042672D01*
X0176409Y0042800D01*
X0170800Y0042800D01*
X0170800Y0037600D01*
X0170800Y0037600D01*
X0181200Y0037600D01*
X0170800Y0037600D01*
X0170800Y0037600D01*
X0170800Y0032400D01*
X0170800Y0037600D01*
X0170800Y0037600D01*
X0170800Y0037600D01*
X0165600Y0037600D01*
X0165600Y0038009D01*
X0165728Y0038818D01*
X0165981Y0039596D01*
X0166353Y0040325D01*
X0166834Y0040988D01*
X0167412Y0041566D01*
X0168075Y0042047D01*
X0168804Y0042419D01*
X0169582Y0042672D01*
X0170391Y0042800D01*
X0170800Y0042800D01*
X0170800Y0037600D01*
X0165600Y0037600D01*
X0165600Y0037191D01*
X0165728Y0036382D01*
X0165981Y0035604D01*
X0166353Y0034875D01*
X0166834Y0034212D01*
X0167412Y0033634D01*
X0168075Y0033153D01*
X0168804Y0032781D01*
X0170800Y0034290D02*
X0170800Y0034290D01*
X0170800Y0037488D02*
X0170800Y0037488D01*
X0170800Y0040687D02*
X0170800Y0040687D01*
X0169845Y0042800D02*
X0176955Y0042800D01*
X0178719Y0043531D01*
X0178988Y0043800D01*
X0179056Y0043800D01*
X0180453Y0044379D01*
X0181521Y0045447D01*
X0194874Y0058800D01*
X0205902Y0058800D01*
X0205800Y0058555D01*
X0205800Y0056645D01*
X0206531Y0054881D01*
X0207881Y0053531D01*
X0209645Y0052800D01*
X0216755Y0052800D01*
X0218519Y0053531D01*
X0219869Y0054881D01*
X0220600Y0056645D01*
X0220600Y0058555D01*
X0220498Y0058800D01*
X0229056Y0058800D01*
X0230453Y0059379D01*
X0231521Y0060447D01*
X0243624Y0072550D01*
X0281318Y0072550D01*
X0281200Y0072265D01*
X0281200Y0070435D01*
X0281900Y0068744D01*
X0282625Y0068020D01*
X0282625Y0057805D01*
X0282525Y0057706D01*
X0281825Y0056015D01*
X0281825Y0054185D01*
X0282525Y0052494D01*
X0283819Y0051200D01*
X0285510Y0050500D01*
X0287340Y0050500D01*
X0289031Y0051200D01*
X0290325Y0052494D01*
X0291025Y0054185D01*
X0291025Y0056015D01*
X0290325Y0057706D01*
X0290225Y0057805D01*
X0290225Y0062801D01*
X0294900Y0058126D01*
X0294900Y0056426D01*
X0295798Y0054258D01*
X0297456Y0052600D01*
X0295798Y0050942D01*
X0294900Y0048774D01*
X0294900Y0046426D01*
X0295798Y0044258D01*
X0297456Y0042600D01*
X0295798Y0040942D01*
X0294900Y0038774D01*
X0294900Y0036426D01*
X0295021Y0036134D01*
X0294656Y0036500D01*
X0292965Y0037200D01*
X0291135Y0037200D01*
X0289444Y0036500D01*
X0289345Y0036400D01*
X0285866Y0036400D01*
X0285325Y0037706D01*
X0284031Y0039000D01*
X0282340Y0039700D01*
X0280510Y0039700D01*
X0278819Y0039000D01*
X0277525Y0037706D01*
X0277465Y0037559D01*
X0275166Y0039858D01*
X0275241Y0039879D01*
X0277865Y0041393D01*
X0280007Y0043535D01*
X0281521Y0046159D01*
X0282305Y0049085D01*
X0282305Y0052115D01*
X0281521Y0055041D01*
X0280007Y0057665D01*
X0277865Y0059807D01*
X0275241Y0061321D01*
X0272315Y0062105D01*
X0269285Y0062105D01*
X0266359Y0061321D01*
X0263735Y0059807D01*
X0261593Y0057665D01*
X0260079Y0055041D01*
X0259294Y0052115D01*
X0259294Y0049085D01*
X0260079Y0046159D01*
X0261593Y0043535D01*
X0263735Y0041393D01*
X0264806Y0040775D01*
X0249413Y0040775D01*
X0247788Y0042400D01*
X0243812Y0042400D01*
X0241000Y0039588D01*
X0241000Y0035612D01*
X0243812Y0032800D01*
X0247788Y0032800D01*
X0248163Y0033175D01*
X0259679Y0033175D01*
X0259679Y0023767D01*
X0260967Y0022479D01*
X0272633Y0022479D01*
X0273921Y0023767D01*
X0273921Y0030355D01*
X0277876Y0026400D01*
X0277544Y0026400D01*
X0276147Y0025821D01*
X0275079Y0024753D01*
X0272351Y0022025D01*
X0261124Y0022025D01*
X0252146Y0031003D01*
X0251078Y0032071D01*
X0249681Y0032650D01*
X0243624Y0032650D01*
X0240225Y0036049D01*
X0240225Y0053800D01*
X0242812Y0053800D01*
X0243081Y0053531D01*
X0244845Y0052800D01*
X0251955Y0052800D01*
X0253719Y0053531D01*
X0255069Y0054881D01*
X0255800Y0056645D01*
X0255800Y0058555D01*
X0255069Y0060319D01*
X0253719Y0061669D01*
X0251955Y0062400D01*
X0244845Y0062400D01*
X0243081Y0061669D01*
X0242812Y0061400D01*
X0235669Y0061400D01*
X0234272Y0060821D01*
X0233204Y0059753D01*
X0232625Y0058356D01*
X0232625Y0033719D01*
X0233204Y0032322D01*
X0234272Y0031254D01*
X0239897Y0025629D01*
X0241294Y0025050D01*
X0241462Y0025050D01*
X0241000Y0024588D01*
X0241000Y0020612D01*
X0243412Y0018200D01*
X0218754Y0018200D01*
X0221000Y0020446D01*
X0221000Y0022600D01*
X0221000Y0024754D01*
X0217954Y0027800D01*
X0215800Y0027800D01*
X0215800Y0022600D01*
X0215800Y0022600D01*
X0221000Y0022600D01*
X0215800Y0022600D01*
X0215800Y0022600D01*
X0215800Y0022600D01*
X0210600Y0022600D01*
X0210600Y0024754D01*
X0213646Y0027800D01*
X0215800Y0027800D01*
X0215800Y0022600D01*
X0210600Y0022600D01*
X0210600Y0020446D01*
X0212846Y0018200D01*
X0136774Y0018200D01*
X0141374Y0022800D01*
X0142788Y0022800D01*
X0145600Y0025612D01*
X0145600Y0029588D01*
X0142788Y0032400D01*
X0138812Y0032400D01*
X0136000Y0029588D01*
X0136000Y0028174D01*
X0130476Y0022650D01*
X0098624Y0022650D01*
X0085896Y0035378D01*
X0084828Y0036446D01*
X0083431Y0037025D01*
X0083350Y0037025D01*
X0083350Y0085050D01*
X0132806Y0085050D01*
X0132988Y0085125D01*
X0133169Y0085050D01*
X0135376Y0085050D01*
X0110238Y0059912D01*
X0110069Y0060319D01*
X0108719Y0061669D01*
X0106955Y0062400D01*
X0099845Y0062400D01*
X0098081Y0061669D01*
X0096731Y0060319D01*
X0096000Y0058555D01*
X0096000Y0056645D01*
X0096731Y0054881D01*
X0098081Y0053531D01*
X0099845Y0052800D01*
X0103126Y0052800D01*
X0102726Y0052400D01*
X0099845Y0052400D01*
X0098081Y0051669D01*
X0096731Y0050319D01*
X0096000Y0048555D01*
X0096000Y0046645D01*
X0096731Y0044881D01*
X0098081Y0043531D01*
X0099845Y0042800D01*
X0106955Y0042800D01*
X0108719Y0043531D01*
X0110069Y0044881D01*
X0110800Y0046645D01*
X0110800Y0048555D01*
X0110457Y0049383D01*
X0141124Y0080050D01*
X0153193Y0080050D01*
X0153075Y0079765D01*
X0153075Y0077935D01*
X0153775Y0076244D01*
X0155069Y0074950D01*
X0156760Y0074250D01*
X0156901Y0074250D01*
X0163238Y0067912D01*
X0147976Y0052650D01*
X0141294Y0052650D01*
X0140691Y0052400D01*
X0134645Y0052400D01*
X0132881Y0051669D01*
X0131531Y0050319D01*
X0130800Y0048555D01*
X0130800Y0046645D01*
X0131531Y0044881D01*
X0132881Y0043531D01*
X0134645Y0042800D01*
X0141755Y0042800D01*
X0143519Y0043531D01*
X0144869Y0044881D01*
X0144939Y0045050D01*
X0150306Y0045050D01*
X0151703Y0045629D01*
X0170765Y0064691D01*
X0171124Y0065050D01*
X0190376Y0065050D01*
X0177500Y0052174D01*
X0176955Y0052400D01*
X0169845Y0052400D01*
X0168081Y0051669D01*
X0166731Y0050319D01*
X0166000Y0048555D01*
X0166000Y0046645D01*
X0166731Y0044881D01*
X0168081Y0043531D01*
X0169845Y0042800D01*
X0167726Y0043885D02*
X0143874Y0043885D01*
X0143519Y0041669D02*
X0141755Y0042400D01*
X0134645Y0042400D01*
X0132881Y0041669D01*
X0131531Y0040319D01*
X0130800Y0038555D01*
X0130800Y0036645D01*
X0131531Y0034881D01*
X0132881Y0033531D01*
X0134645Y0032800D01*
X0141755Y0032800D01*
X0143519Y0033531D01*
X0144869Y0034881D01*
X0145600Y0036645D01*
X0145600Y0038555D01*
X0144869Y0040319D01*
X0143519Y0041669D01*
X0144501Y0040687D02*
X0166615Y0040687D01*
X0165600Y0037488D02*
X0145600Y0037488D01*
X0144278Y0034290D02*
X0166777Y0034290D01*
X0166000Y0027893D02*
X0145600Y0027893D01*
X0144683Y0024694D02*
X0166917Y0024694D01*
X0174683Y0024694D02*
X0210600Y0024694D01*
X0210600Y0021496D02*
X0140070Y0021496D01*
X0136871Y0018297D02*
X0212749Y0018297D01*
X0218851Y0018297D02*
X0243314Y0018297D01*
X0241000Y0021496D02*
X0221000Y0021496D01*
X0221000Y0024694D02*
X0241106Y0024694D01*
X0242050Y0028850D02*
X0236425Y0034475D01*
X0236425Y0057600D01*
X0245800Y0057600D01*
X0245800Y0052800D02*
X0245391Y0052800D01*
X0244582Y0052672D01*
X0243804Y0052419D01*
X0243075Y0052047D01*
X0242412Y0051566D01*
X0241834Y0050988D01*
X0241353Y0050325D01*
X0240981Y0049596D01*
X0240728Y0048818D01*
X0240600Y0048009D01*
X0240600Y0047600D01*
X0245800Y0047600D01*
X0245800Y0047600D01*
X0245800Y0052800D01*
X0251409Y0052800D01*
X0252218Y0052672D01*
X0252996Y0052419D01*
X0253725Y0052047D01*
X0254388Y0051566D01*
X0254966Y0050988D01*
X0255447Y0050325D01*
X0255819Y0049596D01*
X0256072Y0048818D01*
X0256200Y0048009D01*
X0256200Y0047600D01*
X0245800Y0047600D01*
X0245800Y0047600D01*
X0245800Y0042400D01*
X0251409Y0042400D01*
X0252218Y0042528D01*
X0252996Y0042781D01*
X0253725Y0043153D01*
X0254388Y0043634D01*
X0254966Y0044212D01*
X0255447Y0044875D01*
X0255819Y0045604D01*
X0256072Y0046382D01*
X0256200Y0047191D01*
X0256200Y0047600D01*
X0245800Y0047600D01*
X0245800Y0047600D01*
X0245800Y0047600D01*
X0245800Y0052800D01*
X0245800Y0050282D02*
X0245800Y0050282D01*
X0245800Y0047600D02*
X0240600Y0047600D01*
X0240600Y0047191D01*
X0240728Y0046382D01*
X0240981Y0045604D01*
X0241353Y0044875D01*
X0241834Y0044212D01*
X0242412Y0043634D01*
X0243075Y0043153D01*
X0243804Y0042781D01*
X0244582Y0042528D01*
X0245391Y0042400D01*
X0245800Y0042400D01*
X0245800Y0047600D01*
X0245800Y0047084D02*
X0245800Y0047084D01*
X0245800Y0043885D02*
X0245800Y0043885D01*
X0242161Y0043885D02*
X0240225Y0043885D01*
X0240225Y0040687D02*
X0242099Y0040687D01*
X0241000Y0037488D02*
X0240225Y0037488D01*
X0241984Y0034290D02*
X0242322Y0034290D01*
X0245800Y0037600D02*
X0246425Y0036975D01*
X0272675Y0036975D01*
X0282050Y0027600D01*
X0314550Y0027600D01*
X0320800Y0033850D01*
X0320800Y0046975D01*
X0321425Y0048225D01*
X0321425Y0053225D01*
X0335800Y0067600D01*
X0333452Y0059878D02*
X0368901Y0059878D01*
X0368901Y0063076D02*
X0344346Y0063076D01*
X0346222Y0066275D02*
X0368901Y0066275D01*
X0368901Y0069473D02*
X0345995Y0069473D01*
X0343798Y0072672D02*
X0368901Y0072672D01*
X0368901Y0075870D02*
X0325225Y0075870D01*
X0325225Y0072672D02*
X0327802Y0072672D01*
X0325605Y0069473D02*
X0325225Y0069473D01*
X0325225Y0066275D02*
X0325378Y0066275D01*
X0325225Y0063076D02*
X0325902Y0063076D01*
X0330253Y0056679D02*
X0368901Y0056679D01*
X0368901Y0053481D02*
X0342255Y0053481D01*
X0341183Y0053925D02*
X0343508Y0052962D01*
X0345287Y0051183D01*
X0346250Y0048858D01*
X0346250Y0046342D01*
X0345287Y0044017D01*
X0343508Y0042238D01*
X0341183Y0041275D01*
X0330417Y0041275D01*
X0328092Y0042238D01*
X0326313Y0044017D01*
X0325350Y0046342D01*
X0325350Y0048858D01*
X0326313Y0051183D01*
X0328092Y0052962D01*
X0330417Y0053925D01*
X0341183Y0053925D01*
X0345660Y0050282D02*
X0368901Y0050282D01*
X0368901Y0047084D02*
X0346250Y0047084D01*
X0345155Y0043885D02*
X0368901Y0043885D01*
X0368901Y0040687D02*
X0324600Y0040687D01*
X0324600Y0043885D02*
X0326445Y0043885D01*
X0325350Y0047084D02*
X0325103Y0047084D01*
X0325225Y0050282D02*
X0325940Y0050282D01*
X0327055Y0053481D02*
X0329345Y0053481D01*
X0320800Y0046975D02*
X0311425Y0046975D01*
X0310800Y0047600D01*
X0300800Y0057600D02*
X0290800Y0067600D01*
X0290800Y0076350D01*
X0242050Y0076350D01*
X0228300Y0062600D01*
X0193300Y0062600D01*
X0178300Y0047600D01*
X0170800Y0047600D01*
X0166000Y0047084D02*
X0153158Y0047084D01*
X0149550Y0048850D02*
X0168613Y0067913D01*
X0157675Y0078850D01*
X0154149Y0075870D02*
X0136944Y0075870D01*
X0133746Y0072672D02*
X0158479Y0072672D01*
X0161678Y0069473D02*
X0130547Y0069473D01*
X0127349Y0066275D02*
X0161601Y0066275D01*
X0158402Y0063076D02*
X0124150Y0063076D01*
X0123812Y0062400D02*
X0121000Y0059588D01*
X0121000Y0055612D01*
X0123812Y0052800D01*
X0127788Y0052800D01*
X0130600Y0055612D01*
X0130600Y0059588D01*
X0127788Y0062400D01*
X0123812Y0062400D01*
X0121290Y0059878D02*
X0120952Y0059878D01*
X0121000Y0056679D02*
X0117753Y0056679D01*
X0114555Y0053481D02*
X0123131Y0053481D01*
X0128469Y0053481D02*
X0133001Y0053481D01*
X0132881Y0053531D02*
X0134645Y0052800D01*
X0141755Y0052800D01*
X0143519Y0053531D01*
X0144869Y0054881D01*
X0145600Y0056645D01*
X0145600Y0058555D01*
X0144869Y0060319D01*
X0143519Y0061669D01*
X0141755Y0062400D01*
X0134645Y0062400D01*
X0132881Y0061669D01*
X0131531Y0060319D01*
X0130800Y0058555D01*
X0130800Y0056645D01*
X0131531Y0054881D01*
X0132881Y0053531D01*
X0131516Y0050282D02*
X0111356Y0050282D01*
X0110800Y0047084D02*
X0130800Y0047084D01*
X0132526Y0043885D02*
X0109074Y0043885D01*
X0107996Y0042419D02*
X0107218Y0042672D01*
X0106409Y0042800D01*
X0100800Y0042800D01*
X0100800Y0037600D01*
X0100800Y0037600D01*
X0111200Y0037600D01*
X0111200Y0038009D01*
X0111072Y0038818D01*
X0110819Y0039596D01*
X0110447Y0040325D01*
X0109966Y0040988D01*
X0109388Y0041566D01*
X0108725Y0042047D01*
X0107996Y0042419D01*
X0110185Y0040687D02*
X0131899Y0040687D01*
X0130800Y0037488D02*
X0111200Y0037488D01*
X0111200Y0037600D02*
X0100800Y0037600D01*
X0100800Y0037600D01*
X0100800Y0032400D01*
X0106409Y0032400D01*
X0107218Y0032528D01*
X0107996Y0032781D01*
X0108725Y0033153D01*
X0109388Y0033634D01*
X0109966Y0034212D01*
X0110447Y0034875D01*
X0110819Y0035604D01*
X0111072Y0036382D01*
X0111200Y0037191D01*
X0111200Y0037600D01*
X0110023Y0034290D02*
X0132122Y0034290D01*
X0129097Y0031091D02*
X0137503Y0031091D01*
X0135719Y0027893D02*
X0130600Y0027893D01*
X0130600Y0029588D02*
X0127788Y0032400D01*
X0123812Y0032400D01*
X0121000Y0029588D01*
X0121000Y0025612D01*
X0123812Y0022800D01*
X0127788Y0022800D01*
X0130600Y0025612D01*
X0130600Y0029588D01*
X0129683Y0024694D02*
X0132520Y0024694D01*
X0121917Y0024694D02*
X0104683Y0024694D01*
X0105600Y0025612D02*
X0102788Y0022800D01*
X0098812Y0022800D01*
X0096000Y0025612D01*
X0096000Y0029588D01*
X0098812Y0032400D01*
X0102788Y0032400D01*
X0105600Y0029588D01*
X0105600Y0025612D01*
X0105600Y0027893D02*
X0121000Y0027893D01*
X0122503Y0031091D02*
X0104097Y0031091D01*
X0100800Y0032400D02*
X0100800Y0037600D01*
X0100800Y0037600D01*
X0100800Y0037600D01*
X0095600Y0037600D01*
X0095600Y0038009D01*
X0095728Y0038818D01*
X0095981Y0039596D01*
X0096353Y0040325D01*
X0096834Y0040988D01*
X0097412Y0041566D01*
X0098075Y0042047D01*
X0098804Y0042419D01*
X0099582Y0042672D01*
X0100391Y0042800D01*
X0100800Y0042800D01*
X0100800Y0037600D01*
X0095600Y0037600D01*
X0095600Y0037191D01*
X0095728Y0036382D01*
X0095981Y0035604D01*
X0096353Y0034875D01*
X0096834Y0034212D01*
X0097412Y0033634D01*
X0098075Y0033153D01*
X0098804Y0032781D01*
X0099582Y0032528D01*
X0100391Y0032400D01*
X0100800Y0032400D01*
X0100800Y0034290D02*
X0100800Y0034290D01*
X0100800Y0037488D02*
X0100800Y0037488D01*
X0100800Y0040687D02*
X0100800Y0040687D01*
X0096615Y0040687D02*
X0083350Y0040687D01*
X0083350Y0043885D02*
X0097726Y0043885D01*
X0096000Y0047084D02*
X0083350Y0047084D01*
X0083350Y0050282D02*
X0096716Y0050282D01*
X0098201Y0053481D02*
X0083350Y0053481D01*
X0083350Y0056679D02*
X0096000Y0056679D01*
X0096548Y0059878D02*
X0083350Y0059878D01*
X0083350Y0063076D02*
X0113402Y0063076D01*
X0116601Y0066275D02*
X0083350Y0066275D01*
X0083350Y0069473D02*
X0119799Y0069473D01*
X0122998Y0072672D02*
X0083350Y0072672D01*
X0083350Y0075870D02*
X0126196Y0075870D01*
X0129395Y0079069D02*
X0083350Y0079069D01*
X0083350Y0082268D02*
X0132594Y0082268D01*
X0139550Y0083850D02*
X0103300Y0047600D01*
X0100800Y0047600D01*
X0095600Y0037488D02*
X0083350Y0037488D01*
X0086984Y0034290D02*
X0096777Y0034290D01*
X0097503Y0031091D02*
X0090183Y0031091D01*
X0093381Y0027893D02*
X0096000Y0027893D01*
X0096580Y0024694D02*
X0096917Y0024694D01*
X0092229Y0018297D02*
X0026400Y0018297D01*
X0026400Y0021496D02*
X0089030Y0021496D01*
X0085832Y0024694D02*
X0074683Y0024694D01*
X0070800Y0027600D02*
X0073300Y0030100D01*
X0075800Y0030100D01*
X0079550Y0033850D01*
X0074616Y0034290D02*
X0074278Y0034290D01*
X0075600Y0037488D02*
X0075750Y0037488D01*
X0075750Y0040687D02*
X0074501Y0040687D01*
X0073519Y0043531D02*
X0074869Y0044881D01*
X0075600Y0046645D01*
X0075600Y0048555D01*
X0074869Y0050319D01*
X0073519Y0051669D01*
X0071755Y0052400D01*
X0064645Y0052400D01*
X0062881Y0051669D01*
X0061531Y0050319D01*
X0060800Y0048555D01*
X0060800Y0046645D01*
X0061531Y0044881D01*
X0062881Y0043531D01*
X0064645Y0042800D01*
X0071755Y0042800D01*
X0073519Y0043531D01*
X0073874Y0043885D02*
X0075750Y0043885D01*
X0075750Y0047084D02*
X0075600Y0047084D01*
X0075750Y0050282D02*
X0074884Y0050282D01*
X0075750Y0053481D02*
X0073399Y0053481D01*
X0073519Y0053531D02*
X0074869Y0054881D01*
X0075600Y0056645D01*
X0075600Y0058555D01*
X0074869Y0060319D01*
X0073519Y0061669D01*
X0071755Y0062400D01*
X0064645Y0062400D01*
X0062881Y0061669D01*
X0061531Y0060319D01*
X0060800Y0058555D01*
X0060800Y0056645D01*
X0061531Y0054881D01*
X0062881Y0053531D01*
X0064645Y0052800D01*
X0071755Y0052800D01*
X0073519Y0053531D01*
X0075600Y0056679D02*
X0075750Y0056679D01*
X0075750Y0059878D02*
X0075052Y0059878D01*
X0075750Y0063076D02*
X0048823Y0063076D01*
X0051655Y0060244D02*
X0045850Y0066049D01*
X0045850Y0066275D01*
X0046183Y0066275D01*
X0048508Y0067238D01*
X0050287Y0069017D01*
X0051250Y0071342D01*
X0051250Y0073858D01*
X0050287Y0076183D01*
X0048508Y0077962D01*
X0046183Y0078925D01*
X0045850Y0078925D01*
X0045850Y0082276D01*
X0056374Y0092800D01*
X0057788Y0092800D01*
X0060600Y0095612D01*
X0060600Y0099588D01*
X0057788Y0102400D01*
X0053812Y0102400D01*
X0051000Y0099588D01*
X0051000Y0098174D01*
X0039897Y0087071D01*
X0038829Y0086003D01*
X0038250Y0084606D01*
X0038250Y0078925D01*
X0035417Y0078925D01*
X0033092Y0077962D01*
X0031313Y0076183D01*
X0030350Y0073858D01*
X0030350Y0071342D01*
X0031313Y0069017D01*
X0033092Y0067238D01*
X0035417Y0066275D01*
X0038250Y0066275D01*
X0038250Y0063719D01*
X0038829Y0062322D01*
X0039897Y0061254D01*
X0042226Y0058925D01*
X0035417Y0058925D01*
X0033092Y0057962D01*
X0031313Y0056183D01*
X0030350Y0053858D01*
X0030350Y0051342D01*
X0031313Y0049017D01*
X0033092Y0047238D01*
X0035417Y0046275D01*
X0046183Y0046275D01*
X0048508Y0047238D01*
X0050287Y0049017D01*
X0050828Y0050323D01*
X0051772Y0049379D01*
X0052000Y0049284D01*
X0052000Y0030588D01*
X0051000Y0029588D01*
X0051000Y0025612D01*
X0053812Y0022800D01*
X0057788Y0022800D01*
X0060600Y0025612D01*
X0060600Y0029588D01*
X0059600Y0030588D01*
X0059600Y0053356D01*
X0059232Y0054244D01*
X0060600Y0055612D01*
X0060600Y0059588D01*
X0057788Y0062400D01*
X0053812Y0062400D01*
X0051655Y0060244D01*
X0053925Y0052600D02*
X0042050Y0064475D01*
X0042050Y0072600D01*
X0040800Y0072600D01*
X0042050Y0073850D01*
X0042050Y0083850D01*
X0055800Y0097600D01*
X0058730Y0101459D02*
X0067870Y0101459D01*
X0064645Y0102800D02*
X0062881Y0103531D01*
X0061531Y0104881D01*
X0060800Y0106645D01*
X0060800Y0108555D01*
X0061531Y0110319D01*
X0062881Y0111669D01*
X0064645Y0112400D01*
X0071755Y0112400D01*
X0073519Y0111669D01*
X0074869Y0110319D01*
X0075600Y0108555D01*
X0075600Y0106645D01*
X0074869Y0104881D01*
X0073519Y0103531D01*
X0071755Y0102800D01*
X0064645Y0102800D01*
X0061755Y0104657D02*
X0051336Y0104657D01*
X0051307Y0104766D02*
X0050969Y0105581D01*
X0050529Y0106344D01*
X0049992Y0107044D01*
X0049369Y0107667D01*
X0048669Y0108204D01*
X0047906Y0108644D01*
X0047091Y0108982D01*
X0046240Y0109210D01*
X0045366Y0109325D01*
X0040800Y0109325D01*
X0040800Y0102600D01*
X0040800Y0102600D01*
X0051650Y0102600D01*
X0051650Y0103041D01*
X0051535Y0103915D01*
X0051307Y0104766D01*
X0051650Y0102600D02*
X0040800Y0102600D01*
X0040800Y0102600D01*
X0040800Y0095875D01*
X0045366Y0095875D01*
X0046240Y0095990D01*
X0047091Y0096218D01*
X0047906Y0096556D01*
X0048669Y0096996D01*
X0049369Y0097533D01*
X0049992Y0098156D01*
X0050529Y0098856D01*
X0050969Y0099619D01*
X0051307Y0100434D01*
X0051535Y0101285D01*
X0051650Y0102159D01*
X0051650Y0102600D01*
X0051558Y0101459D02*
X0052870Y0101459D01*
X0051000Y0098260D02*
X0050072Y0098260D01*
X0047888Y0095062D02*
X0026400Y0095062D01*
X0026400Y0098260D02*
X0031528Y0098260D01*
X0031608Y0098156D02*
X0032231Y0097533D01*
X0032931Y0096996D01*
X0033694Y0096556D01*
X0034509Y0096218D01*
X0035360Y0095990D01*
X0036234Y0095875D01*
X0040800Y0095875D01*
X0040800Y0102600D01*
X0040800Y0102600D01*
X0040800Y0102600D01*
X0029950Y0102600D01*
X0029950Y0103041D01*
X0030065Y0103915D01*
X0030293Y0104766D01*
X0030631Y0105581D01*
X0031071Y0106344D01*
X0031608Y0107044D01*
X0032231Y0107667D01*
X0032931Y0108204D01*
X0033694Y0108644D01*
X0034509Y0108982D01*
X0035360Y0109210D01*
X0036234Y0109325D01*
X0040800Y0109325D01*
X0040800Y0102600D01*
X0029950Y0102600D01*
X0029950Y0102159D01*
X0030065Y0101285D01*
X0030293Y0100434D01*
X0030631Y0099619D01*
X0031071Y0098856D01*
X0031608Y0098156D01*
X0030042Y0101459D02*
X0026400Y0101459D01*
X0026400Y0104657D02*
X0030264Y0104657D01*
X0032477Y0107856D02*
X0026400Y0107856D01*
X0026400Y0111054D02*
X0062266Y0111054D01*
X0062881Y0113531D02*
X0064645Y0112800D01*
X0071755Y0112800D01*
X0073519Y0113531D01*
X0074869Y0114881D01*
X0075600Y0116645D01*
X0075600Y0118555D01*
X0074869Y0120319D01*
X0073519Y0121669D01*
X0071755Y0122400D01*
X0064645Y0122400D01*
X0062881Y0121669D01*
X0061531Y0120319D01*
X0060800Y0118555D01*
X0060800Y0116645D01*
X0061531Y0114881D01*
X0062881Y0113531D01*
X0062159Y0114253D02*
X0026400Y0114253D01*
X0026400Y0117451D02*
X0032879Y0117451D01*
X0033092Y0117238D02*
X0035417Y0116275D01*
X0046183Y0116275D01*
X0048508Y0117238D01*
X0050287Y0119017D01*
X0051250Y0121342D01*
X0051250Y0123858D01*
X0050287Y0126183D01*
X0048508Y0127962D01*
X0046183Y0128925D01*
X0035417Y0128925D01*
X0033092Y0127962D01*
X0031313Y0126183D01*
X0030350Y0123858D01*
X0030350Y0121342D01*
X0031313Y0119017D01*
X0033092Y0117238D01*
X0030637Y0120650D02*
X0026400Y0120650D01*
X0026400Y0123848D02*
X0030350Y0123848D01*
X0032177Y0127047D02*
X0026400Y0127047D01*
X0026400Y0130245D02*
X0051657Y0130245D01*
X0051000Y0129588D02*
X0051000Y0125612D01*
X0053812Y0122800D01*
X0057788Y0122800D01*
X0060600Y0125612D01*
X0060600Y0129588D01*
X0057788Y0132400D01*
X0053812Y0132400D01*
X0051000Y0129588D01*
X0051000Y0127047D02*
X0049423Y0127047D01*
X0051250Y0123848D02*
X0052764Y0123848D01*
X0050963Y0120650D02*
X0061861Y0120650D01*
X0062881Y0123531D02*
X0064645Y0122800D01*
X0071755Y0122800D01*
X0073519Y0123531D01*
X0074869Y0124881D01*
X0075600Y0126645D01*
X0075600Y0128555D01*
X0074869Y0130319D01*
X0073519Y0131669D01*
X0071755Y0132400D01*
X0064645Y0132400D01*
X0062881Y0131669D01*
X0061531Y0130319D01*
X0060800Y0128555D01*
X0060800Y0126645D01*
X0061531Y0124881D01*
X0062881Y0123531D01*
X0062564Y0123848D02*
X0058836Y0123848D01*
X0060600Y0127047D02*
X0060800Y0127047D01*
X0061500Y0130245D02*
X0059943Y0130245D01*
X0050287Y0139017D02*
X0051250Y0141342D01*
X0051250Y0143858D01*
X0050287Y0146183D01*
X0048508Y0147962D01*
X0046183Y0148925D01*
X0035417Y0148925D01*
X0033092Y0147962D01*
X0031313Y0146183D01*
X0030350Y0143858D01*
X0030350Y0141342D01*
X0031313Y0139017D01*
X0033092Y0137238D01*
X0035417Y0136275D01*
X0046183Y0136275D01*
X0048508Y0137238D01*
X0050287Y0139017D01*
X0050628Y0139841D02*
X0075750Y0139841D01*
X0075750Y0143039D02*
X0051250Y0143039D01*
X0050232Y0146238D02*
X0075750Y0146238D01*
X0075750Y0149436D02*
X0026400Y0149436D01*
X0026400Y0146238D02*
X0031368Y0146238D01*
X0030350Y0143039D02*
X0026400Y0143039D01*
X0026400Y0139841D02*
X0030972Y0139841D01*
X0034530Y0136642D02*
X0026400Y0136642D01*
X0026400Y0133444D02*
X0075750Y0133444D01*
X0075750Y0136642D02*
X0047070Y0136642D01*
X0048721Y0117451D02*
X0060800Y0117451D01*
X0060800Y0107856D02*
X0049123Y0107856D01*
X0040800Y0107856D02*
X0040800Y0107856D01*
X0040800Y0104657D02*
X0040800Y0104657D01*
X0040800Y0101459D02*
X0040800Y0101459D01*
X0040800Y0098260D02*
X0040800Y0098260D01*
X0044689Y0091863D02*
X0026400Y0091863D01*
X0026400Y0088665D02*
X0041491Y0088665D01*
X0038606Y0085466D02*
X0026400Y0085466D01*
X0026400Y0082268D02*
X0038250Y0082268D01*
X0038250Y0079069D02*
X0026400Y0079069D01*
X0026400Y0075870D02*
X0031184Y0075870D01*
X0030350Y0072672D02*
X0026400Y0072672D01*
X0026400Y0069473D02*
X0031124Y0069473D01*
X0026400Y0066275D02*
X0038250Y0066275D01*
X0038516Y0063076D02*
X0026400Y0063076D01*
X0026400Y0059878D02*
X0041273Y0059878D01*
X0045850Y0066275D02*
X0075750Y0066275D01*
X0075750Y0069473D02*
X0050476Y0069473D01*
X0051250Y0072672D02*
X0075750Y0072672D01*
X0075750Y0075870D02*
X0050416Y0075870D01*
X0045850Y0079069D02*
X0075750Y0079069D01*
X0075750Y0082268D02*
X0045850Y0082268D01*
X0049040Y0085466D02*
X0075750Y0085466D01*
X0075750Y0088665D02*
X0052239Y0088665D01*
X0055437Y0091863D02*
X0075750Y0091863D01*
X0079550Y0088850D02*
X0079550Y0097600D01*
X0079550Y0158850D01*
X0070800Y0167600D01*
X0075600Y0168627D02*
X0096000Y0168627D01*
X0096000Y0169588D02*
X0096000Y0165612D01*
X0098812Y0162800D01*
X0102788Y0162800D01*
X0105600Y0165612D01*
X0105600Y0169588D01*
X0102788Y0172400D01*
X0098812Y0172400D01*
X0096000Y0169588D01*
X0098238Y0171826D02*
X0073362Y0171826D01*
X0073519Y0173531D02*
X0074869Y0174881D01*
X0075600Y0176645D01*
X0075600Y0178555D01*
X0074869Y0180319D01*
X0073519Y0181669D01*
X0071755Y0182400D01*
X0064645Y0182400D01*
X0062881Y0181669D01*
X0061531Y0180319D01*
X0060800Y0178555D01*
X0060800Y0176645D01*
X0061531Y0174881D01*
X0062881Y0173531D01*
X0064645Y0172800D01*
X0071755Y0172800D01*
X0073519Y0173531D01*
X0074929Y0175024D02*
X0096276Y0175024D01*
X0096353Y0174875D02*
X0096834Y0174212D01*
X0097412Y0173634D01*
X0098075Y0173153D01*
X0098804Y0172781D01*
X0099582Y0172528D01*
X0100391Y0172400D01*
X0100800Y0172400D01*
X0106409Y0172400D01*
X0107218Y0172528D01*
X0107996Y0172781D01*
X0108725Y0173153D01*
X0109388Y0173634D01*
X0109966Y0174212D01*
X0110447Y0174875D01*
X0110819Y0175604D01*
X0111072Y0176382D01*
X0111200Y0177191D01*
X0111200Y0177600D01*
X0111200Y0178009D01*
X0111072Y0178818D01*
X0110819Y0179596D01*
X0110447Y0180325D01*
X0109966Y0180988D01*
X0109388Y0181566D01*
X0108725Y0182047D01*
X0107996Y0182419D01*
X0107218Y0182672D01*
X0106409Y0182800D01*
X0100800Y0182800D01*
X0100800Y0177600D01*
X0100800Y0177600D01*
X0111200Y0177600D01*
X0100800Y0177600D01*
X0100800Y0177600D01*
X0100800Y0172400D01*
X0100800Y0177600D01*
X0100800Y0177600D01*
X0100800Y0177600D01*
X0095600Y0177600D01*
X0095600Y0178009D01*
X0095728Y0178818D01*
X0095981Y0179596D01*
X0096353Y0180325D01*
X0096834Y0180988D01*
X0097412Y0181566D01*
X0098075Y0182047D01*
X0098804Y0182419D01*
X0099582Y0182672D01*
X0100391Y0182800D01*
X0100800Y0182800D01*
X0100800Y0177600D01*
X0095600Y0177600D01*
X0095600Y0177191D01*
X0095728Y0176382D01*
X0095981Y0175604D01*
X0096353Y0174875D01*
X0095634Y0178223D02*
X0075600Y0178223D01*
X0073767Y0181421D02*
X0097267Y0181421D01*
X0098081Y0183531D02*
X0099845Y0182800D01*
X0106955Y0182800D01*
X0108719Y0183531D01*
X0110069Y0184881D01*
X0110800Y0186645D01*
X0110800Y0188555D01*
X0110069Y0190319D01*
X0108719Y0191669D01*
X0106955Y0192400D01*
X0099845Y0192400D01*
X0098081Y0191669D01*
X0096731Y0190319D01*
X0096000Y0188555D01*
X0096000Y0186645D01*
X0096731Y0184881D01*
X0098081Y0183531D01*
X0096992Y0184620D02*
X0074608Y0184620D01*
X0074869Y0184881D02*
X0075600Y0186645D01*
X0075600Y0188555D01*
X0074869Y0190319D01*
X0073519Y0191669D01*
X0071755Y0192400D01*
X0064645Y0192400D01*
X0062881Y0191669D01*
X0061531Y0190319D01*
X0060800Y0188555D01*
X0060800Y0186645D01*
X0061531Y0184881D01*
X0062881Y0183531D01*
X0064645Y0182800D01*
X0071755Y0182800D01*
X0073519Y0183531D01*
X0074869Y0184881D01*
X0075600Y0187818D02*
X0096000Y0187818D01*
X0097429Y0191017D02*
X0074171Y0191017D01*
X0073519Y0193531D02*
X0071755Y0192800D01*
X0064645Y0192800D01*
X0062881Y0193531D01*
X0061531Y0194881D01*
X0060800Y0196645D01*
X0060800Y0198555D01*
X0061531Y0200319D01*
X0062881Y0201669D01*
X0064645Y0202400D01*
X0071755Y0202400D01*
X0073519Y0201669D01*
X0074869Y0200319D01*
X0075600Y0198555D01*
X0075600Y0196645D01*
X0074869Y0194881D01*
X0073519Y0193531D01*
X0074204Y0194215D02*
X0097396Y0194215D01*
X0096731Y0194881D02*
X0098081Y0193531D01*
X0099845Y0192800D01*
X0106955Y0192800D01*
X0108719Y0193531D01*
X0110069Y0194881D01*
X0110800Y0196645D01*
X0110800Y0198555D01*
X0110069Y0200319D01*
X0108719Y0201669D01*
X0106955Y0202400D01*
X0099845Y0202400D01*
X0098081Y0201669D01*
X0096731Y0200319D01*
X0096000Y0198555D01*
X0096000Y0196645D01*
X0096731Y0194881D01*
X0096000Y0197414D02*
X0075600Y0197414D01*
X0074576Y0200612D02*
X0097024Y0200612D01*
X0109776Y0200612D02*
X0147000Y0200612D01*
X0147000Y0197414D02*
X0110800Y0197414D01*
X0109404Y0194215D02*
X0147000Y0194215D01*
X0147000Y0191017D02*
X0109371Y0191017D01*
X0110800Y0187818D02*
X0147000Y0187818D01*
X0147000Y0184620D02*
X0109808Y0184620D01*
X0109533Y0181421D02*
X0147000Y0181421D01*
X0147000Y0178223D02*
X0111166Y0178223D01*
X0110524Y0175024D02*
X0147000Y0175024D01*
X0147000Y0171826D02*
X0103362Y0171826D01*
X0105600Y0168627D02*
X0147000Y0168627D01*
X0147000Y0165429D02*
X0105417Y0165429D01*
X0096183Y0165429D02*
X0078345Y0165429D01*
X0081544Y0162230D02*
X0147000Y0162230D01*
X0147000Y0159032D02*
X0083350Y0159032D01*
X0083350Y0155833D02*
X0147000Y0155833D01*
X0147000Y0152635D02*
X0083350Y0152635D01*
X0083350Y0149436D02*
X0147000Y0149436D01*
X0147000Y0146238D02*
X0083350Y0146238D01*
X0083350Y0143039D02*
X0147000Y0143039D01*
X0147000Y0139841D02*
X0083350Y0139841D01*
X0083350Y0136642D02*
X0147000Y0136642D01*
X0147000Y0133444D02*
X0083350Y0133444D01*
X0083350Y0130245D02*
X0096700Y0130245D01*
X0096000Y0127047D02*
X0083350Y0127047D01*
X0075750Y0127047D02*
X0075600Y0127047D01*
X0075750Y0130245D02*
X0074900Y0130245D01*
X0075750Y0123848D02*
X0073836Y0123848D01*
X0074539Y0120650D02*
X0075750Y0120650D01*
X0075750Y0117451D02*
X0075600Y0117451D01*
X0075750Y0114253D02*
X0074241Y0114253D01*
X0074134Y0111054D02*
X0075750Y0111054D01*
X0075750Y0107856D02*
X0075600Y0107856D01*
X0075750Y0104657D02*
X0074645Y0104657D01*
X0073730Y0101459D02*
X0075750Y0101459D01*
X0079550Y0097600D02*
X0070800Y0097600D01*
X0066000Y0098260D02*
X0060600Y0098260D01*
X0060050Y0095062D02*
X0066550Y0095062D01*
X0083350Y0095062D02*
X0096550Y0095062D01*
X0096000Y0098260D02*
X0083350Y0098260D01*
X0061348Y0059878D02*
X0060310Y0059878D01*
X0060600Y0056679D02*
X0060800Y0056679D01*
X0059548Y0053481D02*
X0063001Y0053481D01*
X0061516Y0050282D02*
X0059600Y0050282D01*
X0059600Y0047084D02*
X0060800Y0047084D01*
X0059600Y0043885D02*
X0062526Y0043885D01*
X0061899Y0040687D02*
X0059600Y0040687D01*
X0059600Y0037488D02*
X0060800Y0037488D01*
X0059600Y0034290D02*
X0062122Y0034290D01*
X0059600Y0031091D02*
X0067503Y0031091D01*
X0066000Y0027893D02*
X0060600Y0027893D01*
X0059683Y0024694D02*
X0066917Y0024694D01*
X0055800Y0027600D02*
X0055800Y0052600D01*
X0053925Y0052600D01*
X0050869Y0050282D02*
X0050811Y0050282D01*
X0052000Y0047084D02*
X0048136Y0047084D01*
X0052000Y0043885D02*
X0026400Y0043885D01*
X0026400Y0040687D02*
X0052000Y0040687D01*
X0052000Y0037488D02*
X0049547Y0037488D01*
X0049369Y0037667D02*
X0048669Y0038204D01*
X0047906Y0038644D01*
X0047091Y0038982D01*
X0046240Y0039210D01*
X0045366Y0039325D01*
X0040800Y0039325D01*
X0040800Y0032600D01*
X0040800Y0032600D01*
X0051650Y0032600D01*
X0051650Y0033041D01*
X0051535Y0033915D01*
X0051307Y0034766D01*
X0050969Y0035581D01*
X0050529Y0036344D01*
X0049992Y0037044D01*
X0049369Y0037667D01*
X0051434Y0034290D02*
X0052000Y0034290D01*
X0051650Y0032600D02*
X0040800Y0032600D01*
X0040800Y0032600D01*
X0040800Y0025875D01*
X0045366Y0025875D01*
X0046240Y0025990D01*
X0047091Y0026218D01*
X0047906Y0026556D01*
X0048669Y0026996D01*
X0049369Y0027533D01*
X0049992Y0028156D01*
X0050529Y0028856D01*
X0050969Y0029619D01*
X0051307Y0030434D01*
X0051535Y0031285D01*
X0051650Y0032159D01*
X0051650Y0032600D01*
X0051483Y0031091D02*
X0052000Y0031091D01*
X0051000Y0027893D02*
X0049728Y0027893D01*
X0051917Y0024694D02*
X0026400Y0024694D01*
X0026400Y0027893D02*
X0031872Y0027893D01*
X0031608Y0028156D02*
X0032231Y0027533D01*
X0032931Y0026996D01*
X0033694Y0026556D01*
X0034509Y0026218D01*
X0035360Y0025990D01*
X0036234Y0025875D01*
X0040800Y0025875D01*
X0040800Y0032600D01*
X0040800Y0032600D01*
X0040800Y0032600D01*
X0029950Y0032600D01*
X0029950Y0033041D01*
X0030065Y0033915D01*
X0030293Y0034766D01*
X0030631Y0035581D01*
X0031071Y0036344D01*
X0031608Y0037044D01*
X0032231Y0037667D01*
X0032931Y0038204D01*
X0033694Y0038644D01*
X0034509Y0038982D01*
X0035360Y0039210D01*
X0036234Y0039325D01*
X0040800Y0039325D01*
X0040800Y0032600D01*
X0029950Y0032600D01*
X0029950Y0032159D01*
X0030065Y0031285D01*
X0030293Y0030434D01*
X0030631Y0029619D01*
X0031071Y0028856D01*
X0031608Y0028156D01*
X0030117Y0031091D02*
X0026400Y0031091D01*
X0026400Y0034290D02*
X0030166Y0034290D01*
X0032053Y0037488D02*
X0026400Y0037488D01*
X0026400Y0047084D02*
X0033464Y0047084D01*
X0030789Y0050282D02*
X0026400Y0050282D01*
X0026400Y0053481D02*
X0030350Y0053481D01*
X0031810Y0056679D02*
X0026400Y0056679D01*
X0040800Y0037488D02*
X0040800Y0037488D01*
X0040800Y0034290D02*
X0040800Y0034290D01*
X0040800Y0031091D02*
X0040800Y0031091D01*
X0040800Y0027893D02*
X0040800Y0027893D01*
X0078967Y0027893D02*
X0082633Y0027893D01*
X0130310Y0059878D02*
X0131348Y0059878D01*
X0130800Y0056679D02*
X0130600Y0056679D01*
X0143399Y0053481D02*
X0148807Y0053481D01*
X0152005Y0056679D02*
X0145600Y0056679D01*
X0145052Y0059878D02*
X0155204Y0059878D01*
X0159555Y0053481D02*
X0168201Y0053481D01*
X0168081Y0053531D02*
X0169845Y0052800D01*
X0176955Y0052800D01*
X0178719Y0053531D01*
X0180069Y0054881D01*
X0180800Y0056645D01*
X0180800Y0058555D01*
X0180069Y0060319D01*
X0178719Y0061669D01*
X0176955Y0062400D01*
X0169845Y0062400D01*
X0168081Y0061669D01*
X0166731Y0060319D01*
X0166000Y0058555D01*
X0166000Y0056645D01*
X0166731Y0054881D01*
X0168081Y0053531D01*
X0166716Y0050282D02*
X0156356Y0050282D01*
X0149550Y0048850D02*
X0142050Y0048850D01*
X0140800Y0047600D01*
X0162753Y0056679D02*
X0166000Y0056679D01*
X0165952Y0059878D02*
X0166548Y0059878D01*
X0169150Y0063076D02*
X0188402Y0063076D01*
X0185204Y0059878D02*
X0180252Y0059878D01*
X0180800Y0056679D02*
X0182005Y0056679D01*
X0178807Y0053481D02*
X0178599Y0053481D01*
X0183158Y0047084D02*
X0196000Y0047084D01*
X0196000Y0045612D02*
X0198812Y0042800D01*
X0202788Y0042800D01*
X0205600Y0045612D01*
X0205600Y0049588D01*
X0202788Y0052400D01*
X0198812Y0052400D01*
X0196000Y0049588D01*
X0196000Y0045612D01*
X0197726Y0043885D02*
X0179262Y0043885D01*
X0180185Y0040687D02*
X0211533Y0040687D01*
X0210600Y0039754D02*
X0213646Y0042800D01*
X0215800Y0042800D01*
X0217954Y0042800D01*
X0221000Y0039754D01*
X0221000Y0037600D01*
X0215800Y0037600D01*
X0215800Y0037600D01*
X0215800Y0037600D01*
X0215800Y0042800D01*
X0215800Y0037600D01*
X0221000Y0037600D01*
X0221000Y0035446D01*
X0217954Y0032400D01*
X0215800Y0032400D01*
X0215800Y0037600D01*
X0215800Y0037600D01*
X0215800Y0037600D01*
X0210600Y0037600D01*
X0210600Y0039754D01*
X0210600Y0037600D02*
X0210600Y0035446D01*
X0213646Y0032400D01*
X0215800Y0032400D01*
X0215800Y0037600D01*
X0210600Y0037600D01*
X0210600Y0037488D02*
X0181200Y0037488D01*
X0180023Y0034290D02*
X0211756Y0034290D01*
X0215800Y0034290D02*
X0215800Y0034290D01*
X0215800Y0037488D02*
X0215800Y0037488D01*
X0215800Y0040687D02*
X0215800Y0040687D01*
X0216755Y0042800D02*
X0218519Y0043531D01*
X0219869Y0044881D01*
X0220600Y0046645D01*
X0220600Y0048555D01*
X0219869Y0050319D01*
X0218519Y0051669D01*
X0216755Y0052400D01*
X0209645Y0052400D01*
X0207881Y0051669D01*
X0206531Y0050319D01*
X0205800Y0048555D01*
X0205800Y0046645D01*
X0206531Y0044881D01*
X0207881Y0043531D01*
X0209645Y0042800D01*
X0216755Y0042800D01*
X0218874Y0043885D02*
X0232625Y0043885D01*
X0232625Y0040687D02*
X0220067Y0040687D01*
X0221000Y0037488D02*
X0232625Y0037488D01*
X0232625Y0034290D02*
X0219844Y0034290D01*
X0215800Y0024694D02*
X0215800Y0024694D01*
X0234435Y0031091D02*
X0174097Y0031091D01*
X0175600Y0027893D02*
X0237633Y0027893D01*
X0242050Y0028850D02*
X0248925Y0028850D01*
X0259550Y0018225D01*
X0273925Y0018225D01*
X0278300Y0022600D01*
X0322675Y0022600D01*
X0327050Y0018225D01*
X0346425Y0018225D01*
X0346425Y0024475D01*
X0349550Y0027600D01*
X0354150Y0027893D02*
X0368901Y0027893D01*
X0368901Y0031091D02*
X0352564Y0031091D01*
X0346536Y0031091D02*
X0342321Y0031091D01*
X0342321Y0029600D02*
X0342321Y0034777D01*
X0342221Y0035280D01*
X0342025Y0035753D01*
X0341741Y0036179D01*
X0341379Y0036541D01*
X0340953Y0036825D01*
X0340480Y0037021D01*
X0339977Y0037121D01*
X0334800Y0037121D01*
X0329623Y0037121D01*
X0329120Y0037021D01*
X0328647Y0036825D01*
X0328221Y0036541D01*
X0327859Y0036179D01*
X0327575Y0035753D01*
X0327379Y0035280D01*
X0327279Y0034777D01*
X0327279Y0029600D01*
X0327279Y0024423D01*
X0327379Y0023920D01*
X0327575Y0023447D01*
X0327859Y0023021D01*
X0328221Y0022659D01*
X0328647Y0022375D01*
X0329120Y0022179D01*
X0329623Y0022079D01*
X0334800Y0022079D01*
X0339977Y0022079D01*
X0340480Y0022179D01*
X0340953Y0022375D01*
X0341379Y0022659D01*
X0341741Y0023021D01*
X0342025Y0023447D01*
X0342221Y0023920D01*
X0342321Y0024423D01*
X0342321Y0029600D01*
X0334800Y0029600D01*
X0334800Y0029600D01*
X0334800Y0037121D01*
X0334800Y0029600D01*
X0334800Y0029600D01*
X0342321Y0029600D01*
X0342321Y0027893D02*
X0344469Y0027893D01*
X0342625Y0024694D02*
X0342321Y0024694D01*
X0334800Y0024694D02*
X0334800Y0024694D01*
X0334800Y0022079D02*
X0334800Y0029600D01*
X0334800Y0029600D01*
X0334800Y0029600D01*
X0327279Y0029600D01*
X0334800Y0029600D01*
X0334800Y0022079D01*
X0334800Y0027893D02*
X0334800Y0027893D01*
X0334800Y0031091D02*
X0334800Y0031091D01*
X0334800Y0034290D02*
X0334800Y0034290D01*
X0342321Y0034290D02*
X0368901Y0034290D01*
X0368901Y0037488D02*
X0324600Y0037488D01*
X0324600Y0034290D02*
X0327279Y0034290D01*
X0327279Y0031091D02*
X0323415Y0031091D01*
X0320217Y0027893D02*
X0327279Y0027893D01*
X0327279Y0024694D02*
X0325955Y0024694D01*
X0350225Y0021496D02*
X0368901Y0021496D01*
X0368901Y0024694D02*
X0353150Y0024694D01*
X0350225Y0018297D02*
X0368901Y0018297D01*
X0368901Y0079069D02*
X0325225Y0079069D01*
X0325225Y0082268D02*
X0368901Y0082268D01*
X0368901Y0085466D02*
X0325225Y0085466D01*
X0325225Y0088665D02*
X0368901Y0088665D01*
X0368901Y0091863D02*
X0342603Y0091863D01*
X0345720Y0095062D02*
X0368901Y0095062D01*
X0368901Y0098260D02*
X0346250Y0098260D01*
X0345033Y0101459D02*
X0368901Y0101459D01*
X0368901Y0104657D02*
X0348231Y0104657D01*
X0350175Y0111975D02*
X0335800Y0097600D01*
X0337483Y0104657D02*
X0328231Y0104657D01*
X0326589Y0101459D02*
X0325225Y0101459D01*
X0325225Y0098260D02*
X0325350Y0098260D01*
X0325225Y0095062D02*
X0325880Y0095062D01*
X0325225Y0091863D02*
X0328997Y0091863D01*
X0331430Y0107856D02*
X0340682Y0107856D01*
X0353975Y0127047D02*
X0368901Y0127047D01*
X0368901Y0130245D02*
X0353975Y0130245D01*
X0353975Y0133444D02*
X0368901Y0133444D01*
X0368901Y0136642D02*
X0353975Y0136642D01*
X0353975Y0139841D02*
X0368901Y0139841D01*
X0368901Y0143039D02*
X0353975Y0143039D01*
X0353975Y0146238D02*
X0368901Y0146238D01*
X0368901Y0149436D02*
X0353975Y0149436D01*
X0353975Y0152635D02*
X0368901Y0152635D01*
X0368901Y0155833D02*
X0353975Y0155833D01*
X0353975Y0159032D02*
X0368901Y0159032D01*
X0368901Y0162230D02*
X0353975Y0162230D01*
X0353975Y0165429D02*
X0368901Y0165429D01*
X0368901Y0168627D02*
X0353975Y0168627D01*
X0353975Y0171826D02*
X0368901Y0171826D01*
X0368901Y0175024D02*
X0353975Y0175024D01*
X0353975Y0178223D02*
X0368901Y0178223D01*
X0368901Y0181421D02*
X0353975Y0181421D01*
X0353975Y0184620D02*
X0368901Y0184620D01*
X0368901Y0187818D02*
X0353975Y0187818D01*
X0353975Y0191017D02*
X0368901Y0191017D01*
X0368901Y0194215D02*
X0353975Y0194215D01*
X0353975Y0197414D02*
X0368901Y0197414D01*
X0368901Y0200612D02*
X0353975Y0200612D01*
X0353975Y0203811D02*
X0368901Y0203811D01*
X0368901Y0207009D02*
X0353975Y0207009D01*
X0353975Y0210208D02*
X0368901Y0210208D01*
X0368901Y0213406D02*
X0353975Y0213406D01*
X0353975Y0216605D02*
X0368901Y0216605D01*
X0368901Y0219803D02*
X0353975Y0219803D01*
X0353975Y0223002D02*
X0368901Y0223002D01*
X0368901Y0226201D02*
X0353975Y0226201D01*
X0353975Y0229399D02*
X0368901Y0229399D01*
X0368901Y0232598D02*
X0353975Y0232598D01*
X0353975Y0235796D02*
X0368901Y0235796D01*
X0368901Y0238995D02*
X0353983Y0238995D01*
X0355600Y0242193D02*
X0368901Y0242193D01*
X0368901Y0245392D02*
X0354797Y0245392D01*
X0360113Y0254987D02*
X0361625Y0254987D01*
X0361000Y0258186D02*
X0360800Y0258186D01*
X0359004Y0261384D02*
X0362796Y0261384D01*
X0359771Y0264583D02*
X0368901Y0264583D01*
X0368901Y0267781D02*
X0360800Y0267781D01*
X0359409Y0270980D02*
X0368901Y0270980D01*
X0368901Y0274178D02*
X0359366Y0274178D01*
X0360800Y0277377D02*
X0368901Y0277377D01*
X0368901Y0280575D02*
X0359813Y0280575D01*
X0365800Y0287600D02*
X0359550Y0293850D01*
X0363350Y0296568D02*
X0368901Y0296568D01*
X0368901Y0299766D02*
X0363350Y0299766D01*
X0363350Y0302965D02*
X0368901Y0302965D01*
X0368901Y0306163D02*
X0362611Y0306163D01*
X0362250Y0309362D02*
X0359550Y0309362D01*
X0360800Y0312560D02*
X0361000Y0312560D01*
X0362171Y0315759D02*
X0359629Y0315759D01*
X0359146Y0318957D02*
X0368901Y0318957D01*
X0368901Y0322156D02*
X0360800Y0322156D01*
X0360034Y0325354D02*
X0368901Y0325354D01*
X0368901Y0328553D02*
X0358741Y0328553D01*
X0360800Y0331751D02*
X0368901Y0331751D01*
X0368901Y0334950D02*
X0360222Y0334950D01*
X0368137Y0338148D02*
X0368901Y0338148D01*
X0346578Y0334950D02*
X0325439Y0334950D01*
X0325930Y0331751D02*
X0346000Y0331751D01*
X0345850Y0293369D02*
X0348243Y0293369D01*
X0365405Y0293369D02*
X0368901Y0293369D01*
X0368901Y0283774D02*
X0368762Y0283774D01*
X0368804Y0261384D02*
X0368901Y0261384D01*
X0342634Y0245392D02*
X0342091Y0245392D01*
X0300800Y0207600D02*
X0300175Y0206975D01*
X0220800Y0206975D01*
X0217528Y0210208D02*
X0216833Y0210208D01*
X0212675Y0208225D02*
X0218925Y0201975D01*
X0268925Y0201975D01*
X0288300Y0182600D01*
X0292442Y0184620D02*
X0295248Y0184620D01*
X0294500Y0187818D02*
X0288456Y0187818D01*
X0285257Y0191017D02*
X0295495Y0191017D01*
X0295841Y0194215D02*
X0282059Y0194215D01*
X0278860Y0197414D02*
X0294900Y0197414D01*
X0295662Y0200612D02*
X0275662Y0200612D01*
X0271311Y0194215D02*
X0250184Y0194215D01*
X0247675Y0191350D02*
X0212675Y0191350D01*
X0211032Y0184620D02*
X0208194Y0184620D01*
X0205600Y0181421D02*
X0211000Y0181421D01*
X0213389Y0178223D02*
X0203211Y0178223D01*
X0203843Y0191017D02*
X0195850Y0191017D01*
X0195850Y0194215D02*
X0203875Y0194215D01*
X0203875Y0197414D02*
X0195850Y0197414D01*
X0195850Y0200612D02*
X0203875Y0200612D01*
X0203875Y0203811D02*
X0195850Y0203811D01*
X0195850Y0207009D02*
X0203875Y0207009D01*
X0203875Y0210208D02*
X0195850Y0210208D01*
X0195850Y0213406D02*
X0203875Y0213406D01*
X0203875Y0216605D02*
X0195850Y0216605D01*
X0201220Y0219803D02*
X0203875Y0219803D01*
X0207900Y0226201D02*
X0221622Y0226201D01*
X0221223Y0229399D02*
X0211098Y0229399D01*
X0206747Y0235796D02*
X0199958Y0235796D01*
X0201000Y0232598D02*
X0203549Y0232598D01*
X0200350Y0229399D02*
X0199953Y0229399D01*
X0195800Y0229399D02*
X0195800Y0229399D01*
X0195800Y0232598D02*
X0195800Y0232598D01*
X0195800Y0235796D02*
X0195800Y0235796D01*
X0185800Y0232600D02*
X0185800Y0243850D01*
X0169325Y0226201D02*
X0154600Y0226201D01*
X0150800Y0233225D02*
X0150800Y0127600D01*
X0146200Y0127047D02*
X0145600Y0127047D01*
X0144900Y0130245D02*
X0146940Y0130245D01*
X0148046Y0123848D02*
X0143836Y0123848D01*
X0154660Y0130245D02*
X0154946Y0130245D01*
X0154600Y0133444D02*
X0158145Y0133444D01*
X0161343Y0136642D02*
X0154600Y0136642D01*
X0154600Y0139841D02*
X0164542Y0139841D01*
X0167740Y0143039D02*
X0154600Y0143039D01*
X0154600Y0146238D02*
X0170939Y0146238D01*
X0174137Y0149436D02*
X0154600Y0149436D01*
X0154600Y0152635D02*
X0176978Y0152635D01*
X0181687Y0146238D02*
X0182625Y0146238D01*
X0186425Y0146975D02*
X0200800Y0132600D01*
X0205600Y0133444D02*
X0213168Y0133444D01*
X0211000Y0136642D02*
X0203546Y0136642D01*
X0198933Y0139841D02*
X0211253Y0139841D01*
X0215800Y0137600D02*
X0224550Y0137600D01*
X0225800Y0138225D01*
X0228925Y0138225D01*
X0229550Y0138850D01*
X0230800Y0138225D01*
X0237675Y0131350D01*
X0284550Y0131350D01*
X0300800Y0147600D01*
X0300800Y0157600D02*
X0279550Y0136350D01*
X0278925Y0136350D01*
X0285306Y0127550D02*
X0286703Y0128129D01*
X0287771Y0129197D01*
X0294929Y0136355D01*
X0295798Y0134258D01*
X0297456Y0132600D01*
X0295798Y0130942D01*
X0294900Y0128774D01*
X0294900Y0126426D01*
X0295798Y0124258D01*
X0297456Y0122600D01*
X0295798Y0120942D01*
X0295729Y0120775D01*
X0295044Y0120775D01*
X0293647Y0120196D01*
X0292579Y0119128D01*
X0270476Y0097025D01*
X0243169Y0097025D01*
X0241772Y0096446D01*
X0240704Y0095378D01*
X0225476Y0080150D01*
X0220138Y0080150D01*
X0220600Y0080612D01*
X0220600Y0082026D01*
X0226703Y0088129D01*
X0227771Y0089197D01*
X0228350Y0090594D01*
X0228350Y0134368D01*
X0228635Y0134250D01*
X0229401Y0134250D01*
X0235522Y0128129D01*
X0236919Y0127550D01*
X0285306Y0127550D01*
X0288819Y0130245D02*
X0295510Y0130245D01*
X0294900Y0127047D02*
X0252808Y0127047D01*
X0251955Y0127400D02*
X0253719Y0126669D01*
X0255069Y0125319D01*
X0255800Y0123555D01*
X0255800Y0121645D01*
X0255069Y0119881D01*
X0253719Y0118531D01*
X0251955Y0117800D01*
X0244845Y0117800D01*
X0243081Y0118531D01*
X0241731Y0119881D01*
X0241000Y0121645D01*
X0241000Y0123555D01*
X0241731Y0125319D01*
X0243081Y0126669D01*
X0244845Y0127400D01*
X0251955Y0127400D01*
X0255678Y0123848D02*
X0296208Y0123848D01*
X0294742Y0120650D02*
X0255388Y0120650D01*
X0253719Y0116669D02*
X0251955Y0117400D01*
X0244845Y0117400D01*
X0243081Y0116669D01*
X0241731Y0115319D01*
X0241000Y0113555D01*
X0241000Y0111645D01*
X0241731Y0109881D01*
X0243081Y0108531D01*
X0244845Y0107800D01*
X0251955Y0107800D01*
X0253719Y0108531D01*
X0255069Y0109881D01*
X0255800Y0111645D01*
X0255800Y0113555D01*
X0255069Y0115319D01*
X0253719Y0116669D01*
X0255511Y0114253D02*
X0287704Y0114253D01*
X0290902Y0117451D02*
X0228350Y0117451D01*
X0228350Y0114253D02*
X0241289Y0114253D01*
X0241245Y0111054D02*
X0228350Y0111054D01*
X0228350Y0107856D02*
X0244711Y0107856D01*
X0244582Y0107672D02*
X0243804Y0107419D01*
X0243075Y0107047D01*
X0242412Y0106566D01*
X0241834Y0105988D01*
X0241353Y0105325D01*
X0240981Y0104596D01*
X0240728Y0103818D01*
X0240600Y0103009D01*
X0240600Y0102600D01*
X0245800Y0102600D01*
X0245800Y0102600D01*
X0245800Y0107800D01*
X0251409Y0107800D01*
X0252218Y0107672D01*
X0252996Y0107419D01*
X0253725Y0107047D01*
X0254388Y0106566D01*
X0254966Y0105988D01*
X0255447Y0105325D01*
X0255819Y0104596D01*
X0256072Y0103818D01*
X0256200Y0103009D01*
X0256200Y0102600D01*
X0245800Y0102600D01*
X0245800Y0102600D01*
X0245800Y0097400D01*
X0251409Y0097400D01*
X0252218Y0097528D01*
X0252996Y0097781D01*
X0253725Y0098153D01*
X0254388Y0098634D01*
X0254966Y0099212D01*
X0255447Y0099875D01*
X0255819Y0100604D01*
X0256072Y0101382D01*
X0256200Y0102191D01*
X0256200Y0102600D01*
X0245800Y0102600D01*
X0245800Y0102600D01*
X0245800Y0102600D01*
X0245800Y0107800D01*
X0245391Y0107800D01*
X0244582Y0107672D01*
X0245800Y0104657D02*
X0245800Y0104657D01*
X0245800Y0102600D02*
X0240600Y0102600D01*
X0240600Y0102191D01*
X0240728Y0101382D01*
X0240981Y0100604D01*
X0241353Y0099875D01*
X0241834Y0099212D01*
X0242412Y0098634D01*
X0243075Y0098153D01*
X0243804Y0097781D01*
X0244582Y0097528D01*
X0245391Y0097400D01*
X0245800Y0097400D01*
X0245800Y0102600D01*
X0245800Y0101459D02*
X0245800Y0101459D01*
X0245800Y0098260D02*
X0245800Y0098260D01*
X0242927Y0098260D02*
X0228350Y0098260D01*
X0228350Y0095062D02*
X0240388Y0095062D01*
X0243925Y0093225D02*
X0272050Y0093225D01*
X0295800Y0116975D01*
X0300175Y0116975D01*
X0300800Y0117600D01*
X0297128Y0112929D02*
X0297249Y0112807D01*
X0296696Y0112405D01*
X0295995Y0111704D01*
X0295412Y0110902D01*
X0294962Y0110018D01*
X0294655Y0109075D01*
X0294500Y0108096D01*
X0294500Y0107600D01*
X0300800Y0107600D01*
X0300800Y0107600D01*
X0294500Y0107600D01*
X0294500Y0107104D01*
X0294655Y0106125D01*
X0294962Y0105182D01*
X0295412Y0104298D01*
X0295995Y0103496D01*
X0296696Y0102795D01*
X0297249Y0102393D01*
X0295798Y0100942D01*
X0294900Y0098774D01*
X0294900Y0096426D01*
X0295798Y0094258D01*
X0297456Y0092600D01*
X0295798Y0090942D01*
X0294900Y0088774D01*
X0294900Y0086426D01*
X0295798Y0084258D01*
X0297456Y0082600D01*
X0295798Y0080942D01*
X0294900Y0078774D01*
X0294900Y0076426D01*
X0295798Y0074258D01*
X0297456Y0072600D01*
X0295798Y0070942D01*
X0294929Y0068845D01*
X0294600Y0069174D01*
X0294600Y0077106D01*
X0294021Y0078503D01*
X0292953Y0079571D01*
X0291556Y0080150D01*
X0250138Y0080150D01*
X0250600Y0080612D01*
X0250600Y0084105D01*
X0251760Y0083625D01*
X0253590Y0083625D01*
X0255281Y0084325D01*
X0255380Y0084425D01*
X0274681Y0084425D01*
X0276078Y0085004D01*
X0277146Y0086072D01*
X0279699Y0088625D01*
X0279840Y0088625D01*
X0281531Y0089325D01*
X0282825Y0090619D01*
X0283525Y0092310D01*
X0283525Y0094140D01*
X0282825Y0095831D01*
X0281531Y0097125D01*
X0281384Y0097185D01*
X0297128Y0112929D01*
X0295522Y0111054D02*
X0295253Y0111054D01*
X0294500Y0107856D02*
X0292055Y0107856D01*
X0295229Y0104657D02*
X0288856Y0104657D01*
X0285658Y0101459D02*
X0296315Y0101459D01*
X0294900Y0098260D02*
X0282459Y0098260D01*
X0283143Y0095062D02*
X0295465Y0095062D01*
X0296719Y0091863D02*
X0283340Y0091863D01*
X0278925Y0093225D02*
X0273925Y0088225D01*
X0252675Y0088225D01*
X0250600Y0082268D02*
X0297124Y0082268D01*
X0295298Y0085466D02*
X0276540Y0085466D01*
X0279935Y0088665D02*
X0294900Y0088665D01*
X0295022Y0079069D02*
X0293455Y0079069D01*
X0294600Y0075870D02*
X0295130Y0075870D01*
X0294600Y0072672D02*
X0297384Y0072672D01*
X0295190Y0069473D02*
X0294600Y0069473D01*
X0286425Y0071350D02*
X0285800Y0071350D01*
X0286425Y0071350D02*
X0286425Y0055100D01*
X0290733Y0053481D02*
X0296575Y0053481D01*
X0295525Y0050282D02*
X0282305Y0050282D01*
X0282117Y0053481D02*
X0281939Y0053481D01*
X0282100Y0056679D02*
X0280575Y0056679D01*
X0282625Y0059878D02*
X0277741Y0059878D01*
X0282625Y0063076D02*
X0252622Y0063076D01*
X0251955Y0062800D02*
X0253719Y0063531D01*
X0255069Y0064881D01*
X0255800Y0066645D01*
X0255800Y0068555D01*
X0255069Y0070319D01*
X0253719Y0071669D01*
X0251955Y0072400D01*
X0244845Y0072400D01*
X0243081Y0071669D01*
X0241731Y0070319D01*
X0241000Y0068555D01*
X0241000Y0066645D01*
X0241731Y0064881D01*
X0243081Y0063531D01*
X0244845Y0062800D01*
X0251955Y0062800D01*
X0255252Y0059878D02*
X0263859Y0059878D01*
X0261025Y0056679D02*
X0255800Y0056679D01*
X0253599Y0053481D02*
X0259661Y0053481D01*
X0259294Y0050282D02*
X0255469Y0050282D01*
X0256183Y0047084D02*
X0259831Y0047084D01*
X0261391Y0043885D02*
X0254639Y0043885D01*
X0252058Y0031091D02*
X0259679Y0031091D01*
X0259679Y0027893D02*
X0255256Y0027893D01*
X0252146Y0031003D02*
X0252146Y0031003D01*
X0258455Y0024694D02*
X0259679Y0024694D01*
X0273921Y0024694D02*
X0275020Y0024694D01*
X0275079Y0024753D02*
X0275079Y0024753D01*
X0273921Y0027893D02*
X0276383Y0027893D01*
X0281425Y0035100D02*
X0283925Y0032600D01*
X0292050Y0032600D01*
X0294900Y0037488D02*
X0285415Y0037488D01*
X0280209Y0043885D02*
X0296171Y0043885D01*
X0295693Y0040687D02*
X0276641Y0040687D01*
X0281769Y0047084D02*
X0294900Y0047084D01*
X0294900Y0056679D02*
X0290750Y0056679D01*
X0290225Y0059878D02*
X0293148Y0059878D01*
X0282625Y0066275D02*
X0255647Y0066275D01*
X0255419Y0069473D02*
X0281598Y0069473D01*
X0271711Y0098260D02*
X0253873Y0098260D01*
X0256084Y0101459D02*
X0274910Y0101459D01*
X0278108Y0104657D02*
X0255788Y0104657D01*
X0252089Y0107856D02*
X0281307Y0107856D01*
X0284505Y0111054D02*
X0255555Y0111054D01*
X0241012Y0104657D02*
X0228350Y0104657D01*
X0228350Y0101459D02*
X0240716Y0101459D01*
X0243925Y0093225D02*
X0227050Y0076350D01*
X0207050Y0076350D01*
X0199550Y0068850D01*
X0169550Y0068850D01*
X0168613Y0067913D01*
X0170765Y0064691D02*
X0170765Y0064691D01*
X0186356Y0050282D02*
X0196694Y0050282D01*
X0192753Y0056679D02*
X0205800Y0056679D01*
X0208001Y0053481D02*
X0189555Y0053481D01*
X0204906Y0050282D02*
X0206516Y0050282D01*
X0205800Y0047084D02*
X0205600Y0047084D01*
X0203874Y0043885D02*
X0207526Y0043885D01*
X0220600Y0047084D02*
X0232625Y0047084D01*
X0232625Y0050282D02*
X0219884Y0050282D01*
X0218399Y0053481D02*
X0232625Y0053481D01*
X0232625Y0056679D02*
X0220600Y0056679D01*
X0230952Y0059878D02*
X0233329Y0059878D01*
X0234150Y0063076D02*
X0244178Y0063076D01*
X0241153Y0066275D02*
X0237349Y0066275D01*
X0240547Y0069473D02*
X0241381Y0069473D01*
X0240225Y0053481D02*
X0243201Y0053481D01*
X0241331Y0050282D02*
X0240225Y0050282D01*
X0240225Y0047084D02*
X0240617Y0047084D01*
X0227594Y0082268D02*
X0220842Y0082268D01*
X0224040Y0085466D02*
X0230792Y0085466D01*
X0233991Y0088665D02*
X0227239Y0088665D01*
X0228350Y0091863D02*
X0237189Y0091863D01*
X0224550Y0091350D02*
X0224550Y0137600D01*
X0228350Y0133444D02*
X0230207Y0133444D01*
X0228350Y0130245D02*
X0233406Y0130245D01*
X0228350Y0127047D02*
X0243992Y0127047D01*
X0241122Y0123848D02*
X0228350Y0123848D01*
X0228350Y0120650D02*
X0241412Y0120650D01*
X0220750Y0120650D02*
X0220188Y0120650D01*
X0220478Y0123848D02*
X0220750Y0123848D01*
X0220750Y0127047D02*
X0217608Y0127047D01*
X0220750Y0130245D02*
X0205233Y0130245D01*
X0218432Y0133444D02*
X0220750Y0133444D01*
X0216755Y0147800D02*
X0209645Y0147800D01*
X0207881Y0148531D01*
X0206531Y0149881D01*
X0205800Y0151645D01*
X0205800Y0153555D01*
X0206531Y0155319D01*
X0207881Y0156669D01*
X0209645Y0157400D01*
X0216755Y0157400D01*
X0218519Y0156669D01*
X0219869Y0155319D01*
X0220600Y0153555D01*
X0220600Y0151645D01*
X0219869Y0149881D01*
X0218519Y0148531D01*
X0216755Y0147800D01*
X0219424Y0149436D02*
X0241671Y0149436D01*
X0241834Y0149212D02*
X0242412Y0148634D01*
X0243075Y0148153D01*
X0243804Y0147781D01*
X0244582Y0147528D01*
X0245391Y0147400D01*
X0245800Y0147400D01*
X0251409Y0147400D01*
X0252218Y0147528D01*
X0252996Y0147781D01*
X0253725Y0148153D01*
X0254388Y0148634D01*
X0254966Y0149212D01*
X0255447Y0149875D01*
X0255819Y0150604D01*
X0256072Y0151382D01*
X0256200Y0152191D01*
X0256200Y0152600D01*
X0256200Y0153009D01*
X0256072Y0153818D01*
X0255819Y0154596D01*
X0255447Y0155325D01*
X0254966Y0155988D01*
X0254388Y0156566D01*
X0253725Y0157047D01*
X0252996Y0157419D01*
X0252218Y0157672D01*
X0251409Y0157800D01*
X0245800Y0157800D01*
X0245800Y0152600D01*
X0245800Y0152600D01*
X0256200Y0152600D01*
X0245800Y0152600D01*
X0245800Y0152600D01*
X0245800Y0147400D01*
X0245800Y0152600D01*
X0245800Y0152600D01*
X0245800Y0152600D01*
X0240600Y0152600D01*
X0240600Y0153009D01*
X0240728Y0153818D01*
X0240981Y0154596D01*
X0241353Y0155325D01*
X0241834Y0155988D01*
X0242412Y0156566D01*
X0243075Y0157047D01*
X0243804Y0157419D01*
X0244582Y0157672D01*
X0245391Y0157800D01*
X0245800Y0157800D01*
X0245800Y0152600D01*
X0240600Y0152600D01*
X0240600Y0152191D01*
X0240728Y0151382D01*
X0240981Y0150604D01*
X0241353Y0149875D01*
X0241834Y0149212D01*
X0240600Y0152635D02*
X0220600Y0152635D01*
X0219355Y0155833D02*
X0241722Y0155833D01*
X0243081Y0158531D02*
X0244845Y0157800D01*
X0251955Y0157800D01*
X0253719Y0158531D01*
X0255069Y0159881D01*
X0255800Y0161645D01*
X0255800Y0163555D01*
X0255069Y0165319D01*
X0253719Y0166669D01*
X0251955Y0167400D01*
X0244845Y0167400D01*
X0243081Y0166669D01*
X0241731Y0165319D01*
X0241000Y0163555D01*
X0241000Y0161645D01*
X0241731Y0159881D01*
X0243081Y0158531D01*
X0242580Y0159032D02*
X0219020Y0159032D01*
X0220600Y0162230D02*
X0241000Y0162230D01*
X0241841Y0165429D02*
X0219759Y0165429D01*
X0218616Y0168627D02*
X0226065Y0168627D01*
X0223700Y0171826D02*
X0220600Y0171826D01*
X0220502Y0175024D02*
X0219991Y0175024D01*
X0220800Y0180100D02*
X0218300Y0180100D01*
X0215800Y0182600D01*
X0220568Y0184620D02*
X0241032Y0184620D01*
X0241000Y0181421D02*
X0224853Y0181421D01*
X0220800Y0180100D02*
X0230175Y0170725D01*
X0231816Y0175024D02*
X0241609Y0175024D01*
X0241731Y0175319D02*
X0241000Y0173555D01*
X0241000Y0171645D01*
X0241731Y0169881D01*
X0243081Y0168531D01*
X0244845Y0167800D01*
X0251955Y0167800D01*
X0253719Y0168531D01*
X0255069Y0169881D01*
X0255800Y0171645D01*
X0255800Y0173555D01*
X0255069Y0175319D01*
X0253719Y0176669D01*
X0251955Y0177400D01*
X0244845Y0177400D01*
X0243081Y0176669D01*
X0241731Y0175319D01*
X0243389Y0178223D02*
X0228051Y0178223D01*
X0234698Y0171826D02*
X0241000Y0171826D01*
X0242984Y0168627D02*
X0234285Y0168627D01*
X0248211Y0178223D02*
X0255428Y0178223D01*
X0255191Y0175024D02*
X0258627Y0175024D01*
X0260694Y0171826D02*
X0255800Y0171826D01*
X0253816Y0168627D02*
X0286453Y0168627D01*
X0283255Y0165429D02*
X0254959Y0165429D01*
X0255800Y0162230D02*
X0280056Y0162230D01*
X0276858Y0159032D02*
X0254220Y0159032D01*
X0255078Y0155833D02*
X0273659Y0155833D01*
X0270461Y0152635D02*
X0256200Y0152635D01*
X0255129Y0149436D02*
X0267262Y0149436D01*
X0266425Y0143225D02*
X0242675Y0143225D01*
X0242050Y0143850D01*
X0196425Y0143850D01*
X0191384Y0136642D02*
X0172091Y0136642D01*
X0175290Y0139841D02*
X0188185Y0139841D01*
X0184987Y0143039D02*
X0178488Y0143039D01*
X0192050Y0161975D02*
X0192050Y0223225D01*
X0211475Y0200612D02*
X0214914Y0200612D01*
X0215704Y0199822D02*
X0215704Y0199822D01*
X0211475Y0197414D02*
X0268112Y0197414D01*
X0273921Y0191017D02*
X0274509Y0191017D01*
X0273921Y0187818D02*
X0277708Y0187818D01*
X0280906Y0184620D02*
X0273921Y0184620D01*
X0273921Y0181421D02*
X0283809Y0181421D01*
X0286847Y0178223D02*
X0267308Y0178223D01*
X0269150Y0175024D02*
X0292850Y0175024D01*
X0294900Y0178223D02*
X0289753Y0178223D01*
X0292791Y0181421D02*
X0296278Y0181421D01*
X0300800Y0177600D02*
X0266425Y0143225D01*
X0245800Y0149436D02*
X0245800Y0149436D01*
X0245800Y0152635D02*
X0245800Y0152635D01*
X0245800Y0155833D02*
X0245800Y0155833D01*
X0264550Y0174475D02*
X0247675Y0191350D01*
X0253382Y0191017D02*
X0259679Y0191017D01*
X0259679Y0187818D02*
X0256581Y0187818D01*
X0252230Y0181421D02*
X0250600Y0181421D01*
X0268406Y0171826D02*
X0289652Y0171826D01*
X0316797Y0178223D02*
X0326188Y0178223D01*
X0327279Y0181421D02*
X0319995Y0181421D01*
X0334800Y0187818D02*
X0334800Y0187818D01*
X0334800Y0191017D02*
X0334800Y0191017D01*
X0342274Y0191017D02*
X0346375Y0191017D01*
X0346375Y0187818D02*
X0342321Y0187818D01*
X0342321Y0184620D02*
X0346375Y0184620D01*
X0346375Y0181421D02*
X0342321Y0181421D01*
X0340586Y0178223D02*
X0346375Y0178223D01*
X0346375Y0175024D02*
X0339647Y0175024D01*
X0341579Y0171826D02*
X0346375Y0171826D01*
X0346375Y0168627D02*
X0342305Y0168627D01*
X0342130Y0165429D02*
X0346375Y0165429D01*
X0346375Y0162230D02*
X0340985Y0162230D01*
X0338503Y0159032D02*
X0346375Y0159032D01*
X0296612Y0133444D02*
X0292018Y0133444D01*
X0224550Y0091350D02*
X0215800Y0082600D01*
X0214550Y0083225D01*
X0208925Y0088850D01*
X0197050Y0083850D02*
X0139550Y0083850D01*
X0140143Y0079069D02*
X0153075Y0079069D01*
X0204424Y0149436D02*
X0206976Y0149436D01*
X0205800Y0152635D02*
X0205600Y0152635D01*
X0204355Y0155833D02*
X0207045Y0155833D01*
X0147000Y0203811D02*
X0048088Y0203811D01*
X0046183Y0206275D02*
X0048508Y0207238D01*
X0050287Y0209017D01*
X0051250Y0211342D01*
X0051250Y0213858D01*
X0050287Y0216183D01*
X0048508Y0217962D01*
X0046183Y0218925D01*
X0035417Y0218925D01*
X0033092Y0217962D01*
X0031313Y0216183D01*
X0030350Y0213858D01*
X0030350Y0211342D01*
X0031313Y0209017D01*
X0033092Y0207238D01*
X0035417Y0206275D01*
X0038250Y0206275D01*
X0038250Y0203719D01*
X0038829Y0202322D01*
X0039897Y0201254D01*
X0042226Y0198925D01*
X0035417Y0198925D01*
X0033092Y0197962D01*
X0031313Y0196183D01*
X0030350Y0193858D01*
X0030350Y0191342D01*
X0031313Y0189017D01*
X0033092Y0187238D01*
X0035417Y0186275D01*
X0046183Y0186275D01*
X0048508Y0187238D01*
X0050287Y0189017D01*
X0050828Y0190323D01*
X0051772Y0189379D01*
X0052000Y0189284D01*
X0052000Y0170588D01*
X0051000Y0169588D01*
X0051000Y0165612D01*
X0053812Y0162800D01*
X0057788Y0162800D01*
X0060600Y0165612D01*
X0060600Y0169588D01*
X0059600Y0170588D01*
X0059600Y0193356D01*
X0059232Y0194244D01*
X0060600Y0195612D01*
X0060600Y0199588D01*
X0057788Y0202400D01*
X0053812Y0202400D01*
X0051655Y0200244D01*
X0045850Y0206049D01*
X0045850Y0206275D01*
X0046183Y0206275D01*
X0047956Y0207009D02*
X0147000Y0207009D01*
X0147000Y0210208D02*
X0050780Y0210208D01*
X0051250Y0213406D02*
X0147000Y0213406D01*
X0147000Y0216605D02*
X0049865Y0216605D01*
X0042050Y0212600D02*
X0042050Y0204475D01*
X0053925Y0192600D01*
X0055800Y0192600D01*
X0055800Y0167600D01*
X0060600Y0168627D02*
X0066000Y0168627D01*
X0066183Y0165429D02*
X0060417Y0165429D01*
X0059600Y0171826D02*
X0068238Y0171826D01*
X0061471Y0175024D02*
X0059600Y0175024D01*
X0059600Y0178223D02*
X0060800Y0178223D01*
X0059600Y0181421D02*
X0062633Y0181421D01*
X0061792Y0184620D02*
X0059600Y0184620D01*
X0059600Y0187818D02*
X0060800Y0187818D01*
X0059600Y0191017D02*
X0062229Y0191017D01*
X0062196Y0194215D02*
X0059244Y0194215D01*
X0060600Y0197414D02*
X0060800Y0197414D01*
X0061824Y0200612D02*
X0059576Y0200612D01*
X0052024Y0200612D02*
X0051287Y0200612D01*
X0040539Y0200612D02*
X0026400Y0200612D01*
X0026400Y0197414D02*
X0032544Y0197414D01*
X0030498Y0194215D02*
X0026400Y0194215D01*
X0026400Y0191017D02*
X0030485Y0191017D01*
X0032512Y0187818D02*
X0026400Y0187818D01*
X0026400Y0184620D02*
X0052000Y0184620D01*
X0052000Y0187818D02*
X0049088Y0187818D01*
X0052000Y0181421D02*
X0026400Y0181421D01*
X0026400Y0178223D02*
X0032964Y0178223D01*
X0032931Y0178204D02*
X0032231Y0177667D01*
X0031608Y0177044D01*
X0031071Y0176344D01*
X0030631Y0175581D01*
X0030293Y0174766D01*
X0030065Y0173915D01*
X0029950Y0173041D01*
X0029950Y0172600D01*
X0040800Y0172600D01*
X0040800Y0172600D01*
X0040800Y0179325D01*
X0045366Y0179325D01*
X0046240Y0179210D01*
X0047091Y0178982D01*
X0047906Y0178644D01*
X0048669Y0178204D01*
X0049369Y0177667D01*
X0049992Y0177044D01*
X0050529Y0176344D01*
X0050969Y0175581D01*
X0051307Y0174766D01*
X0051535Y0173915D01*
X0051650Y0173041D01*
X0051650Y0172600D01*
X0040800Y0172600D01*
X0040800Y0172600D01*
X0040800Y0165875D01*
X0045366Y0165875D01*
X0046240Y0165990D01*
X0047091Y0166218D01*
X0047906Y0166556D01*
X0048669Y0166996D01*
X0049369Y0167533D01*
X0049992Y0168156D01*
X0050529Y0168856D01*
X0050969Y0169619D01*
X0051307Y0170434D01*
X0051535Y0171285D01*
X0051650Y0172159D01*
X0051650Y0172600D01*
X0040800Y0172600D01*
X0040800Y0172600D01*
X0040800Y0172600D01*
X0040800Y0179325D01*
X0036234Y0179325D01*
X0035360Y0179210D01*
X0034509Y0178982D01*
X0033694Y0178644D01*
X0032931Y0178204D01*
X0030400Y0175024D02*
X0026400Y0175024D01*
X0026400Y0171826D02*
X0029994Y0171826D01*
X0029950Y0172159D02*
X0030065Y0171285D01*
X0030293Y0170434D01*
X0030631Y0169619D01*
X0031071Y0168856D01*
X0031608Y0168156D01*
X0032231Y0167533D01*
X0032931Y0166996D01*
X0033694Y0166556D01*
X0034509Y0166218D01*
X0035360Y0165990D01*
X0036234Y0165875D01*
X0040800Y0165875D01*
X0040800Y0172600D01*
X0029950Y0172600D01*
X0029950Y0172159D01*
X0031247Y0168627D02*
X0026400Y0168627D01*
X0026400Y0165429D02*
X0051183Y0165429D01*
X0051000Y0168627D02*
X0050353Y0168627D01*
X0051606Y0171826D02*
X0052000Y0171826D01*
X0052000Y0175024D02*
X0051200Y0175024D01*
X0052000Y0178223D02*
X0048636Y0178223D01*
X0040800Y0178223D02*
X0040800Y0178223D01*
X0040800Y0175024D02*
X0040800Y0175024D01*
X0040800Y0171826D02*
X0040800Y0171826D01*
X0040800Y0168627D02*
X0040800Y0168627D01*
X0026400Y0162230D02*
X0070796Y0162230D01*
X0073994Y0159032D02*
X0026400Y0159032D01*
X0026400Y0155833D02*
X0075750Y0155833D01*
X0075750Y0152635D02*
X0026400Y0152635D01*
X0026400Y0203811D02*
X0038250Y0203811D01*
X0033644Y0207009D02*
X0026400Y0207009D01*
X0026400Y0210208D02*
X0030820Y0210208D01*
X0030350Y0213406D02*
X0026400Y0213406D01*
X0026400Y0216605D02*
X0031735Y0216605D01*
X0026400Y0219803D02*
X0147000Y0219803D01*
X0147000Y0223002D02*
X0026400Y0223002D01*
X0026400Y0226201D02*
X0065575Y0226201D01*
X0062377Y0229399D02*
X0026400Y0229399D01*
X0026400Y0232598D02*
X0055514Y0232598D01*
X0063461Y0238995D02*
X0068906Y0238995D01*
X0068500Y0235796D02*
X0066728Y0235796D01*
X0069926Y0232598D02*
X0070514Y0232598D01*
X0073300Y0236600D02*
X0073300Y0236975D01*
X0074550Y0238225D01*
X0077675Y0238225D01*
X0090175Y0250725D01*
X0090175Y0276350D01*
X0087050Y0276350D01*
X0080800Y0282600D01*
X0085600Y0283774D02*
X0086000Y0283774D01*
X0087625Y0286972D02*
X0083216Y0286972D01*
X0078384Y0286972D02*
X0049498Y0286972D01*
X0051250Y0283774D02*
X0076000Y0283774D01*
X0076037Y0280575D02*
X0050932Y0280575D01*
X0051397Y0277377D02*
X0080649Y0277377D01*
X0083848Y0274178D02*
X0054596Y0274178D01*
X0052675Y0270725D02*
X0052675Y0250100D01*
X0056475Y0251789D02*
X0085865Y0251789D01*
X0086375Y0254987D02*
X0077827Y0254987D01*
X0078100Y0255645D02*
X0078100Y0257555D01*
X0077369Y0259319D01*
X0076019Y0260669D01*
X0074255Y0261400D01*
X0067145Y0261400D01*
X0065381Y0260669D01*
X0064031Y0259319D01*
X0063300Y0257555D01*
X0063300Y0255645D01*
X0064031Y0253881D01*
X0065381Y0252531D01*
X0067145Y0251800D01*
X0074255Y0251800D01*
X0076019Y0252531D01*
X0077369Y0253881D01*
X0078100Y0255645D01*
X0077839Y0258186D02*
X0086375Y0258186D01*
X0086375Y0261384D02*
X0074293Y0261384D01*
X0074255Y0261800D02*
X0076019Y0262531D01*
X0077369Y0263881D01*
X0078100Y0265645D01*
X0078100Y0267555D01*
X0077369Y0269319D01*
X0076019Y0270669D01*
X0074255Y0271400D01*
X0067145Y0271400D01*
X0065381Y0270669D01*
X0064031Y0269319D01*
X0063300Y0267555D01*
X0063300Y0265645D01*
X0064031Y0263881D01*
X0065381Y0262531D01*
X0067145Y0261800D01*
X0074255Y0261800D01*
X0077660Y0264583D02*
X0086375Y0264583D01*
X0086375Y0267781D02*
X0078006Y0267781D01*
X0075270Y0270980D02*
X0086375Y0270980D01*
X0090175Y0276350D02*
X0090175Y0282600D01*
X0090800Y0282600D01*
X0091425Y0283850D01*
X0091425Y0291975D01*
X0112675Y0313225D01*
X0121425Y0313225D01*
X0135800Y0327600D01*
X0142125Y0328553D02*
X0159475Y0328553D01*
X0159475Y0331751D02*
X0142125Y0331751D01*
X0141310Y0334950D02*
X0160290Y0334950D01*
X0160438Y0335308D02*
X0159475Y0332983D01*
X0159475Y0322217D01*
X0160438Y0319892D01*
X0162217Y0318113D01*
X0164542Y0317150D01*
X0167058Y0317150D01*
X0169383Y0318113D01*
X0171162Y0319892D01*
X0172125Y0322217D01*
X0172125Y0332983D01*
X0171162Y0335308D01*
X0169383Y0337087D01*
X0167058Y0338050D01*
X0164542Y0338050D01*
X0162217Y0337087D01*
X0160438Y0335308D01*
X0159475Y0325354D02*
X0142125Y0325354D01*
X0142100Y0322156D02*
X0159500Y0322156D01*
X0161373Y0318957D02*
X0140227Y0318957D01*
X0128180Y0325354D02*
X0122125Y0325354D01*
X0122125Y0322217D02*
X0121162Y0319892D01*
X0119383Y0318113D01*
X0117058Y0317150D01*
X0114542Y0317150D01*
X0112217Y0318113D01*
X0110438Y0319892D01*
X0109475Y0322217D01*
X0109475Y0332983D01*
X0110438Y0335308D01*
X0112217Y0337087D01*
X0114542Y0338050D01*
X0117058Y0338050D01*
X0119383Y0337087D01*
X0121162Y0335308D01*
X0122125Y0332983D01*
X0122125Y0322217D01*
X0122100Y0322156D02*
X0124982Y0322156D01*
X0121783Y0318957D02*
X0120227Y0318957D01*
X0111373Y0318957D02*
X0090227Y0318957D01*
X0089383Y0318113D02*
X0091162Y0319892D01*
X0092125Y0322217D01*
X0092125Y0332983D01*
X0091162Y0335308D01*
X0089383Y0337087D01*
X0087058Y0338050D01*
X0084542Y0338050D01*
X0082217Y0337087D01*
X0080438Y0335308D01*
X0079475Y0332983D01*
X0079475Y0322217D01*
X0080438Y0319892D01*
X0082217Y0318113D01*
X0084542Y0317150D01*
X0087058Y0317150D01*
X0089383Y0318113D01*
X0088812Y0317400D02*
X0086000Y0314588D01*
X0086000Y0310612D01*
X0088812Y0307800D01*
X0092788Y0307800D01*
X0095600Y0310612D01*
X0095600Y0314588D01*
X0092788Y0317400D01*
X0088812Y0317400D01*
X0087171Y0315759D02*
X0084429Y0315759D01*
X0085600Y0314588D02*
X0082788Y0317400D01*
X0078812Y0317400D01*
X0076000Y0314588D01*
X0076000Y0310612D01*
X0078812Y0307800D01*
X0082788Y0307800D01*
X0085600Y0310612D01*
X0085600Y0314588D01*
X0085600Y0312560D02*
X0086000Y0312560D01*
X0087250Y0309362D02*
X0084350Y0309362D01*
X0077250Y0309362D02*
X0050430Y0309362D01*
X0051250Y0312560D02*
X0076000Y0312560D01*
X0077171Y0315759D02*
X0050463Y0315759D01*
X0040800Y0325875D02*
X0040800Y0332600D01*
X0029950Y0332600D01*
X0029950Y0332159D01*
X0030065Y0331285D01*
X0030293Y0330434D01*
X0030631Y0329619D01*
X0031071Y0328856D01*
X0031608Y0328156D01*
X0032231Y0327533D01*
X0032931Y0326996D01*
X0033694Y0326556D01*
X0034509Y0326218D01*
X0035360Y0325990D01*
X0036234Y0325875D01*
X0040800Y0325875D01*
X0040800Y0328553D02*
X0040800Y0328553D01*
X0040800Y0331751D02*
X0040800Y0331751D01*
X0040800Y0334950D02*
X0040800Y0334950D01*
X0040800Y0338148D02*
X0040800Y0338148D01*
X0032859Y0338148D02*
X0026400Y0338148D01*
X0026400Y0334950D02*
X0030369Y0334950D01*
X0030004Y0331751D02*
X0026400Y0331751D01*
X0026400Y0328553D02*
X0031304Y0328553D01*
X0070227Y0318957D02*
X0081373Y0318957D01*
X0079500Y0322156D02*
X0072100Y0322156D01*
X0072125Y0325354D02*
X0079475Y0325354D01*
X0079475Y0328553D02*
X0072125Y0328553D01*
X0072125Y0331751D02*
X0079475Y0331751D01*
X0080290Y0334950D02*
X0071310Y0334950D01*
X0091310Y0334950D02*
X0110290Y0334950D01*
X0109475Y0331751D02*
X0092125Y0331751D01*
X0092125Y0328553D02*
X0109475Y0328553D01*
X0109475Y0325354D02*
X0092125Y0325354D01*
X0092100Y0322156D02*
X0109500Y0322156D01*
X0109835Y0315759D02*
X0094429Y0315759D01*
X0095600Y0312560D02*
X0106636Y0312560D01*
X0103438Y0309362D02*
X0094350Y0309362D01*
X0104590Y0299766D02*
X0115300Y0299766D01*
X0115300Y0296568D02*
X0101392Y0296568D01*
X0098193Y0293369D02*
X0117253Y0293369D01*
X0115593Y0290171D02*
X0095225Y0290171D01*
X0095225Y0286972D02*
X0115300Y0286972D01*
X0126169Y0280575D02*
X0126201Y0280575D01*
X0126700Y0277377D02*
X0129399Y0277377D01*
X0117091Y0302965D02*
X0107789Y0302965D01*
X0110987Y0306163D02*
X0114900Y0306163D01*
X0114900Y0309362D02*
X0114186Y0309362D01*
X0122125Y0328553D02*
X0129475Y0328553D01*
X0129475Y0331751D02*
X0122125Y0331751D01*
X0121310Y0334950D02*
X0130290Y0334950D01*
X0171310Y0334950D02*
X0180290Y0334950D01*
X0179475Y0331751D02*
X0172125Y0331751D01*
X0172125Y0328553D02*
X0179475Y0328553D01*
X0179475Y0325354D02*
X0172125Y0325354D01*
X0172100Y0322156D02*
X0179500Y0322156D01*
X0181373Y0318957D02*
X0170227Y0318957D01*
X0191539Y0302965D02*
X0201847Y0302965D01*
X0198902Y0299766D02*
X0190850Y0299766D01*
X0190850Y0296568D02*
X0198432Y0296568D01*
X0200871Y0293369D02*
X0190850Y0293369D01*
X0190850Y0290171D02*
X0199069Y0290171D01*
X0198400Y0286972D02*
X0190850Y0286972D01*
X0194737Y0306163D02*
X0198600Y0306163D01*
X0198734Y0309362D02*
X0197936Y0309362D01*
X0101330Y0270980D02*
X0093975Y0270980D01*
X0093975Y0267781D02*
X0098594Y0267781D01*
X0098940Y0264583D02*
X0093975Y0264583D01*
X0093975Y0261384D02*
X0102307Y0261384D01*
X0098761Y0258186D02*
X0093975Y0258186D01*
X0093975Y0254987D02*
X0098773Y0254987D01*
X0100575Y0251047D02*
X0099912Y0250566D01*
X0099334Y0249988D01*
X0098853Y0249325D01*
X0098481Y0248596D01*
X0098228Y0247818D01*
X0098100Y0247009D01*
X0098100Y0246600D01*
X0103300Y0246600D01*
X0103300Y0246600D01*
X0103300Y0246600D01*
X0103300Y0251800D01*
X0102891Y0251800D01*
X0102082Y0251672D01*
X0101304Y0251419D01*
X0100575Y0251047D01*
X0102819Y0251789D02*
X0093975Y0251789D01*
X0093404Y0248590D02*
X0098479Y0248590D01*
X0098100Y0246600D02*
X0098100Y0246191D01*
X0098228Y0245382D01*
X0098481Y0244604D01*
X0098853Y0243875D01*
X0099334Y0243212D01*
X0099912Y0242634D01*
X0100575Y0242153D01*
X0101304Y0241781D01*
X0102082Y0241528D01*
X0102891Y0241400D01*
X0103300Y0241400D01*
X0103300Y0246600D01*
X0098100Y0246600D01*
X0098227Y0245392D02*
X0090216Y0245392D01*
X0087017Y0242193D02*
X0100519Y0242193D01*
X0103300Y0242193D02*
X0103300Y0242193D01*
X0103300Y0245392D02*
X0103300Y0245392D01*
X0103300Y0248590D02*
X0103300Y0248590D01*
X0103300Y0251789D02*
X0103300Y0251789D01*
X0098906Y0238995D02*
X0083819Y0238995D01*
X0080620Y0235796D02*
X0098500Y0235796D01*
X0100514Y0232598D02*
X0076086Y0232598D01*
X0076269Y0242193D02*
X0075204Y0242193D01*
X0077995Y0245392D02*
X0079468Y0245392D01*
X0077671Y0248590D02*
X0082666Y0248590D01*
X0066196Y0242193D02*
X0061475Y0242193D01*
X0061475Y0245392D02*
X0063405Y0245392D01*
X0063729Y0248590D02*
X0059559Y0248590D01*
X0056475Y0254987D02*
X0063573Y0254987D01*
X0063561Y0258186D02*
X0056475Y0258186D01*
X0056475Y0261384D02*
X0067107Y0261384D01*
X0063740Y0264583D02*
X0063071Y0264583D01*
X0063100Y0267781D02*
X0063394Y0267781D01*
X0060709Y0270980D02*
X0066130Y0270980D01*
X0052675Y0270725D02*
X0040800Y0282600D01*
X0048689Y0267781D02*
X0048875Y0267781D01*
X0040800Y0248590D02*
X0040800Y0248590D01*
X0040800Y0245392D02*
X0040800Y0245392D01*
X0040800Y0242193D02*
X0040800Y0242193D01*
X0040800Y0238995D02*
X0040800Y0238995D01*
X0040800Y0212600D02*
X0042050Y0212600D01*
X0100800Y0181421D02*
X0100800Y0181421D01*
X0100800Y0178223D02*
X0100800Y0178223D01*
X0100800Y0175024D02*
X0100800Y0175024D01*
D18*
X0235800Y0102600D03*
X0255800Y0097600D03*
X0255800Y0082600D03*
X0265800Y0067600D03*
X0265800Y0117600D03*
X0265800Y0152600D03*
X0255800Y0252600D03*
X0280800Y0252600D03*
X0305800Y0277600D03*
X0305800Y0297600D03*
D19*
X0330175Y0247600D03*
X0317675Y0228850D03*
X0288300Y0182600D03*
X0264550Y0174475D03*
X0230175Y0170725D03*
X0212675Y0191350D03*
X0212675Y0208225D03*
X0220800Y0206975D03*
X0263925Y0211975D03*
X0192050Y0161975D03*
X0181425Y0151350D03*
X0196425Y0143850D03*
X0229550Y0138850D03*
X0219550Y0096350D03*
X0197050Y0083850D03*
X0157675Y0078850D03*
X0150800Y0127600D03*
X0252675Y0088225D03*
X0278925Y0093225D03*
X0285800Y0071350D03*
X0286425Y0055100D03*
X0281425Y0035100D03*
X0292050Y0032600D03*
X0349550Y0027600D03*
X0278925Y0136350D03*
X0150800Y0233225D03*
X0236425Y0298850D03*
M02*
