%
M48
M72
T01C0.01378
T02C0.03200
T03C0.04000
T04C0.04400
T05C0.05500
T06C0.05906
T07C0.11811
%
T01
X235800Y102600
X255800Y97600
X255800Y82600
X265800Y67600
X265800Y117600
X265800Y152600
X255800Y252600
X280800Y252600
X305800Y277600
X305800Y297600
T02
X320800Y297600
X320800Y312600
X320800Y322600
X320800Y332600
X350800Y332600
X350800Y322600
X350800Y312600
X350800Y297600
X365800Y287600
X350800Y277600
X350800Y267600
X350800Y257600
X350800Y242600
X365800Y257600
X330175Y247600
X320800Y242600
X317675Y228850
X320800Y257600
X320800Y267600
X320800Y277600
X365800Y312600
X365800Y342600
X265800Y307600
X265800Y297600
X265800Y287600
X265800Y262600
X265800Y242600
X265800Y232600
X265800Y222600
X263925Y211975
X245800Y182600
X245800Y172600
X245800Y162600
X245800Y152600
X245800Y137600
X245800Y122600
X245800Y112600
X245800Y102600
X252675Y88225
X245800Y82600
X245800Y67600
X245800Y57600
X245800Y47600
X245800Y37600
X245800Y22600
X215800Y22600
X215800Y37600
X215800Y47600
X215800Y57600
X215800Y67600
X215800Y82600
X219550Y96350
X215800Y102600
X215800Y112600
X215800Y122600
X215800Y137600
X229550Y138850
X215800Y152600
X215800Y162600
X215800Y172600
X215800Y182600
X212675Y191350
X200800Y182600
X192050Y161975
X200800Y152600
X196425Y143850
X200800Y132600
X181425Y151350
X170800Y127600
X170800Y117600
X170800Y107600
X170800Y97600
X157675Y78850
X140800Y97600
X140800Y107600
X140800Y117600
X140800Y127600
X150800Y127600
X125800Y127600
X100800Y127600
X100800Y117600
X100800Y107600
X100800Y97600
X125800Y97600
X125800Y57600
X140800Y57600
X140800Y47600
X140800Y37600
X140800Y27600
X125800Y27600
X100800Y27600
X100800Y37600
X100800Y47600
X100800Y57600
X70800Y57600
X70800Y47600
X70800Y37600
X70800Y27600
X55800Y27600
X55800Y57600
X55800Y97600
X70800Y97600
X70800Y107600
X70800Y117600
X70800Y127600
X55800Y127600
X55800Y167600
X70800Y167600
X70800Y177600
X70800Y187600
X70800Y197600
X55800Y197600
X58300Y236600
X73300Y236600
X73300Y246600
X73300Y256600
X73300Y266600
X58300Y266600
X80800Y282600
X90800Y282600
X103300Y266600
X103300Y256600
X103300Y246600
X103300Y236600
X120800Y237600
X120800Y257600
X120800Y277600
X120800Y287600
X120800Y297600
X120800Y307600
X90800Y312600
X80800Y312600
X160800Y307600
X160800Y297600
X160800Y287600
X160800Y277600
X175800Y277600
X175800Y267600
X175800Y257600
X175800Y247600
X185800Y232600
X195800Y232600
X205800Y247600
X205800Y257600
X205800Y267600
X205800Y277600
X205800Y287600
X205800Y297600
X205800Y307600
X225800Y307600
X225800Y297600
X225800Y287600
X236425Y298850
X225800Y262600
X225800Y242600
X225800Y232600
X225800Y222600
X220800Y206975
X212675Y208225
X230175Y170725
X264550Y174475
X288300Y182600
X278925Y136350
X278925Y93225
X285800Y71350
X286425Y55100
X281425Y35100
X292050Y32600
X349550Y27600
X200800Y47600
X170800Y47600
X170800Y37600
X170800Y27600
X170800Y57600
X197050Y83850
X200800Y77600
X200800Y102600
X100800Y167600
X100800Y177600
X100800Y187600
X100800Y197600
X150800Y233225
X160800Y237600
X160800Y257600
X175800Y287600
X175800Y297600
X175800Y307600
T03
X300800Y227600
X300800Y217600
X300800Y207600
X300800Y197600
X300800Y187600
X300800Y177600
X300800Y167600
X300800Y157600
X300800Y147600
X300800Y137600
X300800Y127600
X300800Y117600
X300800Y107600
X300800Y97600
X300800Y87600
X300800Y77600
X300800Y67600
X300800Y57600
X300800Y47600
X300800Y37600
X310800Y37600
X310800Y47600
X310800Y57600
X310800Y67600
X310800Y77600
X310800Y87600
X310800Y97600
X310800Y107600
X310800Y117600
X310800Y127600
X310800Y137600
X310800Y147600
X310800Y157600
X310800Y167600
X310800Y177600
X310800Y187600
X310800Y197600
X310800Y207600
X310800Y217600
X310800Y227600
T04
X265800Y272600
X225800Y272600
X160800Y247600
X120800Y247600
T05
X40800Y32600
X40800Y52600
X40800Y72600
X40800Y102600
X40800Y122600
X40800Y142600
X40800Y172600
X40800Y192600
X40800Y212600
X40800Y242600
X40800Y262600
X40800Y282600
X40800Y312600
X40800Y332600
X65800Y327600
X85800Y327600
X115800Y327600
X135800Y327600
X165800Y327600
X185800Y327600
X225800Y327600
X245800Y327600
X335800Y117600
X335800Y97600
X335800Y67600
X335800Y47600
T06
X334800Y29600
X266800Y29600
X266800Y185600
X334800Y185600
T07
X330800Y167600
X270800Y50600
M30
