G75*
%MOIN*%
%OFA0B0*%
%FSLAX25Y25*%
%IPPOS*%
%LPD*%
%AMOC8*
5,1,8,0,0,1.08239X$1,22.5*
%
%ADD10C,0.08200*%
%ADD11C,0.06000*%
%ADD12C,0.09050*%
%ADD13OC8,0.06000*%
%ADD14R,0.10643X0.10643*%
%ADD15C,0.12611*%
%ADD16C,0.08400*%
%ADD17OC8,0.07400*%
%ADD18C,0.03778*%
%ADD19C,0.05600*%
D10*
X0300800Y0037600D03*
X0300800Y0047600D03*
X0300800Y0057600D03*
X0300800Y0067600D03*
X0300800Y0077600D03*
X0300800Y0087600D03*
X0300800Y0097600D03*
X0300800Y0107600D03*
X0300800Y0117600D03*
X0300800Y0127600D03*
X0300800Y0137600D03*
X0300800Y0147600D03*
X0300800Y0157600D03*
X0300800Y0167600D03*
X0300800Y0177600D03*
X0300800Y0187600D03*
X0300800Y0197600D03*
X0300800Y0207600D03*
X0300800Y0217600D03*
X0300800Y0227600D03*
X0310800Y0227600D03*
X0310800Y0217600D03*
X0310800Y0207600D03*
X0310800Y0197600D03*
X0310800Y0187600D03*
X0310800Y0177600D03*
X0310800Y0167600D03*
X0310800Y0157600D03*
X0310800Y0147600D03*
X0310800Y0137600D03*
X0310800Y0127600D03*
X0310800Y0117600D03*
X0310800Y0107600D03*
X0310800Y0097600D03*
X0310800Y0087600D03*
X0310800Y0077600D03*
X0310800Y0067600D03*
X0310800Y0057600D03*
X0310800Y0047600D03*
X0310800Y0037600D03*
D11*
X0251000Y0047600D02*
X0245800Y0047600D01*
X0245800Y0057600D02*
X0251000Y0057600D01*
X0251000Y0067600D02*
X0245800Y0067600D01*
X0215800Y0067600D02*
X0210600Y0067600D01*
X0210600Y0057600D02*
X0215800Y0057600D01*
X0215800Y0047600D02*
X0210600Y0047600D01*
X0176000Y0047600D02*
X0170800Y0047600D01*
X0170800Y0037600D02*
X0176000Y0037600D01*
X0176000Y0057600D02*
X0170800Y0057600D01*
X0140800Y0057600D02*
X0135600Y0057600D01*
X0135600Y0047600D02*
X0140800Y0047600D01*
X0140800Y0037600D02*
X0135600Y0037600D01*
X0106000Y0037600D02*
X0100800Y0037600D01*
X0100800Y0047600D02*
X0106000Y0047600D01*
X0106000Y0057600D02*
X0100800Y0057600D01*
X0070800Y0057600D02*
X0065600Y0057600D01*
X0065600Y0047600D02*
X0070800Y0047600D01*
X0070800Y0037600D02*
X0065600Y0037600D01*
X0065600Y0107600D02*
X0070800Y0107600D01*
X0070800Y0117600D02*
X0065600Y0117600D01*
X0065600Y0127600D02*
X0070800Y0127600D01*
X0100800Y0127600D02*
X0106000Y0127600D01*
X0106000Y0117600D02*
X0100800Y0117600D01*
X0100800Y0107600D02*
X0106000Y0107600D01*
X0135600Y0107600D02*
X0140800Y0107600D01*
X0140800Y0117600D02*
X0135600Y0117600D01*
X0135600Y0127600D02*
X0140800Y0127600D01*
X0170800Y0127600D02*
X0176000Y0127600D01*
X0176000Y0117600D02*
X0170800Y0117600D01*
X0170800Y0107600D02*
X0176000Y0107600D01*
X0210600Y0102600D02*
X0215800Y0102600D01*
X0215800Y0112600D02*
X0210600Y0112600D01*
X0210600Y0122600D02*
X0215800Y0122600D01*
X0215800Y0152600D02*
X0210600Y0152600D01*
X0210600Y0162600D02*
X0215800Y0162600D01*
X0215800Y0172600D02*
X0210600Y0172600D01*
X0245800Y0172600D02*
X0251000Y0172600D01*
X0251000Y0162600D02*
X0245800Y0162600D01*
X0245800Y0152600D02*
X0251000Y0152600D01*
X0251000Y0122600D02*
X0245800Y0122600D01*
X0245800Y0112600D02*
X0251000Y0112600D01*
X0251000Y0102600D02*
X0245800Y0102600D01*
X0106000Y0177600D02*
X0100800Y0177600D01*
X0100800Y0187600D02*
X0106000Y0187600D01*
X0106000Y0197600D02*
X0100800Y0197600D01*
X0070800Y0197600D02*
X0065600Y0197600D01*
X0065600Y0187600D02*
X0070800Y0187600D01*
X0070800Y0177600D02*
X0065600Y0177600D01*
X0068100Y0246600D02*
X0073300Y0246600D01*
X0073300Y0256600D02*
X0068100Y0256600D01*
X0068100Y0266600D02*
X0073300Y0266600D01*
X0103300Y0266600D02*
X0108500Y0266600D01*
X0108500Y0256600D02*
X0103300Y0256600D01*
X0103300Y0246600D02*
X0108500Y0246600D01*
X0173200Y0247600D02*
X0178400Y0247600D01*
X0178400Y0257600D02*
X0173200Y0257600D01*
X0173200Y0267600D02*
X0178400Y0267600D01*
X0178400Y0277600D02*
X0173200Y0277600D01*
X0173200Y0287600D02*
X0178400Y0287600D01*
X0178400Y0297600D02*
X0173200Y0297600D01*
X0173200Y0307600D02*
X0178400Y0307600D01*
X0203200Y0307600D02*
X0208400Y0307600D01*
X0208400Y0297600D02*
X0203200Y0297600D01*
X0203200Y0287600D02*
X0208400Y0287600D01*
X0208400Y0277600D02*
X0203200Y0277600D01*
X0203200Y0267600D02*
X0208400Y0267600D01*
X0208400Y0257600D02*
X0203200Y0257600D01*
X0203200Y0247600D02*
X0208400Y0247600D01*
X0315600Y0257600D02*
X0320800Y0257600D01*
X0320800Y0267600D02*
X0315600Y0267600D01*
X0315600Y0277600D02*
X0320800Y0277600D01*
X0350800Y0277600D02*
X0356000Y0277600D01*
X0356000Y0267600D02*
X0350800Y0267600D01*
X0350800Y0257600D02*
X0356000Y0257600D01*
X0356000Y0312600D02*
X0350800Y0312600D01*
X0350800Y0322600D02*
X0356000Y0322600D01*
X0356000Y0332600D02*
X0350800Y0332600D01*
X0320800Y0332600D02*
X0315600Y0332600D01*
X0315600Y0322600D02*
X0320800Y0322600D01*
X0320800Y0312600D02*
X0315600Y0312600D01*
D12*
X0044925Y0032600D02*
X0036675Y0032600D01*
X0036675Y0052600D02*
X0044925Y0052600D01*
X0044925Y0072600D02*
X0036675Y0072600D01*
X0036675Y0102600D02*
X0044925Y0102600D01*
X0044925Y0122600D02*
X0036675Y0122600D01*
X0036675Y0142600D02*
X0044925Y0142600D01*
X0044925Y0172600D02*
X0036675Y0172600D01*
X0036675Y0192600D02*
X0044925Y0192600D01*
X0044925Y0212600D02*
X0036675Y0212600D01*
X0036675Y0242600D02*
X0044925Y0242600D01*
X0044925Y0262600D02*
X0036675Y0262600D01*
X0036675Y0282600D02*
X0044925Y0282600D01*
X0044925Y0312600D02*
X0036675Y0312600D01*
X0036675Y0332600D02*
X0044925Y0332600D01*
X0065800Y0331725D02*
X0065800Y0323475D01*
X0085800Y0323475D02*
X0085800Y0331725D01*
X0115800Y0331725D02*
X0115800Y0323475D01*
X0135800Y0323475D02*
X0135800Y0331725D01*
X0165800Y0331725D02*
X0165800Y0323475D01*
X0185800Y0323475D02*
X0185800Y0331725D01*
X0225800Y0331725D02*
X0225800Y0323475D01*
X0245800Y0323475D02*
X0245800Y0331725D01*
X0331675Y0117600D02*
X0339925Y0117600D01*
X0339925Y0097600D02*
X0331675Y0097600D01*
X0331675Y0067600D02*
X0339925Y0067600D01*
X0339925Y0047600D02*
X0331675Y0047600D01*
D13*
X0245800Y0037600D03*
X0245800Y0022600D03*
X0215800Y0022600D03*
X0215800Y0037600D03*
X0200800Y0047600D03*
X0170800Y0027600D03*
X0140800Y0027600D03*
X0125800Y0027600D03*
X0100800Y0027600D03*
X0070800Y0027600D03*
X0055800Y0027600D03*
X0055800Y0057600D03*
X0055800Y0097600D03*
X0070800Y0097600D03*
X0100800Y0097600D03*
X0125800Y0097600D03*
X0140800Y0097600D03*
X0170800Y0097600D03*
X0200800Y0102600D03*
X0215800Y0082600D03*
X0200800Y0077600D03*
X0245800Y0082600D03*
X0200800Y0132600D03*
X0215800Y0137600D03*
X0200800Y0152600D03*
X0200800Y0182600D03*
X0215800Y0182600D03*
X0245800Y0182600D03*
X0245800Y0137600D03*
X0195800Y0232600D03*
X0185800Y0232600D03*
X0103300Y0236600D03*
X0073300Y0236600D03*
X0058300Y0236600D03*
X0058300Y0266600D03*
X0080800Y0282600D03*
X0090800Y0282600D03*
X0090800Y0312600D03*
X0080800Y0312600D03*
X0055800Y0197600D03*
X0055800Y0167600D03*
X0070800Y0167600D03*
X0100800Y0167600D03*
X0125800Y0127600D03*
X0055800Y0127600D03*
X0125800Y0057600D03*
X0320800Y0242600D03*
X0350800Y0242600D03*
X0365800Y0257600D03*
X0365800Y0287600D03*
X0350800Y0297600D03*
X0365800Y0312600D03*
X0365800Y0342600D03*
X0320800Y0297600D03*
D14*
X0334800Y0185600D03*
X0266800Y0185600D03*
X0266800Y0029600D03*
X0334800Y0029600D03*
D15*
X0270800Y0050600D03*
X0330800Y0167600D03*
D16*
X0265800Y0272600D03*
X0225800Y0272600D03*
X0160800Y0247600D03*
X0120800Y0247600D03*
D17*
X0120800Y0257600D03*
X0120800Y0237600D03*
X0160800Y0237600D03*
X0160800Y0257600D03*
X0160800Y0277600D03*
X0160800Y0287600D03*
X0160800Y0297600D03*
X0160800Y0307600D03*
X0120800Y0307600D03*
X0120800Y0297600D03*
X0120800Y0287600D03*
X0120800Y0277600D03*
X0225800Y0287600D03*
X0225800Y0297600D03*
X0225800Y0307600D03*
X0265800Y0307600D03*
X0265800Y0297600D03*
X0265800Y0287600D03*
X0265800Y0262600D03*
X0265800Y0242600D03*
X0265800Y0232600D03*
X0265800Y0222600D03*
X0225800Y0222600D03*
X0225800Y0232600D03*
X0225800Y0242600D03*
X0225800Y0262600D03*
D18*
X0255800Y0252600D03*
X0280800Y0252600D03*
X0305800Y0277600D03*
X0305800Y0297600D03*
X0265800Y0152600D03*
X0265800Y0117600D03*
X0255800Y0097600D03*
X0255800Y0082600D03*
X0265800Y0067600D03*
X0235800Y0102600D03*
D19*
X0219550Y0096350D03*
X0197050Y0083850D03*
X0157675Y0078850D03*
X0150800Y0127600D03*
X0181425Y0151350D03*
X0192050Y0161975D03*
X0196425Y0143850D03*
X0229550Y0138850D03*
X0230175Y0170725D03*
X0212675Y0191350D03*
X0212675Y0208225D03*
X0220800Y0206975D03*
X0263925Y0211975D03*
X0288300Y0182600D03*
X0264550Y0174475D03*
X0278925Y0136350D03*
X0278925Y0093225D03*
X0285800Y0071350D03*
X0286425Y0055100D03*
X0281425Y0035100D03*
X0292050Y0032600D03*
X0349550Y0027600D03*
X0252675Y0088225D03*
X0317675Y0228850D03*
X0330175Y0247600D03*
X0236425Y0298850D03*
X0150800Y0233225D03*
M02*
